<svg width="24" height="24" viewBox="0 0 24 24" fill="none" xmlns="http://www.w3.org/2000/svg">
<g clip-path="url(#clip0_143_7623)">
<path d="M21.4998 4.00008H18.8332V6.00008C18.8332 6.19268 18.7952 6.3834 18.7215 6.56135C18.6478 6.73929 18.5398 6.90097 18.4036 7.03717C18.2674 7.17336 18.1057 7.28139 17.9278 7.3551C17.7498 7.42881 17.5591 7.46674 17.3665 7.46674C17.1739 7.46674 16.9832 7.42881 16.8052 7.3551C16.6273 7.28139 16.4656 7.17336 16.3294 7.03717C16.1932 6.90097 16.0852 6.73929 16.0115 6.56135C15.9378 6.3834 15.8998 6.19268 15.8998 6.00008V4.00008H8.13318V6.00008C8.13318 6.38906 7.97866 6.76211 7.7036 7.03717C7.42855 7.31222 7.0555 7.46674 6.66651 7.46674C6.27753 7.46674 5.90448 7.31222 5.62942 7.03717C5.35437 6.76211 5.19985 6.38906 5.19985 6.00008V4.00008H2.53318C2.37453 3.99827 2.21713 4.0283 2.07028 4.08838C1.92344 4.14847 1.79013 4.23739 1.67825 4.34989C1.56638 4.4624 1.47819 4.59619 1.41892 4.74336C1.35965 4.89054 1.33049 5.0481 1.33318 5.20674V20.1267C1.33053 20.2826 1.35861 20.4374 1.41581 20.5824C1.47301 20.7274 1.55821 20.8597 1.66655 20.9718C1.77489 21.0838 1.90425 21.1734 2.04722 21.2355C2.1902 21.2975 2.344 21.3308 2.49985 21.3334H21.4998C21.6557 21.3308 21.8095 21.2975 21.9525 21.2355C22.0954 21.1734 22.2248 21.0838 22.3331 20.9718C22.4415 20.8597 22.5267 20.7274 22.5839 20.5824C22.6411 20.4374 22.6692 20.2826 22.6665 20.1267V5.20674C22.6692 5.0509 22.6411 4.89607 22.5839 4.75108C22.5267 4.60609 22.4415 4.47379 22.3331 4.36174C22.2248 4.24968 22.0954 4.16007 21.9525 4.09802C21.8095 4.03596 21.6557 4.00268 21.4998 4.00008ZM6.66651 17.3334H5.33318V16.0001H6.66651V17.3334ZM6.66651 14.0001H5.33318V12.6667H6.66651V14.0001ZM6.66651 10.6667H5.33318V9.33341H6.66651V10.6667ZM10.6665 17.3334H9.33318V16.0001H10.6665V17.3334ZM10.6665 14.0001H9.33318V12.6667H10.6665V14.0001ZM10.6665 10.6667H9.33318V9.33341H10.6665V10.6667ZM14.6665 17.3334H13.3332V16.0001H14.6665V17.3334ZM14.6665 14.0001H13.3332V12.6667H14.6665V14.0001ZM14.6665 10.6667H13.3332V9.33341H14.6665V10.6667ZM18.6665 17.3334H17.3332V16.0001H18.6665V17.3334ZM18.6665 14.0001H17.3332V12.6667H18.6665V14.0001ZM18.6665 10.6667H17.3332V9.33341H18.6665V10.6667Z" fill="#1D2130"/>
<path d="M6.66667 6.66659C6.84348 6.66659 7.01305 6.59635 7.13807 6.47132C7.2631 6.3463 7.33333 6.17673 7.33333 5.99992V1.99992C7.33333 1.82311 7.2631 1.65354 7.13807 1.52851C7.01305 1.40349 6.84348 1.33325 6.66667 1.33325C6.48986 1.33325 6.32029 1.40349 6.19526 1.52851C6.07024 1.65354 6 1.82311 6 1.99992V5.99992C6 6.17673 6.07024 6.3463 6.19526 6.47132C6.32029 6.59635 6.48986 6.66659 6.66667 6.66659Z" fill="#1D2130"/>
<path d="M17.3332 6.66659C17.51 6.66659 17.6796 6.59635 17.8046 6.47132C17.9296 6.3463 17.9998 6.17673 17.9998 5.99992V1.99992C17.9998 1.82311 17.9296 1.65354 17.8046 1.52851C17.6796 1.40349 17.51 1.33325 17.3332 1.33325C17.1564 1.33325 16.9868 1.40349 16.8618 1.52851C16.7367 1.65354 16.6665 1.82311 16.6665 1.99992V5.99992C16.6665 6.17673 16.7367 6.3463 16.8618 6.47132C16.9868 6.59635 17.1564 6.66659 17.3332 6.66659Z" fill="#1D2130"/>
</g>
<defs>
<clipPath id="clip0_143_7623">
<rect width="24" height="24" fill="white"/>
</clipPath>
</defs>
</svg>
