<svg width="33" height="176" viewBox="0 0 33 176" fill="none" xmlns="http://www.w3.org/2000/svg">
<rect x="15.0468" y="92" width="76" height="2" transform="rotate(-90 15.0468 92)" fill="#4338CA"/>
<rect x="15.0468" y="168" width="76" height="2" transform="rotate(-90 15.0468 168)" fill="#4338CA"/>
<rect x="0.121399" width="32" height="32" rx="16" fill="#4338CA"/>
<path fill-rule="evenodd" clip-rule="evenodd" d="M22.8285 11.2929C23.219 11.6834 23.219 12.3166 22.8285 12.7071L14.8285 20.7071C14.438 21.0976 13.8048 21.0976 13.4143 20.7071L9.41429 16.7071C9.02377 16.3166 9.02377 15.6834 9.41429 15.2929C9.80482 14.9024 10.438 14.9024 10.8285 15.2929L14.1214 18.5858L21.4143 11.2929C21.8048 10.9024 22.438 10.9024 22.8285 11.2929Z" fill="white"/>
<rect x="0.121399" y="72" width="32" height="32" rx="16" fill="#4338CA"/>
<path fill-rule="evenodd" clip-rule="evenodd" d="M22.8285 83.2929C23.219 83.6834 23.219 84.3166 22.8285 84.7071L14.8285 92.7071C14.438 93.0976 13.8048 93.0976 13.4143 92.7071L9.41429 88.7071C9.02377 88.3166 9.02377 87.6834 9.41429 87.2929C9.80482 86.9024 10.438 86.9024 10.8285 87.2929L14.1214 90.5858L21.4143 83.2929C21.8048 82.9024 22.438 82.9024 22.8285 83.2929Z" fill="white"/>
<rect x="0.121399" y="144" width="32" height="32" rx="16" fill="#4338CA"/>
<path fill-rule="evenodd" clip-rule="evenodd" d="M22.8285 155.293C23.219 155.683 23.219 156.317 22.8285 156.707L14.8285 164.707C14.438 165.098 13.8048 165.098 13.4143 164.707L9.41429 160.707C9.02377 160.317 9.02377 159.683 9.41429 159.293C9.80482 158.902 10.438 158.902 10.8285 159.293L14.1214 162.586L21.4143 155.293C21.8048 154.902 22.438 154.902 22.8285 155.293Z" fill="white"/>
</svg>
