<svg width="32" height="176" viewBox="0 0 32 176" fill="none" xmlns="http://www.w3.org/2000/svg">
<path d="M17 146L17 102H15L15 146H17Z" fill="#D1D5DB"/>
<rect width="57" height="2" transform="matrix(0 -1 -1 0 17 73)" fill="#D1D5DB"/>
<rect x="-1" y="1" width="30" height="30" rx="15" transform="matrix(-1 0 0 1 30 0)" stroke="#4F46E5" stroke-width="2"/>
<circle cx="5" cy="5" r="5" transform="matrix(-1 0 0 1 21 11)" fill="#4F46E5"/>
<rect x="-1" y="1" width="30" height="30" rx="15" transform="matrix(-1 0 0 1 30 72)" stroke="#D1D5DB" stroke-width="2"/>
<rect x="-1" y="1" width="30" height="30" rx="15" transform="matrix(-1 0 0 1 30 144)" stroke="#D1D5DB" stroke-width="2"/>
</svg>
