<svg width="46" height="46" viewBox="0 0 46 46" fill="none" xmlns="http://www.w3.org/2000/svg">
<path d="M14.3747 16.291C15.1298 16.291 15.8775 16.1423 16.5751 15.8533C17.2727 15.5644 17.9066 15.1408 18.4405 14.6069C18.9745 14.0729 19.398 13.4391 19.687 12.7414C19.9759 12.0438 20.1247 11.2961 20.1247 10.541C20.1247 9.78591 19.9759 9.03821 19.687 8.34059C19.398 7.64296 18.9745 7.00909 18.4405 6.47515C17.9066 5.94121 17.2727 5.51767 16.5751 5.22871C15.8775 4.93974 15.1298 4.79102 14.3747 4.79102C12.8497 4.79102 11.3871 5.39682 10.3088 6.47515C9.23048 7.55349 8.62467 9.01602 8.62467 10.541C8.62467 12.066 9.23048 13.5285 10.3088 14.6069C11.3871 15.6852 12.8497 16.291 14.3747 16.291ZM31.6247 16.291C32.3798 16.291 33.1275 16.1423 33.8251 15.8533C34.5227 15.5644 35.1566 15.1408 35.6905 14.6069C36.2245 14.0729 36.648 13.4391 36.937 12.7414C37.2259 12.0438 37.3747 11.2961 37.3747 10.541C37.3747 9.78591 37.2259 9.03821 36.937 8.34059C36.648 7.64296 36.2245 7.00909 35.6905 6.47515C35.1566 5.94121 34.5227 5.51767 33.8251 5.22871C33.1275 4.93974 32.3798 4.79102 31.6247 4.79102C30.0997 4.79102 28.6371 5.39682 27.5588 6.47515C26.4805 7.55349 25.8747 9.01602 25.8747 10.541C25.8747 12.066 26.4805 13.5285 27.5588 14.6069C28.6371 15.6852 30.0997 16.291 31.6247 16.291ZM3.83301 21.5101C3.83301 21.0764 3.91843 20.647 4.08439 20.2463C4.25035 19.8457 4.49361 19.4816 4.80026 19.1749C5.10692 18.8683 5.47098 18.625 5.87164 18.4591C6.27231 18.2931 6.70175 18.2077 7.13542 18.2077H16.3584C15.6846 19.3727 15.3308 20.6952 15.333 22.041C15.3317 23.1289 15.5625 24.2045 16.0101 25.1961C16.4576 26.1876 17.1115 27.0723 17.9282 27.791H15.7604C14.8475 27.7906 13.9504 28.0299 13.1588 28.4848C12.3672 28.9397 11.7089 29.5943 11.2495 30.3833C8.1618 29.7776 6.28538 28.2721 5.19288 26.5806C3.83301 24.4752 3.83301 22.2998 3.83301 21.9231V21.5101ZM30.2389 27.791C31.1519 27.7906 32.049 28.0299 32.8406 28.4848C33.6321 28.9397 34.2905 29.5943 34.7498 30.3833C37.8376 29.7776 39.714 28.2721 40.8065 26.5806C42.1663 24.4752 42.1663 22.2998 42.1663 21.9231V21.5111C42.1665 21.0773 42.0811 20.6478 41.9152 20.247C41.7493 19.8462 41.5061 19.482 41.1994 19.1753C40.8928 18.8685 40.5287 18.6252 40.1279 18.4592C39.7272 18.2931 39.2977 18.2077 38.8639 18.2077H29.6409C30.3148 19.3727 30.6685 20.6952 30.6663 22.041C30.6676 23.1289 30.4368 24.2045 29.9893 25.1961C29.5418 26.1876 28.8878 27.0723 28.0712 27.791H30.2389Z" fill="#FF8E78"/>
<path d="M27.0655 26.1069C28.1439 25.0285 28.7497 23.566 28.7497 22.041C28.7497 20.516 28.1439 19.0535 27.0655 17.9752C25.9872 16.8968 24.5247 16.291 22.9997 16.291C21.4747 16.291 20.0121 16.8968 18.9338 17.9752C17.8555 19.0535 17.2497 20.516 17.2497 22.041C17.2497 23.566 17.8555 25.0285 18.9338 26.1069C20.0121 27.1852 21.4747 27.791 22.9997 27.791C24.5247 27.791 25.9872 27.1852 27.0655 26.1069Z" fill="#FFCE31"/>
<path d="M13.4253 30.6749C12.8059 31.2943 12.458 32.1342 12.458 33.0101V33.4231C12.458 33.7998 12.458 35.9752 13.8179 38.0806C15.2391 40.281 17.9847 42.166 22.9997 42.166C28.0146 42.166 30.7603 40.281 32.1815 38.0806C33.5413 35.9752 33.5413 33.8007 33.5413 33.4231V33.0101C33.5413 32.1342 33.1934 31.2943 32.5741 30.6749C31.9548 30.0556 31.1148 29.7077 30.2389 29.7077H15.7604C14.8846 29.7077 14.0446 30.0556 13.4253 30.6749Z" fill="#FFCE31"/>
</svg>
