<svg width="52" height="52" viewBox="0 0 52 52" fill="none" xmlns="http://www.w3.org/2000/svg">
<path d="M50.375 18.6875H31.7687L26 1.625L20.2312 18.6875H1.625L16.6562 29.25L10.8875 46.3125L26 35.75L41.0312 46.3125L35.2625 29.25L50.375 18.6875Z" fill="#FFCE31"/>
<path d="M37.5373 16.493L40.7873 7.23047L32.2561 13.0805L33.4748 16.493H37.5373ZM22.6686 40.6242L25.9998 50.3742L29.3311 40.6242L25.9998 38.3492L22.6686 40.6242ZM41.1936 27.868L38.1061 29.9805L39.4061 33.8805H49.8873L41.1936 27.868ZM19.7436 13.0805L11.2123 7.23047L14.4623 16.493H18.5248L19.7436 13.0805ZM10.8061 27.868L2.1123 33.8805H12.5936L13.8936 29.9805L10.8061 27.868Z" fill="#FFDF85"/>
</svg>
