<svg width="54" height="54" viewBox="0 0 54 54" fill="none" xmlns="http://www.w3.org/2000/svg">
<path d="M30.375 43.875H43.875V47.25H30.375V43.875ZM30.375 37.125H50.625V40.5H30.375V37.125ZM30.375 30.375H50.625V33.75H30.375V30.375Z" fill="#1D2130"/>
<path d="M34.6766 18.9287L27.0002 3.375L19.3237 18.9287L2.16016 21.4228L14.5802 33.5306L11.6473 50.625L23.6252 44.3289V40.5152L16.131 44.4555L17.9062 34.101L18.2066 32.3511L16.9359 31.1141L9.41303 23.7786L19.8097 22.2682L21.5647 22.0134L22.3511 20.4221L27.0002 11.0008L31.6492 20.4221L32.4356 22.0134L34.1906 22.2682L46.7692 24.0992L47.2502 20.7563L34.6766 18.9287Z" fill="#1D2130"/>
</svg>
