<svg width="378" height="331" viewBox="0 0 378 331" fill="none" xmlns="http://www.w3.org/2000/svg">
<path d="M252.7 43.2539C253.1 48.3299 253.3 52.7499 253.452 58.0219L245.372 58.2919C245.014 53.6779 244.662 48.5779 244.572 43.7219C248.478 43.5859 250.634 43.4359 252.7 43.2539ZM252.7 41.2539C252.262 41.2539 250.614 41.5099 244.5 41.7239C243.976 41.7421 243.48 41.9657 243.118 42.3467C242.758 42.7275 242.56 43.2351 242.57 43.7599C242.668 48.9599 243.08 53.7799 243.37 58.3959C243.396 58.9081 243.62 59.3903 243.992 59.7433C244.364 60.0961 244.858 60.2925 245.37 60.2919L253.518 60.0219C254.048 60.0041 254.548 59.7773 254.91 59.3911C255.272 59.0049 255.466 58.4909 255.45 57.9619C255.286 52.5819 255.096 48.1839 254.694 43.0959C254.654 42.5943 254.426 42.1261 254.058 41.7847C253.688 41.4433 253.204 41.2537 252.7 41.2539Z" fill="#FFC738"/>
<path d="M261.852 42.8457C265.698 43.1597 267.878 43.2657 269.982 43.3237C269.88 48.2097 269.634 52.6097 269.248 58.0937L261.188 57.4237C261.304 55.4997 261.268 49.9157 261.852 42.8457ZM261.852 40.8457C261.348 40.8439 260.864 41.0319 260.492 41.3723C260.122 41.7125 259.894 42.1801 259.852 42.6817C259.414 47.9697 259.35 53.4517 259.184 57.3037C259.156 57.8245 259.33 58.3361 259.672 58.7305C260.014 59.1249 260.494 59.3713 261.014 59.4177C261.014 59.4177 269.186 60.0937 269.24 60.0937C269.746 60.0949 270.234 59.9037 270.606 59.5589C270.978 59.2141 271.204 58.7411 271.24 58.2357C271.616 52.8917 271.874 48.3497 271.976 43.3657C271.986 42.8379 271.788 42.3273 271.424 41.9451C271.06 41.5629 270.56 41.3403 270.032 41.3257C265.656 41.1997 262.172 40.8457 261.852 40.8457Z" fill="#FFC738"/>
<path d="M245.118 67.2422C247.238 67.4282 249.344 67.5742 253.246 67.7102C253.154 72.5822 252.822 77.4202 252.446 82.2802L244.368 82.0102C244.572 75.1242 244.818 71.0202 245.118 67.2422ZM245.118 65.2422C244.614 65.2406 244.128 65.4296 243.756 65.771C243.386 66.1126 243.158 66.5816 243.118 67.0842C242.818 70.8622 242.566 75.0202 242.362 81.9522C242.346 82.481 242.54 82.9944 242.902 83.3802C243.266 83.766 243.766 83.9924 244.294 84.0102L252.44 84.2802C252.952 84.2808 253.446 84.0846 253.818 83.7316C254.19 83.3788 254.414 82.8964 254.44 82.3842C254.598 79.3842 255.098 75.4022 255.24 67.7482C255.25 67.2232 255.054 66.715 254.692 66.3338C254.332 65.9524 253.834 65.7284 253.31 65.7102C246.844 65.4862 245.654 65.2422 245.118 65.2422Z" fill="#FFC738"/>
<path fill-rule="evenodd" clip-rule="evenodd" d="M235.974 113.186C234.956 72.4015 234.062 36.4915 234.032 34.9555C235.772 34.9555 278.294 34.3775 291.506 34.1915C293.31 33.7013 295.168 33.4325 297.038 33.3915L297.016 32.9715C297.002 32.6909 296.88 32.4269 296.674 32.2345C296.47 32.0423 296.198 31.9365 295.918 31.9395L232.8 32.5595C232.642 32.5617 232.486 32.5953 232.34 32.6583C232.194 32.7213 232.064 32.8125 231.954 32.9263C231.844 33.0403 231.758 33.1749 231.7 33.3223C231.642 33.4697 231.614 33.6271 231.618 33.7855L233.716 113.944C234.468 113.678 235.22 113.426 235.974 113.186Z" fill="#FFC738"/>
<path d="M260.864 65.4696C260.336 65.4842 259.836 65.7068 259.472 66.0884C259.108 66.4702 258.91 66.9802 258.92 67.5076C259.006 71.9076 259.244 76.2816 259.544 80.7396C260.246 80.457 260.898 80.0612 261.472 79.5676C261.202 75.4616 260.998 71.4916 260.92 67.4696C262.758 67.4176 266.34 67.2256 269.776 66.9716C269.802 66.3702 269.838 65.7702 269.88 65.1716C268.898 64.7216 268.6 65.2536 260.864 65.4696Z" fill="#FFC738"/>
<path d="M249.6 95.7391C249.208 95.1211 248.874 94.4683 248.6 93.7891C247.746 93.8291 246.756 93.8711 245.6 93.9111C245.076 93.9295 244.58 94.1531 244.218 94.5341C243.858 94.9149 243.66 95.4225 243.67 95.9471C243.77 101.147 244.176 105.917 244.47 110.583C244.484 110.801 244.532 111.016 244.614 111.219C245.164 111.155 245.714 111.101 246.264 111.061C245.974 106.413 245.746 100.075 245.664 95.9091C247.222 95.8551 248.496 95.7991 249.6 95.7391Z" fill="#FFC738"/>
<path fill-rule="evenodd" clip-rule="evenodd" d="M178.822 205.506C178.422 190.292 175.15 67.4167 175.112 65.1847C176.7 65.1847 216.448 64.6567 221.246 64.5727C221.338 66.0807 222.704 91.1307 224.182 118.343C224.862 117.952 225.552 117.575 226.25 117.213L223.344 63.4127C223.33 63.1341 223.208 62.8721 223.004 62.6813C222.8 62.4905 222.53 62.3857 222.252 62.3887L173.89 62.8007C173.732 62.8027 173.577 62.8361 173.432 62.8989C173.288 62.9615 173.157 63.0525 173.048 63.1663C172.939 63.2799 172.854 63.4143 172.797 63.5613C172.74 63.7083 172.713 63.8651 172.718 64.0227L176.688 205.872C177.342 205.746 178.056 205.622 178.822 205.506Z" fill="#FFC738"/>
<path d="M189.2 78.0488C189.53 81.8368 189.726 84.8688 189.844 88.7968L183.2 88.9388C183.064 86.8828 182.646 84.2008 182.502 78.3828C184.98 78.3348 187 78.2528 189.2 78.0488ZM189.2 76.0488C188.958 76.0488 188.26 76.1448 186.546 76.2488C182.388 76.4808 181.882 76.1448 181.056 77.0088C180.364 77.7328 180.49 78.4308 180.548 79.8328C180.788 85.5928 181.106 87.5408 181.198 88.9848C181.228 89.502 181.449 89.9894 181.819 90.352C182.189 90.7148 182.68 90.9268 183.198 90.9468L189.88 90.8048C190.144 90.7992 190.404 90.7412 190.646 90.6346C190.886 90.5278 191.104 90.3744 191.286 90.1832C191.468 89.9918 191.61 89.7664 191.704 89.52C191.8 89.2734 191.844 89.0106 191.836 88.7468C191.718 84.7888 191.518 81.6848 191.186 77.8848C191.144 77.3858 190.918 76.9202 190.55 76.5802C190.182 76.2402 189.7 76.0506 189.2 76.0488Z" fill="#FFC738"/>
<path d="M197.178 77.7324C200.308 77.9964 202.152 78.0704 203.874 78.0904C203.78 81.8524 203.618 85.0044 203.298 88.8424L196.678 88.3004C196.766 85.9484 196.682 83.2624 197.178 77.7324ZM197.178 75.7324C196.678 75.733 196.198 75.9202 195.83 76.2574C195.462 76.5944 195.232 77.0572 195.188 77.5544C194.732 82.6324 194.742 86.6164 194.682 88.2264C194.664 88.7408 194.844 89.2428 195.186 89.6276C195.528 90.0124 196.004 90.2506 196.518 90.2924C196.518 90.2924 203.248 90.8424 203.302 90.8424C203.804 90.8442 204.29 90.6564 204.66 90.3164C205.032 89.9766 205.26 89.5096 205.302 89.0084C205.628 85.1044 205.788 81.9084 205.884 78.1404C205.89 77.8756 205.844 77.612 205.748 77.3652C205.652 77.1184 205.508 76.893 205.324 76.7024C204.536 75.8864 203.858 76.1344 201.438 76.0204C198.918 75.9004 197.504 75.7324 197.178 75.7324Z" fill="#FFC738"/>
<path d="M217.34 77.9317C217.674 81.7477 217.858 84.6097 217.984 88.6797L211.342 88.8217C211.19 86.5957 210.784 83.9817 210.642 78.2657C213.116 78.2157 215.13 78.1357 217.34 77.9317ZM217.34 75.9317C217.1 75.9317 216.402 76.0276 214.688 76.1316C210.556 76.3616 210.028 76.0216 209.196 76.8916C208.504 77.6156 208.63 78.3116 208.688 79.7136C208.922 85.3476 209.224 87.1976 209.346 88.9656C209.38 89.4722 209.606 89.9466 209.978 90.2928C210.35 90.6388 210.838 90.8308 211.346 90.8296L218.034 90.6876C218.298 90.682 218.558 90.624 218.8 90.517C219.042 90.41 219.26 90.2562 219.442 90.0646C219.624 89.8728 219.766 89.647 219.86 89.4001C219.954 89.1531 219.998 88.8899 219.99 88.6257C219.862 84.5437 219.676 81.6257 219.34 77.7657C219.298 77.2645 219.07 76.7975 218.698 76.4577C218.328 76.1177 217.842 75.9301 217.34 75.9317Z" fill="#FFC738"/>
<path d="M211.584 102.721C213.344 102.881 215.124 102.993 218.28 103.055C218.184 107.885 217.65 112.567 217.582 113.611L210.938 113.469C211.054 109.777 211.238 106.613 211.584 102.721ZM211.584 100.721C211.082 100.719 210.598 100.905 210.228 101.243C209.858 101.581 209.628 102.045 209.584 102.545C209.232 106.483 209.046 109.727 208.93 113.407C208.922 113.671 208.966 113.934 209.06 114.181C209.154 114.429 209.296 114.655 209.478 114.846C209.66 115.038 209.88 115.192 210.12 115.299C210.362 115.405 210.624 115.463 210.888 115.469L217.574 115.611C218.082 115.612 218.572 115.419 218.944 115.072C219.316 114.724 219.54 114.248 219.574 113.741C219.644 112.657 220.174 108.125 220.276 103.095C220.282 102.832 220.234 102.571 220.14 102.326C220.044 102.082 219.9 101.858 219.718 101.669C219.536 101.479 219.318 101.327 219.078 101.222C218.838 101.117 218.578 101.06 218.316 101.055C213 100.951 212.162 100.721 211.584 100.721Z" fill="#FFC738"/>
<path d="M203.614 102.4C204.08 107.574 204.058 111.446 204.114 112.968L197.494 113.51C197.176 109.638 197.014 106.558 196.92 102.758C198.636 102.742 200.506 102.668 203.614 102.4ZM203.614 100.4C203.198 100.4 202.108 100.556 199.36 100.686C196.846 100.806 196.252 100.564 195.476 101.37C195.292 101.561 195.148 101.786 195.052 102.033C194.956 102.28 194.91 102.544 194.916 102.808C195.012 106.638 195.172 109.726 195.496 113.674C195.538 114.176 195.766 114.643 196.136 114.984C196.508 115.324 196.992 115.512 197.496 115.51L204.282 114.96C204.796 114.919 205.272 114.68 205.614 114.296C205.956 113.911 206.136 113.409 206.118 112.894C206.056 111.248 206.068 107.294 205.61 102.222C205.566 101.725 205.336 101.262 204.968 100.925C204.6 100.587 204.118 100.4 203.618 100.4H203.614Z" fill="#FFC738"/>
<path d="M183.458 102.602C185.2 102.76 187.02 102.874 190.154 102.936C190.052 107.822 189.524 112.432 189.456 113.492L182.812 113.35C182.93 109.602 183.114 106.472 183.458 102.602ZM183.458 100.602C182.956 100.6 182.473 100.786 182.102 101.124C181.732 101.462 181.502 101.926 181.458 102.426C181.106 106.396 180.922 109.56 180.804 113.288C180.795 113.552 180.84 113.815 180.934 114.062C181.028 114.309 181.17 114.535 181.352 114.727C181.535 114.919 181.753 115.073 181.995 115.18C182.237 115.286 182.497 115.344 182.762 115.35L189.448 115.492C189.956 115.493 190.446 115.3 190.818 114.952C191.19 114.605 191.414 114.129 191.448 113.622C191.522 112.516 192.048 108.088 192.152 102.976C192.158 102.713 192.11 102.451 192.014 102.207C191.92 101.962 191.776 101.738 191.594 101.549C191.412 101.359 191.194 101.208 190.952 101.102C190.712 100.997 190.452 100.941 190.19 100.936C184.884 100.834 184.034 100.602 183.458 100.602Z" fill="#FFC738"/>
<path d="M190.848 125.521C191.184 129.359 191.376 132.383 191.492 136.269L184.848 136.411C184.762 135.073 184.282 131.329 184.15 125.855C186.532 125.801 188.526 125.735 190.848 125.521ZM190.848 123.521C190.606 123.521 189.906 123.617 188.192 123.721C184.036 123.957 183.534 123.613 182.706 124.479C182.012 125.205 182.138 125.905 182.196 127.303C182.452 133.453 182.738 134.739 182.846 136.455C182.877 136.972 183.098 137.46 183.468 137.822C183.837 138.185 184.328 138.398 184.846 138.419L191.528 138.277C191.792 138.272 192.052 138.214 192.294 138.108C192.536 138.001 192.754 137.847 192.936 137.656C193.118 137.464 193.26 137.238 193.356 136.992C193.45 136.745 193.494 136.482 193.486 136.217C193.366 132.231 193.168 129.163 192.836 125.355C192.794 124.856 192.568 124.391 192.2 124.051C191.83 123.712 191.348 123.523 190.848 123.521Z" fill="#FFC738"/>
<path d="M198.822 125.201C201.854 125.459 203.806 125.539 205.518 125.559C205.422 129.433 205.252 132.533 204.942 136.309L198.322 135.769C198.42 133.977 198.32 130.785 198.822 125.201ZM198.822 123.201C198.322 123.202 197.842 123.389 197.474 123.726C197.106 124.063 196.876 124.526 196.832 125.023C196.35 130.365 196.376 134.653 196.33 135.591C196.302 136.118 196.474 136.636 196.814 137.039C197.154 137.442 197.636 137.7 198.16 137.761C198.16 137.761 204.892 138.309 204.948 138.309C205.452 138.311 205.936 138.123 206.308 137.783C206.678 137.442 206.906 136.975 206.948 136.473C207.264 132.625 207.432 129.473 207.53 125.609C207.536 125.344 207.49 125.081 207.394 124.834C207.298 124.587 207.154 124.362 206.97 124.171C206.786 123.98 206.566 123.828 206.324 123.723C206.08 123.618 205.818 123.562 205.554 123.559C201.906 123.521 199.248 123.201 198.822 123.201Z" fill="#FFC738"/>
<path d="M198.562 150.232C199.062 150.232 199.562 150.218 200.052 150.202C200.302 149.525 200.564 148.847 200.834 148.17C198.506 148.27 197.88 148.058 197.122 148.844C196.938 149.035 196.794 149.26 196.698 149.508C196.602 149.755 196.556 150.019 196.562 150.284C196.648 153.774 196.79 156.654 197.062 160.16C199 151.706 198.726 156.814 198.562 150.232Z" fill="#FFC738"/>
<path d="M185.098 150.074C187.398 150.274 189.366 150.358 191.798 150.406C191.66 156.102 191.158 159.768 191.098 160.962L184.454 160.822C184.578 156.826 184.766 153.898 185.098 150.074ZM185.098 148.074C184.596 148.072 184.112 148.259 183.742 148.597C183.371 148.935 183.141 149.401 183.098 149.9C182.762 153.754 182.574 156.688 182.446 160.758C182.438 161.022 182.482 161.286 182.576 161.533C182.67 161.779 182.812 162.005 182.994 162.197C183.176 162.389 183.394 162.543 183.635 162.65C183.877 162.757 184.138 162.815 184.402 162.82L191.092 162.962C191.606 162.963 192.1 162.766 192.472 162.411C192.846 162.057 193.066 161.573 193.092 161.06C193.17 159.66 193.656 156.1 193.792 150.46C193.798 150.197 193.752 149.935 193.658 149.689C193.562 149.444 193.42 149.219 193.238 149.029C193.056 148.839 192.838 148.686 192.596 148.58C192.356 148.475 192.096 148.417 191.832 148.412C186.52 148.302 185.694 148.074 185.098 148.074Z" fill="#FFC738"/>
<path d="M192.424 174.142C192.754 177.942 192.944 180.968 193.068 184.89L186.424 185.03C186.29 182.988 185.838 179.952 185.724 174.476C188.072 174.428 190.086 174.356 192.424 174.142ZM192.424 172.142C192.182 172.142 191.482 172.238 189.766 172.342C185.616 172.576 185.112 172.234 184.282 173.098C183.586 173.822 183.714 174.536 183.77 175.918C183.99 181.346 184.338 183.796 184.422 185.08C184.453 185.596 184.675 186.082 185.045 186.444C185.414 186.806 185.905 187.018 186.422 187.038L193.104 186.898C193.368 186.892 193.628 186.834 193.87 186.728C194.112 186.62 194.33 186.468 194.512 186.276C194.694 186.084 194.836 185.858 194.93 185.61C195.024 185.364 195.068 185.1 195.06 184.836C194.938 180.898 194.746 177.822 194.41 173.976C194.368 173.478 194.142 173.012 193.774 172.674C193.406 172.334 192.924 172.144 192.424 172.142Z" fill="#FFC738"/>
<path d="M200.262 202.552C199.494 201.154 198.82 199.704 198.242 198.216C198.168 198.438 198.132 198.672 198.138 198.904C198.188 200.862 198.254 202.634 198.35 204.408L200.35 204.396C200.32 203.788 200.29 203.174 200.262 202.552Z" fill="#FFC738"/>
<path d="M210.49 130.328C211.09 129.528 211.714 128.749 212.36 127.99C212.33 127.292 212.306 126.542 212.286 125.734C213.096 125.72 213.82 125.7 214.486 125.678C215.21 124.946 215.962 124.244 216.74 123.57C212.14 123.85 211.692 123.468 210.846 124.352C210.142 125.082 210.2 125.486 210.49 130.328Z" fill="#FFC738"/>
<path d="M186.216 204.788C186.324 202.818 186.468 200.918 186.662 198.698C188.924 198.898 191.032 198.984 193.36 199.03C193.322 200.934 193.214 202.83 193.094 204.498C193.76 204.478 194.432 204.464 195.106 204.452C195.22 202.852 195.32 200.994 195.36 199.07C195.366 198.806 195.318 198.546 195.224 198.3C195.128 198.056 194.984 197.832 194.802 197.644C194.62 197.454 194.404 197.302 194.162 197.196C193.922 197.092 193.662 197.034 193.4 197.03C188.082 196.926 187.26 196.698 186.662 196.698C186.161 196.696 185.677 196.882 185.306 197.22C184.936 197.558 184.706 198.022 184.662 198.522C184.462 200.83 184.312 202.818 184.198 204.922C184.858 204.878 185.53 204.83 186.216 204.788Z" fill="#FFC738"/>
<path fill-rule="evenodd" clip-rule="evenodd" d="M357.034 103.659C359.538 101.573 361.682 99.0878 363.376 96.3032C365.152 92.9432 365.938 89.1484 365.644 85.3592C364.732 68.7372 357.362 54.1912 340.784 52.6852C333.278 52.0032 329.208 55.4572 327.154 60.8252C323.264 70.9932 327.118 88.8252 328.114 97.7492C329.176 107.277 315.806 109.879 320.446 124.335C322.18 129.735 325.992 134.647 327.418 139.935C328.318 143.275 323.618 147.911 323.262 151.917C322.352 161.953 330.97 169.214 339.506 174.474C339.748 174.624 340.038 174.672 340.314 174.608C340.592 174.542 340.83 174.372 340.98 174.13C341.132 173.89 341.18 173.598 341.114 173.322C341.05 173.046 340.88 172.806 340.638 172.656C333.004 167.856 324.838 161.073 325.638 152.133C326.004 148.107 330.952 144.007 329.658 139.323C328.188 133.995 324.338 129.071 322.544 123.639C318.098 110.179 331.32 108.239 330.168 97.5152C329.368 90.1272 326.438 76.4792 327.95 66.4512C329.006 59.4392 332.322 54.3112 340.55 55.1052C355.882 56.5812 362.498 70.0452 363.502 85.4772C364.416 99.5392 352.66 101.767 355.198 104.677C356.614 106.297 361.774 105.851 363.398 106.287C372.562 108.743 376.398 115.329 375.852 124.149C375.202 134.461 370.954 137.763 368.826 141.605C368.366 142.315 368.09 143.129 368.026 143.973C368.532 152.261 376.648 156.145 373.508 164.573C372.394 167.158 370.65 169.424 368.434 171.16C366.218 172.896 363.6 174.046 360.824 174.51C360.69 174.54 360.562 174.596 360.45 174.676C360.336 174.754 360.24 174.856 360.166 174.972C360.092 175.088 360.042 175.218 360.018 175.354C359.996 175.49 359.998 175.63 360.028 175.764C360.06 175.898 360.116 176.026 360.196 176.138C360.274 176.252 360.376 176.348 360.492 176.422C360.608 176.496 360.738 176.546 360.874 176.57C361.01 176.592 361.15 176.59 361.284 176.56C364.384 176 367.292 174.67 369.742 172.688C372.19 170.708 374.102 168.142 375.296 165.227C378.684 155.827 370.208 151.399 369.714 143.865C369.898 143.031 370.27 142.25 370.802 141.581C372.752 138.457 376.9 134.521 377.578 124.259C378.204 114.817 374.086 107.325 363.876 104.509C362.844 104.227 358.376 104.155 357.034 103.659Z" fill="#FFC738"/>
<path fill-rule="evenodd" clip-rule="evenodd" d="M347.18 217.22C346.076 183.438 344.036 121.076 343.924 115.384C343.916 115.105 343.796 114.842 343.592 114.651C343.39 114.461 343.118 114.359 342.84 114.368C342.562 114.377 342.298 114.496 342.108 114.699C341.916 114.903 341.816 115.173 341.824 115.452C342.312 126.526 344.01 184.634 345.024 217.232C346.786 217.216 346.818 217.212 347.18 217.22Z" fill="#FFC738"/>
<path fill-rule="evenodd" clip-rule="evenodd" d="M271.496 72.8137C272.2 72.7607 272.908 72.7441 273.614 72.7637C273.566 72.1743 273.54 71.5577 273.538 70.9137C273.496 55.5137 279.158 41.3857 294.402 38.4857C296.878 37.8615 299.494 38.0957 301.82 39.1497C311.954 44.3797 307.992 69.1937 307.576 79.7797C307.23 88.5637 315.684 90.3797 317.256 98.2897C318.842 106.272 312.456 113.742 310.902 121.41C309.914 126.282 315.12 129.738 315.772 133.81C317.196 142.71 309.372 150.294 302.196 155.678C302.084 155.762 301.988 155.867 301.916 155.988C301.844 156.109 301.798 156.242 301.776 156.382C301.756 156.521 301.764 156.662 301.798 156.799C301.832 156.935 301.894 157.063 301.978 157.176C302.062 157.288 302.168 157.383 302.288 157.455C302.41 157.527 302.542 157.575 302.682 157.595C302.82 157.615 302.962 157.608 303.098 157.573C303.236 157.539 303.364 157.478 303.476 157.394C311.596 151.364 319.726 143.38 318.138 133.434C317.508 129.484 312.512 125.284 313.184 121.87C314.724 114.056 321.198 106.748 319.354 97.8697C317.672 89.7697 309.318 87.5297 309.648 79.8697C310.036 70.9097 312.672 52.8357 308.152 43.0417C305.752 37.8237 301.44 34.7137 293.952 36.0957C277.612 39.1137 271.19 54.1577 271.402 70.9357C271.41 71.5817 271.442 72.1997 271.496 72.8137Z" fill="#FFC738"/>
<path fill-rule="evenodd" clip-rule="evenodd" d="M296.27 135.037L297.552 171.972C298.296 172.046 299.046 172.05 299.792 171.988L298.392 134.057C297.744 134.498 297.026 134.829 296.27 135.037Z" fill="#FFC738"/>
<path fill-rule="evenodd" clip-rule="evenodd" d="M298.084 186.83L298.358 194.388C299.166 195.494 299.902 196.652 300.558 197.856C300.804 197.478 300.748 197.73 300.692 196.204C300.256 195.422 300.01 194.548 299.978 193.652C299.944 192.758 300.124 191.868 300.502 191.056L300.348 186.898C299.592 186.92 298.836 186.898 298.084 186.83Z" fill="#FFC738"/>
<path fill-rule="evenodd" clip-rule="evenodd" d="M70.1702 107.303C69.4554 107.207 68.7474 107.066 68.0502 106.881L67.5542 121.615C68.2342 121.047 68.9882 120.447 69.7822 119.853L70.1702 107.303Z" fill="#FFC738"/>
<path fill-rule="evenodd" clip-rule="evenodd" d="M90.5059 112.583C90.8639 111.677 91.1959 110.763 91.4879 109.837C90.7435 109.788 90.0061 109.662 89.2881 109.459C88.9201 110.569 88.4999 111.659 88.0479 112.743C88.9159 112.655 89.7159 112.615 90.5059 112.583Z" fill="#FFC738"/>
<path fill-rule="evenodd" clip-rule="evenodd" d="M42.4001 131.522C41.8461 140.736 33.3741 145.434 36.6881 156.398C37.6731 159.622 39.4729 162.537 41.9139 164.863C44.3547 167.188 47.3541 168.844 50.6221 169.672C50.6873 169.69 50.7545 169.702 50.8221 169.706C50.1401 168.6 49.0661 168.238 48.4701 166.706C46.1155 165.733 44.0037 164.254 42.2839 162.374C40.5641 160.494 39.2785 158.259 38.5181 155.828C35.3781 145.786 43.5741 140.852 44.0921 131.612C44.2261 129.228 39.6221 122.958 38.9421 120.982C34.2561 107.398 34.8881 91.6857 48.9561 87.3437C50.6301 86.8277 55.7561 87.3797 57.1741 85.5037C59.3561 82.6117 47.9521 79.3037 48.9281 63.1037C49.9101 46.7957 55.8121 29.2017 72.0601 27.4857C78.6701 26.7877 82.0601 30.5836 83.6601 36.3736C86.9081 48.1536 83.1421 67.5957 82.1981 77.4737C81.8793 80.8315 82.6635 84.2017 84.4321 87.0737C85.5761 87.5493 86.6913 88.0907 87.7721 88.6957C85.6781 85.3937 83.8181 82.1797 84.2681 77.6737C85.2681 67.6097 89.0221 47.8196 85.8081 35.7896C83.9361 28.7756 79.8081 24.2317 71.8081 25.0377C54.2801 26.8077 47.7021 45.3216 46.8081 62.9837C46.5027 67.216 47.2067 71.4605 48.8621 75.3677C50.5601 78.7543 52.7883 81.8481 55.4621 84.5317C54.4441 85.1677 49.4101 85.2677 48.4281 85.5777C33.3321 90.3377 32.2581 106.902 37.3421 121.534C37.9281 123.308 42.4881 129.94 42.4001 131.522Z" fill="#FFC738"/>
<path d="M240.31 252.064C234.244 232.396 214.656 226.108 199.558 229.412C177.688 234.194 166.758 260.976 174.256 280.646C180.48 284.952 184.87 289.404 186.976 296.56C202.704 306.69 227.358 300.186 237.452 282.244C239.934 277.664 241.466 272.63 241.956 267.444C242.448 262.258 241.888 257.028 240.31 252.064ZM232.02 279.01C228.26 284.756 222.716 289.11 216.242 291.4C209.77 293.692 202.722 293.796 196.184 291.696C186.972 289.016 180.878 282.18 179.424 271.346C177.214 254.916 186.962 240.858 201.384 237.52C215.702 234.202 230.032 239.408 234.738 253.832C236.068 257.986 236.512 262.372 236.044 266.708C235.576 271.044 234.206 275.234 232.02 279.01Z" fill="#191919"/>
<path d="M350.42 229.336L350.434 229.27C336.998 225.494 323.824 227.828 314.176 238.214C307.58 245.804 303.824 255.446 303.55 265.496C307.15 268.86 308.682 273.096 304.75 276.066C306.036 281.234 308.574 286.006 312.14 289.96C315.706 293.916 320.192 296.93 325.2 298.74C333.426 301.096 342.2 300.65 350.146 297.472C358.09 294.296 364.754 288.568 369.088 281.19C379.044 264.158 373.156 235.69 350.42 229.336ZM363.658 277.956C359.898 283.704 354.354 288.058 347.88 290.35C341.406 292.642 334.358 292.746 327.82 290.644C318.524 287.936 312.5 281.034 311.06 270.294C308.176 248.82 325.562 231.236 348.622 236.436L348.638 236.37C367.274 240.598 372.648 263.148 363.658 277.956Z" fill="#191919"/>
<path d="M203.524 207.62C194.258 207.204 185.014 207.104 177.348 208.942C176.399 209.122 175.557 209.664 175.003 210.456C174.449 211.246 174.227 212.224 174.384 213.176C174.54 214.13 175.064 214.984 175.842 215.556C176.621 216.128 177.592 216.372 178.548 216.238C187.84 215.576 198.842 214.93 209.576 214.748C207.318 212.588 205.29 210.198 203.524 207.62Z" fill="#191919"/>
<path fill-rule="evenodd" clip-rule="evenodd" d="M267.13 251.51L266.33 252.182C265.854 250.95 264.988 247.508 264.55 246.262C267.75 243.504 270.81 240.586 273.718 237.518C274.752 233.544 275.462 229.494 275.84 225.404C272.342 229.004 268.04 233.664 262.48 239.942C260.88 234.142 258.852 227.064 256.74 220.018C254.01 220.702 251.374 221.218 248.852 221.582C255.252 240.006 258.326 245.278 260.314 255.94C256.81 256.414 253.274 256.592 249.742 256.472C249.22 250.986 247.626 245.654 245.052 240.778C241.868 235.246 237.546 230.452 232.37 226.716C227.194 222.978 221.284 220.384 215.03 219.102C188.164 214.242 155.688 237.654 163.03 263.734C163.296 264.686 163.922 265.496 164.775 265.992C165.628 266.49 166.642 266.636 167.6 266.398C168.553 266.162 169.374 265.556 169.881 264.716C170.388 263.874 170.541 262.866 170.306 261.912C168.812 255.668 171.258 247.644 175.094 242.074C183.728 229.538 196.33 224.074 213.392 227.474C224.104 229.612 233.44 234.216 239.528 243.94C241.754 247.724 243.146 251.938 243.612 256.302C230.724 256.252 217.85 257.156 205.096 259.008C204.616 259.098 204.16 259.282 203.752 259.548C203.344 259.814 202.994 260.16 202.72 260.562C202.446 260.966 202.254 261.42 202.158 261.898C202.06 262.374 202.058 262.866 202.152 263.344C202.358 264.312 202.936 265.158 203.764 265.702C204.59 266.244 205.596 266.44 206.566 266.244C206.766 266.226 236.396 264.386 244.052 263.202C244.124 270.618 242.652 273.87 240.012 280.802C239.85 281.254 239.782 281.732 239.808 282.21C239.834 282.688 239.956 283.156 240.166 283.586C240.378 284.016 240.672 284.4 241.032 284.716C241.392 285.03 241.814 285.27 242.268 285.418C243.182 285.75 244.192 285.702 245.072 285.29C245.952 284.878 246.634 284.132 246.966 283.218C249.412 276.622 250.5 269.598 250.166 262.568C254.784 262.066 259.444 262.116 264.05 262.716C264.216 262.714 264.382 262.7 264.548 262.674C264.154 259.936 265.944 254.288 267.13 251.51Z" fill="#FFC738"/>
<path fill-rule="evenodd" clip-rule="evenodd" d="M358.692 222.214C347.848 217.91 335.834 217.564 324.76 221.238C316.578 207.474 317.314 206.192 313.97 199.682C312.718 197.248 311.17 194.988 309.856 192.59C309.39 191.718 308.604 191.06 307.664 190.754C306.724 190.45 305.702 190.52 304.814 190.954C304.376 191.166 303.986 191.464 303.664 191.828C303.344 192.194 303.1 192.62 302.944 193.08C302.79 193.542 302.73 194.03 302.766 194.514C302.802 195 302.934 195.472 303.156 195.906C303.384 196.454 303.604 197.002 303.824 197.55C303.044 198.472 302.304 199.332 301.602 200.14C302.492 202.536 302.976 205.064 303.03 207.622C304.478 206.266 305.79 205.092 306.926 204.156C308.974 207.802 310.526 209.97 312.8 214.252C308.996 218.282 304.772 221.896 300.2 225.028C298.978 229.052 297.554 233.014 295.932 236.898C303.798 230.022 311.594 223.428 315.886 220.408C316.604 221.948 317.054 222.944 317.556 224.292C306.21 230.292 295.314 248.17 294.308 259.054C296.184 260.414 299.256 262.054 301.922 264.116C302.144 261.802 302.526 259.506 303.068 257.246C305.502 245.446 308.332 240.66 320.868 231.97C327.562 244.326 329.812 244.654 337.534 265.606C337.938 266.49 338.672 267.182 339.58 267.53C340.486 267.88 341.494 267.86 342.388 267.476C342.828 267.29 343.226 267.018 343.56 266.678C343.894 266.336 344.158 265.932 344.334 265.488C344.51 265.046 344.596 264.572 344.588 264.094C344.58 263.616 344.476 263.146 344.284 262.71C331.038 237.544 333.33 238.136 328.272 227.578C332.49 225.394 337.202 224.346 341.948 224.534C346.694 224.722 351.308 226.142 355.34 228.654C356.206 229.094 357.212 229.176 358.138 228.884C359.066 228.592 359.84 227.948 360.298 227.09C360.516 226.664 360.648 226.2 360.686 225.724C360.724 225.248 360.666 224.768 360.516 224.314C360.368 223.86 360.128 223.442 359.816 223.08C359.502 222.72 359.12 222.424 358.692 222.214Z" fill="#FFC738"/>
<path fill-rule="evenodd" clip-rule="evenodd" d="M270.02 93.6256C270.888 94.6896 272.02 97.4536 275.074 98.4696C276.158 98.7492 277.302 98.6914 278.352 98.3036C278.454 98.3036 278.486 98.4216 278.606 98.5456C278.708 98.6392 278.826 98.712 278.956 98.7596C279.084 98.8074 279.222 98.8292 279.36 98.8238C279.498 98.8184 279.634 98.786 279.758 98.7282C279.884 98.6706 279.996 98.5888 280.09 98.4876C280.184 98.3862 280.256 98.2676 280.304 98.1382C280.352 98.0088 280.374 97.8714 280.368 97.7336C280.362 97.5958 280.33 97.4604 280.272 97.335C280.214 97.2098 280.134 97.0972 280.032 97.0036C278.472 95.6376 277.418 96.7316 276.384 96.9176C275.606 96.9336 274.852 96.6466 274.282 96.1176C272.082 94.4476 272.1 91.1976 270.168 91.2656C268.412 91.3276 266.768 92.8136 263.914 92.7736C262.866 92.7778 261.826 92.6026 260.838 92.2556C259.638 91.8076 259.424 89.7056 260.49 89.1916C260.74 89.0762 260.934 88.8696 261.036 88.6142C261.136 88.359 261.136 88.0746 261.032 87.8198C260.93 87.5652 260.734 87.3598 260.484 87.2462C260.234 87.1326 259.95 87.1196 259.69 87.2096C256.254 88.3636 256.97 93.2096 260.142 94.2516C261.112 94.576 262.12 94.7776 263.142 94.8516C264.658 94.9042 266.174 94.8104 267.672 94.5716L270.02 93.6256Z" fill="#FFC738"/>
<path fill-rule="evenodd" clip-rule="evenodd" d="M253.184 97.4844C251.688 99.3224 249.898 101.422 250.502 103.916C250.902 105.532 252.38 107.332 256.302 108.822C256.568 108.924 256.862 108.917 257.122 108.801C257.382 108.686 257.584 108.472 257.686 108.206C257.788 107.941 257.78 107.646 257.664 107.387C257.55 107.127 257.336 106.924 257.07 106.822C254.222 105.71 252.982 104.584 252.72 103.4C252.258 101.318 254.906 99.5784 255.486 98.3684C255.616 97.9424 255.638 97.4912 255.554 97.0542C255.47 96.617 255.28 96.2072 255 95.8604C253.978 94.3084 252.226 93.2924 251.58 90.7684C251.3 89.8446 251.338 88.8528 251.692 87.9542C252.046 87.0556 252.692 86.303 253.528 85.8184C256.548 84.1404 260.728 84.6684 263.328 82.1704C265.478 80.1044 265.4 77.3704 270.034 76.5704C274.168 76.1388 278.346 76.5574 282.312 77.8004C287.316 79.444 291.686 82.6006 294.82 86.8344C299.788 93.6824 295.864 97.1104 295.712 102.346C295.624 103.567 295.856 104.789 296.382 105.894C296.908 106.999 297.71 107.948 298.712 108.65C301.362 110.536 304.538 110.772 306.742 113.326C307.772 114.484 308.32 115.993 308.268 117.542C308.246 118.095 308.078 118.632 307.786 119.101C307.492 119.57 307.082 119.954 306.594 120.216C302.994 122.522 299.306 120.902 298.918 123.88C298.734 125.296 299.57 126.398 298.984 128.514C298.492 129.853 297.564 130.988 296.352 131.738C295.138 132.488 293.71 132.81 292.292 132.652C289.898 132.63 287.594 131.745 285.8 130.161C284.004 128.576 282.842 126.399 282.522 124.026C282.502 123.786 282.392 123.563 282.214 123.401C282.036 123.239 281.802 123.151 281.562 123.154C278.124 123.188 277.076 120.098 276.69 116.666C276.648 116.398 276.504 116.156 276.286 115.991C276.07 115.827 275.798 115.753 275.528 115.785C275.258 115.817 275.01 115.952 274.838 116.162C274.666 116.372 274.58 116.641 274.602 116.912C275.096 120.958 276.69 124.674 280.75 125.026C281.332 127.816 282.93 130.289 285.232 131.968C291.872 136.81 301.662 133.948 300.894 126.07C300.836 125.47 300.47 124.122 300.782 123.856C301.408 123.316 311.22 123.47 310.09 116.002C309.816 114.569 309.204 113.223 308.302 112.074C307.402 110.926 306.24 110.01 304.914 109.402C302.6 108.202 299.786 107.43 298.664 105.442C296.744 102.042 299.58 97.7224 299.764 93.8844C300.046 87.9964 295.296 82.8504 290.438 79.4844C285.81 76.3342 280.394 74.5452 274.8 74.3204C263.152 73.6224 264.588 79.5584 260.82 81.3544C257.052 83.1504 251.296 82.1744 249.508 87.1884C247.566 92.6464 252.752 96.3624 253.184 97.4844Z" fill="#FFC738"/>
<path fill-rule="evenodd" clip-rule="evenodd" d="M259.2 93.5424C258.44 95.6478 257.838 97.8072 257.4 100.002C256.726 103.228 256.102 107.602 257.576 110.402C260.32 115.602 268.648 117.352 274.51 113.76C274.744 113.61 274.91 113.373 274.97 113.101C275.03 112.829 274.978 112.544 274.828 112.309C274.678 112.075 274.442 111.909 274.17 111.849C273.898 111.79 273.612 111.84 273.378 111.99C267.638 115.83 262.128 113.554 259.76 109.23C259.298 108.479 258.978 107.649 258.814 106.782C258.328 103.314 259.88 99.6704 260.658 96.8504C260.924 95.8904 261.086 94.9444 261.284 94.0624C261.318 93.9262 261.324 93.7844 261.304 93.6454C261.284 93.5064 261.236 93.3728 261.164 93.2524C261.092 93.1318 260.996 93.0268 260.884 92.943C260.77 92.8592 260.642 92.7986 260.506 92.7644C260.37 92.7304 260.228 92.7234 260.088 92.744C259.95 92.7646 259.816 92.8124 259.696 92.8846C259.576 92.957 259.47 93.0522 259.386 93.165C259.302 93.278 259.242 93.4062 259.208 93.5424H259.2Z" fill="#191919"/>
<path fill-rule="evenodd" clip-rule="evenodd" d="M274.334 246.876C278.848 239.43 282.522 217.244 275.088 212.476C274.264 211.976 273.336 211.672 272.376 211.588C271.414 211.502 270.448 211.638 269.548 211.984C245.778 219.46 229.948 219.7 219.43 215.952C197.244 208.046 199.23 182.704 199.414 173.854C199.814 154.522 209.77 133.728 225.738 122.376C229.95 119.025 234.82 116.596 240.032 115.246C255.978 112.246 274.048 120.262 277.242 136.626C279.828 149.872 276.426 166.77 292.042 173.802C294.072 174.766 296.284 175.284 298.532 175.318C298.802 175.306 299.058 175.19 299.246 174.994C299.434 174.8 299.538 174.538 299.538 174.268C299.538 173.996 299.434 173.736 299.246 173.54C299.058 173.344 298.802 173.228 298.532 173.216C296.578 173.188 294.65 172.75 292.876 171.93C278.376 165.592 281.524 149.53 278.912 136.298C275.512 119.038 256.776 110.328 239.694 113.398C234.19 114.736 229.034 117.227 224.564 120.706C208.884 131.626 197.278 152.506 197.044 173.816C196.96 181.664 195.8 201.702 209.404 212.75C224.778 225.236 251.404 220.046 270.25 214.23C280.158 211.17 277.508 237.43 272.502 245.776C272.43 245.896 272.382 246.03 272.36 246.17C272.34 246.308 272.346 246.45 272.38 246.586C272.414 246.722 272.474 246.852 272.558 246.964C272.642 247.078 272.746 247.172 272.866 247.246C272.988 247.318 273.12 247.366 273.26 247.386C273.398 247.408 273.54 247.402 273.678 247.368C273.814 247.334 273.942 247.272 274.054 247.19C274.168 247.106 274.264 247 274.336 246.88L274.334 246.876Z" fill="#191919"/>
<path fill-rule="evenodd" clip-rule="evenodd" d="M239.38 196.28C251.564 191.774 255.14 190.196 260.634 188.654C265.368 187.18 270.306 186.474 275.262 186.564C281.186 186.48 286.952 188.468 291.566 192.184C299.45 198.158 300.738 206.232 299.354 215.984C297.6 228.346 292.468 238.092 285.828 248.716C285.75 248.832 285.696 248.964 285.67 249.104C285.644 249.242 285.644 249.384 285.674 249.522C285.706 249.66 285.762 249.79 285.844 249.906C285.926 250.02 286.03 250.118 286.15 250.192C286.27 250.266 286.404 250.316 286.542 250.336C286.682 250.358 286.824 250.35 286.962 250.316C287.098 250.28 287.226 250.218 287.338 250.134C287.45 250.048 287.544 249.94 287.614 249.818C291.404 243.61 294.662 237.092 297.352 230.334C300.48 222.202 303.234 210.534 301.088 202.09C298.586 192.24 289.532 186.522 280.688 184.958C265.382 182.252 247.548 190.824 238.622 194.274C238.366 194.38 238.162 194.582 238.052 194.838C237.942 195.092 237.936 195.38 238.034 195.64C238.132 195.9 238.328 196.11 238.578 196.228C238.83 196.348 239.118 196.364 239.38 196.274V196.28Z" fill="#191919"/>
<path fill-rule="evenodd" clip-rule="evenodd" d="M256.772 174.2C253.952 177.858 253.51 184.636 253.032 189.232C253.042 189.504 253.154 189.76 253.35 189.95C253.544 190.138 253.804 190.246 254.074 190.248C254.346 190.25 254.608 190.148 254.804 189.962C255.002 189.776 255.12 189.522 255.134 189.25C255.666 184.492 256.82 179.824 258.568 175.366C258.644 175.248 258.698 175.116 258.722 174.978C258.748 174.838 258.746 174.696 258.716 174.56C258.688 174.422 258.63 174.29 258.55 174.174C258.472 174.058 258.37 173.96 258.25 173.884C258.132 173.806 258 173.754 257.862 173.728C257.724 173.704 257.582 173.706 257.444 173.734C257.306 173.764 257.176 173.82 257.06 173.9C256.944 173.98 256.844 174.082 256.768 174.2H256.772Z" fill="#191919"/>
<path fill-rule="evenodd" clip-rule="evenodd" d="M241.064 155.054C242.41 158.104 244.052 161.014 245.968 163.742C255.698 177.714 267.568 182.39 284.476 184.374C287.572 184.848 290.722 184.848 293.818 184.374C294.09 184.318 294.33 184.156 294.484 183.922C294.636 183.69 294.69 183.406 294.634 183.132C294.578 182.86 294.414 182.62 294.182 182.468C293.948 182.314 293.664 182.26 293.392 182.316C288.84 183.14 284.164 183.008 279.666 181.928C273.512 180.766 267.588 178.62 262.118 175.57C259.096 174.144 256.332 172.226 253.938 169.892C252.04 168.162 250.368 166.202 248.956 164.056C247.012 161.3 243.63 155.352 242.974 154.094C242.838 153.855 242.616 153.676 242.354 153.595C242.09 153.515 241.806 153.539 241.56 153.663C241.314 153.786 241.126 154 241.034 154.259C240.94 154.518 240.952 154.803 241.064 155.054Z" fill="#191919"/>
<path fill-rule="evenodd" clip-rule="evenodd" d="M261.254 116.06C259.14 115.985 257.026 116.242 254.99 116.822C246.628 119.322 236.554 129.682 234.438 143.348C233.17 151.548 235.47 160.066 243.006 163.128C243.264 163.221 243.548 163.21 243.798 163.097C244.048 162.984 244.242 162.778 244.342 162.522C244.444 162.267 244.44 161.983 244.334 161.73C244.228 161.478 244.026 161.277 243.774 161.17C236.6 158.464 234.992 151.224 236.448 143.696C238.482 133.164 245.474 121.564 256.768 118.826C258.226 118.442 259.724 118.232 261.23 118.2C261.37 118.201 261.51 118.175 261.64 118.123C261.77 118.07 261.89 117.993 261.99 117.895C262.09 117.796 262.17 117.679 262.226 117.55C262.282 117.421 262.31 117.282 262.312 117.142C262.314 117.001 262.288 116.862 262.236 116.731C262.182 116.601 262.106 116.482 262.008 116.381C261.908 116.281 261.792 116.201 261.662 116.146C261.534 116.09 261.394 116.061 261.254 116.06Z" fill="#191919"/>
<path fill-rule="evenodd" clip-rule="evenodd" d="M219.33 126.656C223.422 131.41 232.798 134.6 238.13 134.202C238.406 134.163 238.656 134.016 238.822 133.793C238.99 133.57 239.062 133.29 239.024 133.014C238.942 132.442 239.126 131.862 238.552 131.944C233 133.094 225.142 128.878 220.856 125.166C220.758 125.064 220.642 124.982 220.512 124.926C220.384 124.869 220.244 124.839 220.102 124.836C219.962 124.834 219.822 124.859 219.69 124.911C219.558 124.962 219.44 125.04 219.338 125.138C219.236 125.236 219.156 125.353 219.1 125.483C219.044 125.613 219.014 125.752 219.014 125.893C219.012 126.034 219.038 126.174 219.09 126.305C219.142 126.436 219.22 126.555 219.32 126.656H219.33Z" fill="#191919"/>
<path fill-rule="evenodd" clip-rule="evenodd" d="M281.786 108.001C283.92 109.835 288.818 107.291 288.284 101.119C288.066 98.5928 286.994 96.1188 284.46 96.1388C283.48 96.2236 282.544 96.5828 281.76 97.1748C280.974 97.767 280.372 98.5682 280.022 99.4868C279.804 100.028 279.622 100.582 279.478 101.147C279.444 101.281 279.438 101.42 279.46 101.556C279.48 101.693 279.528 101.824 279.598 101.942C279.67 102.06 279.764 102.163 279.874 102.245C279.986 102.327 280.112 102.386 280.246 102.419C280.38 102.452 280.518 102.458 280.656 102.438C280.792 102.417 280.922 102.37 281.04 102.298C281.158 102.227 281.262 102.133 281.344 102.022C281.426 101.911 281.484 101.785 281.518 101.651C281.624 101.177 281.718 100.651 281.87 100.169C282.756 97.4388 286.27 96.3868 286.408 101.225C286.48 102.029 286.37 102.839 286.084 103.594C285.798 104.349 285.344 105.029 284.756 105.583C284.566 105.767 284.338 105.908 284.086 105.996C283.836 106.083 283.57 106.115 283.306 106.089C283.2 106.089 283.146 105.989 283.072 105.929C282.312 105.305 281.354 104.883 280.702 105.619C280.446 105.909 277.932 110.219 277.124 111.475C275.952 113.301 274.646 115.037 273.508 116.889C272.808 118.027 272.206 119.219 271.552 120.385C271.41 120.63 271.37 120.922 271.442 121.196C271.514 121.471 271.694 121.705 271.938 121.848C272.184 121.99 272.476 122.03 272.75 121.957C273.024 121.885 273.26 121.706 273.402 121.461C274.082 120.333 274.848 119.261 275.54 118.143C278.116 113.979 275.372 118.011 281.786 108.001Z" fill="#191919"/>
<path fill-rule="evenodd" clip-rule="evenodd" d="M198.814 177.45C214.954 174.32 233.652 173.336 249.414 178.544C249.676 178.616 249.954 178.582 250.192 178.452C250.43 178.324 250.608 178.106 250.69 177.848C250.772 177.59 250.75 177.31 250.63 177.068C250.512 176.824 250.302 176.638 250.048 176.544C233.816 171.656 218.338 170.944 198.378 175.36C198.118 175.434 197.894 175.604 197.752 175.836C197.612 176.068 197.564 176.344 197.62 176.61C197.676 176.874 197.83 177.11 198.052 177.266C198.272 177.422 198.546 177.488 198.814 177.45Z" fill="#191919"/>
<path fill-rule="evenodd" clip-rule="evenodd" d="M202.358 198.272C213.746 189.91 231.316 184.152 249.098 184.688C249.236 184.69 249.372 184.664 249.5 184.614C249.63 184.564 249.746 184.488 249.846 184.392C249.944 184.296 250.024 184.182 250.078 184.054C250.132 183.928 250.162 183.792 250.164 183.654C250.166 183.516 250.14 183.38 250.09 183.25C250.04 183.122 249.964 183.006 249.868 182.906C249.772 182.808 249.658 182.728 249.53 182.674C249.404 182.62 249.268 182.59 249.13 182.588C232.496 182.598 214.03 186.476 201.06 196.57C200.834 196.742 200.686 196.996 200.648 197.278C200.61 197.56 200.686 197.844 200.858 198.07C201.03 198.296 201.284 198.444 201.566 198.482C201.848 198.52 202.132 198.444 202.358 198.272Z" fill="#191919"/>
<path fill-rule="evenodd" clip-rule="evenodd" d="M279.36 226.036C284.666 224.192 292.892 222.162 297.492 224.276C297.618 224.332 297.754 224.362 297.892 224.364C298.03 224.368 298.168 224.344 298.296 224.292C298.426 224.242 298.542 224.166 298.642 224.07C298.74 223.974 298.82 223.858 298.874 223.732C298.984 223.476 298.988 223.188 298.886 222.928C298.784 222.668 298.584 222.46 298.33 222.348C291.712 220.592 284.69 221.206 278.478 224.084C278.232 224.208 278.042 224.424 277.95 224.684C277.858 224.944 277.87 225.23 277.984 225.482C278.098 225.734 278.304 225.932 278.56 226.036C278.818 226.138 279.104 226.138 279.36 226.036Z" fill="#191919"/>
<path fill-rule="evenodd" clip-rule="evenodd" d="M303.538 175.284C303.994 174.952 304.506 174.646 305.004 174.284C307.522 172.408 312.434 168.484 316.74 170.298C317.712 170.678 318.568 171.306 319.22 172.12C319.872 172.934 320.3 173.906 320.46 174.938C320.506 175.212 320.662 175.456 320.888 175.618C321.116 175.778 321.398 175.842 321.672 175.796C321.946 175.748 322.192 175.594 322.352 175.368C322.512 175.14 322.576 174.858 322.53 174.584C322.194 173.314 321.606 172.124 320.802 171.084C320 170.046 318.998 169.176 317.854 168.53C312.442 165.708 304.654 171.212 302.158 173.658C302.05 173.748 301.962 173.86 301.898 173.984C301.832 174.108 301.794 174.246 301.782 174.386C301.77 174.526 301.786 174.666 301.828 174.8C301.87 174.934 301.94 175.058 302.03 175.166C302.12 175.274 302.232 175.362 302.356 175.426C302.482 175.49 302.618 175.53 302.758 175.542C302.898 175.554 303.038 175.538 303.172 175.496C303.306 175.452 303.43 175.384 303.538 175.294V175.284Z" fill="#191919"/>
<path fill-rule="evenodd" clip-rule="evenodd" d="M315.262 175.768C316.02 176.516 316.594 177.432 316.938 178.44C317.282 179.448 317.388 180.522 317.246 181.578C317.252 181.716 317.286 181.852 317.344 181.978C317.404 182.104 317.486 182.216 317.59 182.308C317.692 182.402 317.812 182.474 317.942 182.52C318.074 182.566 318.212 182.586 318.35 182.578C318.628 182.562 318.89 182.438 319.078 182.23C319.264 182.024 319.362 181.752 319.35 181.472C319.298 179.964 319.136 175.072 316.486 174.016C316.252 173.854 315.964 173.792 315.686 173.844C315.406 173.894 315.158 174.054 314.996 174.288C314.836 174.52 314.774 174.808 314.824 175.088C314.874 175.368 315.034 175.614 315.268 175.776L315.262 175.768Z" fill="#191919"/>
<path fill-rule="evenodd" clip-rule="evenodd" d="M312.714 184.748C312.666 184.878 312.646 185.016 312.652 185.154C312.658 185.292 312.692 185.426 312.75 185.552C312.81 185.676 312.892 185.788 312.994 185.882C313.096 185.974 313.216 186.046 313.344 186.094C313.474 186.14 313.612 186.16 313.75 186.154C313.888 186.148 314.024 186.114 314.148 186.056C314.272 185.998 314.386 185.914 314.478 185.812C314.57 185.712 314.642 185.592 314.69 185.462C315.122 182.366 314.556 179.214 313.074 176.462C312.962 176.202 312.752 175.998 312.49 175.892C312.228 175.788 311.934 175.792 311.674 175.902C309.73 176.738 313.066 180.086 312.714 184.748Z" fill="#191919"/>
<path fill-rule="evenodd" clip-rule="evenodd" d="M307.26 186.91C307.152 187.16 307.146 187.44 307.24 187.696C307.336 187.95 307.526 188.156 307.77 188.274C308.014 188.392 308.294 188.41 308.552 188.326C308.81 188.242 309.026 188.062 309.154 187.822C309.814 184.714 309.638 181.486 308.644 178.468C308.624 178.33 308.576 178.196 308.502 178.076C308.43 177.956 308.336 177.85 308.222 177.768C308.11 177.684 307.98 177.624 307.844 177.59C307.708 177.556 307.566 177.55 307.428 177.57C305.02 177.93 308.276 182.142 307.26 186.91Z" fill="#191919"/>
<path fill-rule="evenodd" clip-rule="evenodd" d="M307.6 181.538C304.662 181.562 302.888 184.004 298.632 182.48C298.532 182.384 298.416 182.31 298.288 182.258C298.16 182.208 298.022 182.182 297.884 182.184C297.746 182.188 297.61 182.216 297.484 182.272C297.356 182.326 297.242 182.406 297.146 182.504C297.05 182.604 296.974 182.72 296.924 182.85C296.872 182.978 296.848 183.114 296.85 183.252C296.852 183.39 296.882 183.526 296.936 183.654C296.992 183.78 297.07 183.894 297.17 183.99C300.138 186.16 304.446 184.72 307.91 183.656C308.19 183.616 308.444 183.464 308.614 183.236C308.782 183.01 308.856 182.724 308.814 182.442C308.772 182.162 308.622 181.908 308.394 181.74C308.166 181.57 307.88 181.498 307.6 181.538Z" fill="#191919"/>
<path d="M265.522 112.648C265.392 112.636 265.264 112.598 265.148 112.537C265.032 112.476 264.928 112.393 264.844 112.292C264.76 112.19 264.698 112.074 264.658 111.948C264.62 111.823 264.606 111.691 264.618 111.56C264.646 111.297 264.774 111.055 264.978 110.886C265.182 110.717 265.444 110.634 265.708 110.656C266.584 110.855 267.5 110.753 268.312 110.367C269.122 109.981 269.78 109.333 270.178 108.528C270.314 108.306 270.53 108.145 270.782 108.079C271.034 108.014 271.3 108.049 271.528 108.178C271.754 108.306 271.92 108.518 271.994 108.768C272.066 109.018 272.038 109.286 271.916 109.516C271.328 110.656 270.388 111.576 269.238 112.14C268.086 112.704 266.782 112.882 265.522 112.648Z" fill="#191919"/>
<path d="M268.81 106.614C265.646 106.59 265.424 106.682 265.038 106.18C264.652 105.678 264.768 105.708 265.918 100.98C265.98 100.722 266.144 100.5 266.37 100.362C266.596 100.225 266.87 100.182 267.126 100.245C267.384 100.308 267.606 100.471 267.744 100.698C267.882 100.924 267.924 101.196 267.862 101.454L267.098 104.584L268.824 104.61C269.09 104.612 269.342 104.719 269.528 104.908C269.716 105.097 269.818 105.352 269.816 105.617C269.816 105.883 269.708 106.136 269.52 106.322C269.33 106.509 269.076 106.612 268.81 106.61V106.614Z" fill="#191919"/>
<path d="M263.13 100.767C262.986 100.767 262.842 100.736 262.71 100.675C262.58 100.614 262.462 100.526 262.368 100.416C262.274 100.306 262.206 100.177 262.166 100.037C262.128 99.8978 262.12 99.7517 262.142 99.6087L262.434 97.7968C262.454 97.667 262.502 97.5426 262.57 97.4308C262.638 97.319 262.73 97.2218 262.836 97.1448C262.942 97.0678 263.062 97.0125 263.19 96.9821C263.318 96.9517 263.452 96.947 263.58 96.9678C263.71 96.9886 263.836 97.035 263.946 97.1038C264.058 97.1728 264.156 97.263 264.234 97.3696C264.31 97.4762 264.366 97.5967 264.396 97.7245C264.426 97.8523 264.43 97.985 264.41 98.1148L264.116 99.9268C264.078 100.161 263.958 100.374 263.778 100.528C263.596 100.682 263.368 100.767 263.13 100.767Z" fill="#191919"/>
<path d="M271.916 100.514C271.77 100.514 271.628 100.483 271.496 100.422C271.364 100.362 271.248 100.273 271.154 100.163C271.06 100.052 270.99 99.9228 270.952 99.7832C270.912 99.6436 270.904 99.4972 270.928 99.3542L271.222 97.5422C271.264 97.2804 271.41 97.0464 271.624 96.8914C271.84 96.7366 272.108 96.6734 272.37 96.7162C272.632 96.7588 272.866 96.9038 273.02 97.119C273.176 97.3344 273.238 97.6024 273.196 97.8642L272.902 99.6742C272.864 99.9084 272.744 100.122 272.564 100.275C272.382 100.429 272.154 100.514 271.916 100.514Z" fill="#191919"/>
<path fill-rule="evenodd" clip-rule="evenodd" d="M269.726 261.164C276.036 266.624 282.378 267.052 290.26 269.236C290.546 269.296 290.844 269.24 291.09 269.08C291.334 268.92 291.506 268.67 291.566 268.384C291.624 268.096 291.568 267.798 291.408 267.554C291.248 267.31 290.998 267.138 290.712 267.078C283.706 265.92 277.024 263.3 271.1 259.386C270.984 259.29 270.85 259.22 270.706 259.176C270.562 259.134 270.41 259.122 270.26 259.138C270.11 259.154 269.966 259.202 269.836 259.276C269.704 259.35 269.59 259.448 269.498 259.568C269.406 259.686 269.338 259.822 269.3 259.968C269.262 260.114 269.252 260.266 269.274 260.414C269.296 260.562 269.346 260.706 269.424 260.834C269.502 260.964 269.604 261.076 269.726 261.164Z" fill="#FFC738"/>
<path fill-rule="evenodd" clip-rule="evenodd" d="M305.8 270.85C304.876 268.402 303.214 266.3 301.046 264.832C297.958 262.578 294.162 261.432 291.596 258.728C290.134 257.128 290.902 252.756 287.542 251.528C282.968 249.86 278.402 254.084 274.826 250.678C272.848 248.798 273.568 247.314 272.188 247.19C271.964 247.168 271.738 247.216 271.54 247.324C271.342 247.434 271.182 247.6 271.082 247.802C269.416 250.674 267.928 253.646 266.628 256.698C263.348 268.8 273.528 268.152 284.748 272.424C289.362 274.208 297.124 277.848 301.884 276.538C303.142 276.276 304.252 275.538 304.982 274.48C305.71 273.42 306.004 272.12 305.8 270.85ZM303 272.91C300.284 276.492 289.688 271.91 285.478 270.42C273.97 266.292 265.422 267.476 268.442 257.204C269.412 254.964 270.578 252.814 271.928 250.778C272.47 251.734 273.216 252.56 274.112 253.196C275.008 253.834 276.032 254.266 277.112 254.464C280.356 254.946 284.214 252.898 286.738 253.768C287.966 254.186 288.156 256.22 288.752 257.968C287.398 258.008 286.054 258.216 284.752 258.588C284.464 258.662 284.214 258.844 284.062 259.1C283.908 259.356 283.862 259.662 283.934 259.95C284.008 260.238 284.192 260.488 284.446 260.64C284.702 260.794 285.008 260.84 285.296 260.766C286.818 260.418 288.33 260.166 289.786 259.966C290.488 260.754 291.282 261.452 292.152 262.046C291.14 262.214 290.156 262.52 289.23 262.958C288.952 263.068 288.73 263.282 288.612 263.554C288.492 263.828 288.486 264.136 288.594 264.414C288.704 264.692 288.918 264.914 289.19 265.032C289.464 265.152 289.772 265.158 290.05 265.048C291.606 264.472 293.16 264.002 294.65 263.598C295.876 264.29 297.138 264.952 298.346 265.706C296.056 266.434 294.072 267.898 292.704 269.872C292.636 270 292.594 270.14 292.578 270.284C292.564 270.428 292.58 270.574 292.62 270.712C292.662 270.852 292.732 270.98 292.824 271.092C292.916 271.204 293.028 271.296 293.156 271.364C293.284 271.434 293.424 271.476 293.568 271.49C293.712 271.504 293.858 271.49 293.996 271.448C294.134 271.406 294.264 271.338 294.376 271.246C294.486 271.154 294.58 271.04 294.648 270.912C295.392 269.924 296.348 269.116 297.45 268.552C298.55 267.986 299.764 267.678 301 267.65C301.998 268.54 302.798 269.632 303.348 270.85C303.48 271.194 303.516 271.566 303.454 271.928C303.394 272.29 303.236 272.63 303 272.91Z" fill="#FFC738"/>
<path fill-rule="evenodd" clip-rule="evenodd" d="M220.169 248.126C222.285 246.836 224.121 245.136 225.569 243.126C225.083 242.794 224.573 242.482 224.035 242.188C222.777 243.95 221.091 245.36 219.133 246.284C218.897 246.424 218.725 246.65 218.655 246.914C218.583 247.18 218.619 247.462 218.753 247.7C218.887 247.94 219.107 248.118 219.371 248.196C219.633 248.274 219.917 248.246 220.159 248.12L220.169 248.126Z" fill="#191919"/>
<path fill-rule="evenodd" clip-rule="evenodd" d="M253.342 239.126L252.402 236.368C251.272 238.662 249.92 240.844 248.37 242.88C248.802 243.728 249.214 244.562 249.598 245.374C251.05 243.42 252.304 241.326 253.342 239.126Z" fill="#191919"/>
<path fill-rule="evenodd" clip-rule="evenodd" d="M224.946 267.376L222.712 267.434C222.782 267.67 222.858 267.918 222.944 268.172C222.328 267.908 221.744 267.658 221.212 267.476L218.916 267.534C218.79 267.678 218.702 267.852 218.662 268.04C218.624 268.228 218.632 268.422 218.688 268.606C218.744 268.79 218.848 268.956 218.986 269.088C219.124 269.22 219.294 269.316 219.48 269.366C221.08 269.814 222.61 270.348 224.06 270.9C224.646 272.182 225.278 273.46 225.812 274.78C223.532 274.02 221.066 274.04 218.798 274.834C218.534 274.96 218.334 275.188 218.238 275.464C218.142 275.74 218.16 276.042 218.286 276.306C218.414 276.57 218.642 276.77 218.918 276.866C219.194 276.962 219.496 276.944 219.76 276.818C220.94 276.456 222.186 276.368 223.404 276.556C224.622 276.746 225.784 277.208 226.798 277.908C227.082 279.214 227.09 280.564 226.82 281.874C226.726 282.23 226.538 282.554 226.276 282.812C226.014 283.07 225.688 283.254 225.33 283.344C220.602 284.776 214.512 273.286 210.192 267.714C209.146 267.726 208.264 267.732 207.628 267.726C208.698 269.126 209.798 270.61 210.846 272.214C213.938 276.998 218.564 285.558 223.952 285.986C225.846 284.04 227.618 281.98 229.26 279.818C228.976 274.482 226.28 271.492 224.946 267.376Z" fill="#FFC738"/>
<path fill-rule="evenodd" clip-rule="evenodd" d="M215.6 248.79C215.106 246.104 216.56 245.328 215.516 244.416C215.348 244.264 215.138 244.168 214.914 244.142C214.688 244.114 214.462 244.156 214.262 244.262C211.218 245.586 208.266 247.116 205.43 248.84C201.044 252.374 200.366 255.42 201.546 258.616C202.062 258.304 202.596 258.024 203.146 257.778C202.334 255.316 203.086 253.034 206.596 250.328C208.698 249.084 210.906 248.028 213.196 247.176C213.018 248.594 213.264 250.034 213.9 251.316C214.536 252.596 215.538 253.66 216.776 254.376C218.482 254.238 220.202 254.176 221.938 254.176C219.2 252.802 216.2 252.066 215.6 248.79Z" fill="#FFC738"/>
<path fill-rule="evenodd" clip-rule="evenodd" d="M217.176 272.88C217.272 272.992 217.388 273.082 217.52 273.148C217.652 273.214 217.796 273.252 217.944 273.262C218.09 273.272 218.238 273.25 218.376 273.202C218.516 273.154 218.644 273.078 218.752 272.978C218.862 272.88 218.95 272.76 219.012 272.626C219.074 272.492 219.108 272.348 219.114 272.2C219.118 272.054 219.094 271.906 219.042 271.768C218.99 271.632 218.91 271.506 218.808 271.4C217.582 270.218 216.438 268.954 215.386 267.618L212.804 267.672C214.2 269.314 215.676 271.002 217.176 272.88Z" fill="#FFC738"/>
<path fill-rule="evenodd" clip-rule="evenodd" d="M207.461 253.65C207.419 253.51 207.351 253.378 207.259 253.262C207.165 253.148 207.051 253.052 206.923 252.982C206.793 252.91 206.651 252.866 206.505 252.85C206.359 252.834 206.211 252.848 206.069 252.888C205.927 252.93 205.795 253 205.681 253.092C205.565 253.184 205.471 253.298 205.399 253.428C205.329 253.556 205.285 253.698 205.269 253.844C205.253 253.992 205.265 254.14 205.307 254.28C205.497 255.098 205.719 255.88 205.967 256.614C206.759 256.326 207.559 256.066 208.367 255.836C208.049 255.12 207.747 254.392 207.461 253.65Z" fill="#FFC738"/>
<path fill-rule="evenodd" clip-rule="evenodd" d="M101.38 265.774C91.9047 265.784 82.4553 266.768 73.1803 268.708C69.9423 260.33 63.8743 230.032 62.4063 226.178C63.7603 225.244 65.5923 223.94 67.4403 222.522C69.0623 221.278 76.6403 215.104 77.5363 213.382C77.7669 212.996 77.9111 212.566 77.9595 212.12C78.0079 211.674 77.9589 211.224 77.8163 210.798C75.5223 204.958 64.3663 208.942 58.6703 210.342C56.0883 210.976 53.4703 211.394 50.8963 212.06C49.3443 212.46 47.8203 212.968 46.2763 213.412C42.0063 214.37 37.8643 215.828 33.9363 217.758C25.7363 222.498 29.0123 228.946 39.2983 229.112C41.6503 229.104 43.9987 228.932 46.3263 228.596L57.1623 228.172C59.2403 239.898 66.6743 260.384 68.5423 270.24C64.3803 272.224 65.6143 272.362 32.1983 302.986C31.6657 303.694 31.4333 304.584 31.5513 305.464C31.6693 306.342 32.1281 307.14 32.8289 307.682C33.5297 308.226 34.4161 308.472 35.2965 308.366C36.1769 308.262 36.9809 307.814 37.5343 307.122C42.6823 300.666 68.8623 277.962 69.0623 277.802C70.8011 276.306 72.9553 275.378 75.2363 275.142C82.6763 274.032 90.9243 273.262 99.0803 272.712C99.8483 270.684 100.636 268.414 101.38 265.774Z" fill="#191919"/>
<path fill-rule="evenodd" clip-rule="evenodd" d="M168.494 308.984C149.176 273.306 151.954 275.584 149.036 270.504C149.519 270.29 149.937 269.952 150.25 269.526C150.562 269.1 150.758 268.6 150.818 268.074L151.882 261.202C151.963 260.506 151.82 259.8 151.474 259.19C151.128 258.578 150.597 258.092 149.958 257.802C148.158 249.678 143.936 216.984 141.428 205.476C140.171 206.02 138.853 206.408 137.502 206.63C141.302 225.262 145.174 248.43 146.172 258.558C145.142 259.654 145.302 260.424 144.954 265.002C135.86 266.1 135.874 266.246 117.45 265.894C115.492 269.476 117.104 266.63 114.208 271.894C127.08 271.364 138.09 271.25 142.992 271.002C149.168 283.854 156.87 298.642 163.764 311.078C164.043 311.706 164.56 312.196 165.201 312.442C165.842 312.688 166.555 312.67 167.182 312.39C167.809 312.112 168.3 311.594 168.546 310.954C168.792 310.312 168.773 309.6 168.494 308.972V308.984Z" fill="#191919"/>
<path fill-rule="evenodd" clip-rule="evenodd" d="M7.62608 298.402C7.77936 295.842 8.4538 293.34 9.608 291.05C17.16 274.552 48.296 271.552 57.222 285.826C60.342 290.826 60.738 294.944 62.474 301.292C62.6112 301.704 62.8282 302.086 63.113 302.416C63.3976 302.744 63.7442 303.014 64.1332 303.208C64.522 303.404 64.9456 303.52 65.3794 303.552C65.8134 303.582 66.2492 303.528 66.662 303.392C67.075 303.254 67.4568 303.038 67.7858 302.752C68.1148 302.468 68.3844 302.122 68.5794 301.732C68.7744 301.344 68.891 300.92 68.9222 300.486C68.9536 300.052 68.8992 299.616 68.762 299.204C66.7862 293.68 64.4902 288.278 61.886 283.022C49 260.662 11.448 268.764 2.77008 287.922C1.38294 291.212 0.736323 294.766 0.876083 298.334C0.888223 299.216 1.24512 300.058 1.8704 300.68C2.49568 301.302 3.33966 301.654 4.22176 301.662C5.10384 301.67 5.95396 301.332 6.5902 300.722C7.22644 300.11 7.59826 299.276 7.62608 298.394V298.402Z" fill="#191919"/>
<path fill-rule="evenodd" clip-rule="evenodd" d="M130.846 301.382C128.701 301.708 126.531 301.834 124.362 301.762C124.285 302.178 124.213 302.596 124.146 303.014C124.114 303.87 124.415 304.706 124.985 305.344C125.556 305.982 126.351 306.376 127.205 306.44C128.059 306.506 128.904 306.238 129.565 305.692C130.225 305.148 130.648 304.368 130.746 303.516C130.739 302.804 130.773 302.092 130.846 301.382Z" fill="#191919"/>
<path fill-rule="evenodd" clip-rule="evenodd" d="M166.12 269.602C152.49 266.368 138.498 274.428 130.48 286.74C132.294 287.624 133.954 288.794 135.4 290.202C138.888 285.71 143.387 282.106 148.53 279.682C153.673 277.258 159.316 276.082 165 276.25C165.437 276.324 165.884 276.31 166.316 276.21C166.748 276.112 167.156 275.928 167.517 275.67C167.878 275.414 168.185 275.088 168.42 274.712C168.656 274.336 168.814 273.918 168.888 273.482C168.962 273.044 168.948 272.598 168.849 272.166C168.75 271.734 168.566 271.326 168.309 270.964C168.052 270.604 167.727 270.296 167.351 270.062C166.975 269.826 166.557 269.668 166.12 269.594V269.602Z" fill="#191919"/>
<path fill-rule="evenodd" clip-rule="evenodd" d="M52.1562 259.862C33.1802 261.598 18.5042 260.096 9.08421 261.024C8.64105 261.03 8.20363 261.124 7.79685 261.3C7.39005 261.476 7.02187 261.73 6.71329 262.048C6.40473 262.366 6.16183 262.742 5.99845 263.154C5.83509 263.566 5.75445 264.006 5.76113 264.448C5.76783 264.892 5.86173 265.328 6.03749 265.736C6.21323 266.142 6.46739 266.51 6.78543 266.82C7.10347 267.128 7.47917 267.37 7.89109 267.534C8.30299 267.698 8.74305 267.778 9.18621 267.772C11.2422 267.772 13.3182 267.844 15.4002 267.856C17.0822 276.612 22.3802 288.486 25.4962 295.186C25.6836 295.658 26.0514 296.038 26.5182 296.24C26.9852 296.44 27.5132 296.448 27.9862 296.262C28.459 296.074 28.838 295.706 29.0398 295.24C29.2416 294.772 29.2496 294.244 29.0622 293.772C25.4382 286.612 21.6202 273.772 19.6042 267.858C25.6322 267.834 31.6242 267.688 37.2042 267.446C35.8042 275.446 35.9302 286.858 35.8222 293.912C35.8092 294.418 35.9964 294.91 36.3434 295.28C36.6904 295.65 37.1692 295.87 37.6762 295.89C37.9282 295.9 38.1798 295.86 38.4164 295.77C38.6528 295.682 38.8694 295.548 39.0536 295.376C39.2378 295.204 39.3858 294.996 39.4892 294.766C39.5928 294.536 39.6494 294.288 39.6562 294.036C39.8082 282.436 40.9642 272.898 41.4562 267.236C45.2962 267.036 48.8762 266.774 52.0562 266.482C52.4962 266.496 52.9348 266.424 53.3466 266.268C53.7582 266.112 54.1344 265.874 54.4534 265.57C54.7724 265.268 55.0278 264.902 55.2044 264.5C55.381 264.096 55.4754 263.662 55.482 263.222C55.4886 262.782 55.4074 262.344 55.243 261.936C55.0788 261.526 54.8346 261.156 54.5248 260.842C54.2152 260.53 53.8462 260.28 53.4394 260.112C53.0328 259.944 52.5964 259.86 52.1562 259.862Z" fill="#191919"/>
<path fill-rule="evenodd" clip-rule="evenodd" d="M122.034 301.712C113.855 301.428 105.755 299.998 97.9724 297.464C91.7724 297.322 86.8504 297.324 86.2364 297.364C85.9802 297.374 85.7284 297.434 85.4956 297.542C85.2628 297.65 85.0536 297.802 84.8796 297.99C84.7056 298.178 84.5706 298.4 84.482 298.64C84.3934 298.88 84.353 299.136 84.3634 299.392C84.3736 299.648 84.4342 299.9 84.5416 300.134C84.6492 300.366 84.8016 300.576 84.99 300.75C85.1784 300.922 85.3992 301.058 85.6398 301.146C85.8804 301.236 86.1362 301.276 86.3924 301.266C104.558 300.978 104.362 301.55 104.562 301.562C104.561 302.264 104.703 302.958 104.978 303.606C105.253 304.252 105.656 304.836 106.162 305.322C107.25 306.234 116.962 307.612 120.35 305.86C120.941 305.352 121.402 304.71 121.695 303.99C121.988 303.268 122.104 302.486 122.034 301.712Z" fill="#191919"/>
<path fill-rule="evenodd" clip-rule="evenodd" d="M25.612 281.488C3.57397 289.2 3.55997 318.466 19.83 327.048C28.43 331.586 40.814 332.33 48.57 326.17C52.2296 323.266 55.1448 319.532 57.0742 315.278C59.0038 311.024 59.8922 306.37 59.666 301.704C58.256 284.916 39.106 276.762 25.612 281.488ZM52.48 302.21C52.5528 305.682 51.808 309.124 50.3058 312.256C48.8034 315.388 46.5858 318.122 43.832 320.238C38.48 324.41 29.244 323.53 23.202 320.548C14.134 316.074 12.708 303.258 18.202 295.314C20.725 292.054 24.1734 289.63 28.096 288.362C40.512 283.898 51.836 291.656 52.48 302.21Z" fill="#FFC738"/>
<path fill-rule="evenodd" clip-rule="evenodd" d="M23.1123 299.746C19.7123 305.458 22.1803 313.746 29.0023 315.692C38.0863 318.272 47.2883 309.95 43.3763 300.404C39.9883 292.132 27.4823 292.38 23.1123 299.746ZM38.0143 302.4C40.5663 309.7 29.4543 312.848 27.4143 307.178C27.1327 306.436 27.0225 305.642 27.0917 304.854C27.1611 304.064 27.4081 303.302 27.8143 302.622C29.3843 300.214 36.3003 297.496 38.0143 302.4Z" fill="#FFC738"/>
<path fill-rule="evenodd" clip-rule="evenodd" d="M183.372 292C180.555 287.08 176.198 283.222 170.973 281.02C165.747 278.818 159.943 278.396 154.454 279.818V279.874C145.282 282.142 139.854 287.146 137.228 293.098C137.484 294.006 137.474 294.966 137.2 295.87C136.926 296.772 136.399 297.576 135.682 298.188C135.005 302.906 135.49 307.718 137.093 312.206C138.696 316.694 141.37 320.724 144.882 323.946C152.192 330.67 164.598 330.794 173.482 326.9C186.436 321.23 189.876 303.6 183.372 292ZM170.6 320.174C164.334 322.722 155.066 322.908 150.046 318.374C147.453 316.064 145.438 313.178 144.167 309.948C142.895 306.716 142.4 303.232 142.724 299.774C143.524 293.802 147.612 288.482 156.124 286.12V286.178C163.994 284.324 173.948 289.52 177.398 295.378C182.322 303.696 179.962 316.368 170.6 320.174Z" fill="#FFC738"/>
<path fill-rule="evenodd" clip-rule="evenodd" d="M172.2 299.432C175.164 305.364 172.128 313.47 165.176 314.91C155.934 316.824 147.348 307.866 151.942 298.622C155.834 290.772 168.274 291.59 172.2 299.432ZM157.148 301.002C154.058 308.134 164.948 312.022 167.368 306.532C167.701 305.814 167.866 305.028 167.853 304.236C167.839 303.444 167.647 302.666 167.29 301.958C165.91 299.458 159.2 296.222 157.138 301L157.148 301.002Z" fill="#FFC738"/>
<path fill-rule="evenodd" clip-rule="evenodd" d="M96.2144 296.6C99.1544 308.47 81.5124 314.272 76.5244 303.486C73.9784 297.976 77.0644 293.248 82.7044 290.928C87.2644 289.05 91.1244 289.128 93.6784 291.728C93.4984 290.264 93.5382 288.78 93.7964 287.328C84.3164 281.006 67.6884 291.716 72.9964 304.994C79.1224 320.316 100.876 312.706 99.5404 297.97C98.3744 297.668 97.2554 297.206 96.2144 296.6Z" fill="#191919"/>
<path fill-rule="evenodd" clip-rule="evenodd" d="M102.55 34.1995C102.567 34.3325 102.616 34.4597 102.692 34.5705C102.767 34.6815 102.868 34.7729 102.986 34.8375C115.826 41.6935 133.622 32.9635 149.158 32.4095C171.896 31.6095 193.266 37.1875 212.614 35.4815C215.28 35.2455 221.858 35.1995 222.53 32.8075C223.262 30.2075 218.09 27.5055 215.748 26.5755C208.05 23.5175 200.258 24.4775 192.308 24.4835C183.494 24.4835 174.76 21.5975 165.842 21.0835C154.492 20.4255 142.616 22.8515 131.576 21.9475C124.648 21.3795 115.748 20.1815 109.704 22.0655C104.8 23.5995 101.61 27.0355 102.55 34.1995Z" fill="#FFC738"/>
<path fill-rule="evenodd" clip-rule="evenodd" d="M310.92 4.00005C303.278 1.20005 292.37 3.32205 282.282 2.67005C273.148 2.07005 264.102 0.190055 254.898 0.270055C248.622 0.326055 242.424 1.55005 236.198 2.13405C226.548 3.03805 222.46 1.44806 214.232 1.71206C201.384 2.11206 193.69 8.76606 199.802 11.0001C202.312 11.6923 204.882 12.1489 207.478 12.3641C223.078 14.5141 240.82 11.9321 258.038 11.8901C278.386 11.8401 282.064 14.8901 296.344 17.8901C298.5 18.3549 300.68 18.7047 302.872 18.9381C326.782 21.3821 318.232 6.67005 310.92 4.00005Z" fill="#FFC738"/>
<path fill-rule="evenodd" clip-rule="evenodd" d="M57.1623 190.144C56.3923 196.464 55.9403 202.848 54.6343 209.102C55.4343 208.884 56.2343 208.674 57.0043 208.472C58.1187 203.254 58.9121 197.97 59.3803 192.654C58.5973 191.858 57.8569 191.02 57.1623 190.144Z" fill="#191919"/>
<path fill-rule="evenodd" clip-rule="evenodd" d="M83.4645 206.788C82.2759 210.702 80.8053 214.524 79.0645 218.228C75.8941 224.896 71.3333 230.812 65.6885 235.574C65.9285 236.496 66.1799 237.412 66.4425 238.324C73.9605 230.866 81.8605 222.124 85.5985 207.63C84.8999 207.356 84.1885 207.076 83.4645 206.788Z" fill="#191919"/>
<path fill-rule="evenodd" clip-rule="evenodd" d="M58.8602 242.362C55.3904 245.99 52.441 250.082 50.0962 254.522C46.4788 254.914 42.8414 253.986 39.8542 251.908C39.7168 251.796 39.5552 251.718 39.3822 251.68C41.8382 242.982 45.4722 236.974 48.9822 230.178H46.0402C41.1272 239.002 37.7632 248.602 36.0942 258.562C37.8202 258.538 39.6942 258.522 41.4182 258.522C40.295 257.992 39.2174 257.368 38.1962 256.662C38.3616 255.78 38.5536 254.89 38.7722 253.99C41.3542 256.39 45.3942 256.894 48.9342 256.93C48.685 257.49 48.4456 258.054 48.2162 258.622C48.8722 258.644 49.501 258.67 50.1022 258.7C52.3872 253.594 55.6234 248.972 59.6382 245.078L58.8602 242.362Z" fill="#191919"/>
<path fill-rule="evenodd" clip-rule="evenodd" d="M75.3024 170.344C79.6304 177.814 86.1144 186.132 93.3024 190.916C93.5498 191.058 93.8424 191.1 94.1194 191.03C94.3962 190.962 94.6356 190.788 94.7874 190.546C94.9392 190.304 94.9916 190.014 94.9336 189.734C94.8756 189.456 94.7118 189.21 94.4764 189.048C85.9224 184.28 79.2644 172.078 77.2204 169.176C77.1438 169.05 77.0432 168.94 76.9244 168.854C76.8054 168.766 76.6706 168.704 76.5274 168.668C76.3842 168.634 76.2354 168.628 76.0898 168.65C75.9442 168.672 75.8044 168.724 75.6784 168.8C75.426 168.956 75.245 169.206 75.1748 169.496C75.1044 169.784 75.1502 170.088 75.3024 170.344Z" fill="#FFC738"/>
<path fill-rule="evenodd" clip-rule="evenodd" d="M81.5306 167.346C85.3986 176.248 91.5546 181.946 98.6906 188.128C98.9224 188.306 99.2154 188.384 99.5054 188.346C99.7954 188.31 100.058 188.158 100.237 187.926C100.415 187.694 100.494 187.4 100.456 187.11C100.418 186.82 100.266 186.558 100.035 186.38C92.3146 181.16 88.3226 175.096 83.5686 166.404C83.5068 166.27 83.4192 166.15 83.3108 166.05C83.2026 165.949 83.0756 165.872 82.9372 165.821C82.7988 165.77 82.6516 165.747 82.5044 165.753C82.357 165.759 82.2124 165.794 82.0786 165.856C81.8104 165.983 81.6028 166.21 81.5004 166.488C81.3978 166.768 81.4088 167.076 81.5306 167.346Z" fill="#FFC738"/>
<path fill-rule="evenodd" clip-rule="evenodd" d="M87.7264 163.4C91.1144 164.434 96.7884 165.758 99.8304 168.97C100.053 169.148 100.337 169.232 100.621 169.206C100.906 169.18 101.169 169.044 101.355 168.828C101.542 168.612 101.638 168.332 101.622 168.048C101.607 167.762 101.481 167.494 101.272 167.3C97.6774 163.867 93.05 161.718 88.1084 161.186C87.9606 161.155 87.8084 161.154 87.6604 161.184C87.5126 161.213 87.372 161.272 87.2474 161.357C87.1228 161.442 87.0164 161.551 86.9348 161.678C86.8532 161.804 86.7978 161.946 86.7722 162.095C86.7466 162.244 86.7512 162.396 86.7856 162.543C86.82 162.69 86.8836 162.828 86.9726 162.95C87.0616 163.071 87.1742 163.174 87.3038 163.251C87.4332 163.329 87.577 163.379 87.7264 163.4Z" fill="#191919"/>
<path fill-rule="evenodd" clip-rule="evenodd" d="M53.5223 171.2C52.3483 180.126 55.9843 186.26 62.7223 192.116C72.1383 200.316 84.4223 202.85 95.0663 210.842C111.048 222.842 107.318 255.428 99.8243 274.092C99.7639 274.228 99.7317 274.376 99.7295 274.524C99.7273 274.674 99.7553 274.82 99.8117 274.958C99.8681 275.096 99.9517 275.222 100.058 275.326C100.164 275.43 100.29 275.512 100.428 275.568C100.567 275.622 100.715 275.648 100.863 275.644C101.012 275.64 101.159 275.606 101.294 275.544C101.429 275.482 101.551 275.392 101.651 275.282C101.751 275.172 101.827 275.044 101.876 274.902C103.79 269.682 105.242 264.304 106.216 258.83C108.796 245.272 109.816 226.83 102.44 215.158C98.8283 209.44 94.1723 206.81 87.3623 203.446C79.0423 199.334 71.1223 196.498 64.2923 190.342C58.4483 185.072 54.8403 179.23 55.7563 171.478C55.7851 171.186 55.6987 170.896 55.5157 170.666C55.3327 170.438 55.0675 170.29 54.7767 170.252C54.4859 170.216 54.1923 170.296 53.9587 170.472C53.7251 170.65 53.5699 170.91 53.5263 171.2H53.5223Z" fill="#191919"/>
<path fill-rule="evenodd" clip-rule="evenodd" d="M123.302 202.516C125.449 208.558 126.738 214.87 127.132 221.27C127.224 224.56 127.077 227.852 126.692 231.12C125.86 236.272 124.589 241.346 122.892 246.282C119.073 256.054 114.656 265.582 109.664 274.81C109.536 275.072 109.517 275.376 109.612 275.652C109.707 275.928 109.908 276.156 110.171 276.284C110.434 276.412 110.737 276.432 111.014 276.336C111.29 276.242 111.518 276.04 111.646 275.778C123.896 250.086 126.358 245.282 127.896 238.276C128.738 233.71 129.217 229.084 129.328 224.442C129.712 216.658 128.366 208.884 125.386 201.684C125.276 201.406 125.06 201.186 124.786 201.068C124.513 200.95 124.204 200.946 123.927 201.056C123.651 201.166 123.429 201.382 123.311 201.656C123.194 201.93 123.192 202.238 123.302 202.516Z" fill="#191919"/>
<path fill-rule="evenodd" clip-rule="evenodd" d="M87.3762 201.052C89.2268 197.886 91.7516 195.164 94.7714 193.082C97.7912 191 101.232 189.608 104.85 189.006C105.138 188.962 105.396 188.806 105.569 188.574C105.743 188.34 105.817 188.048 105.776 187.76C105.736 187.472 105.583 187.212 105.351 187.036C105.12 186.86 104.828 186.782 104.54 186.82C96.8962 188.386 88.2362 193.256 85.3302 200.122C85.2096 200.394 85.2008 200.702 85.3056 200.982C85.4102 201.26 85.6202 201.486 85.8902 201.612C86.1614 201.734 86.4704 201.744 86.749 201.64C87.0276 201.534 87.2532 201.322 87.3762 201.052Z" fill="#191919"/>
<path fill-rule="evenodd" clip-rule="evenodd" d="M98.7567 290.896C106.057 294.936 112.357 294.048 120.515 294.558C120.795 294.54 121.058 294.418 121.251 294.212C121.443 294.008 121.55 293.738 121.55 293.458C121.55 293.176 121.443 292.906 121.251 292.702C121.058 292.498 120.795 292.374 120.515 292.358C113.422 292.67 106.342 291.484 99.7387 288.878C99.6051 288.806 99.4585 288.762 99.3075 288.748C99.1567 288.736 99.0045 288.752 98.8605 288.8C98.7165 288.846 98.5833 288.922 98.4691 289.022C98.3549 289.12 98.2621 289.242 98.1961 289.378C98.1303 289.516 98.0925 289.664 98.0853 289.814C98.0781 289.966 98.1015 290.118 98.1543 290.26C98.2071 290.402 98.2879 290.532 98.3921 290.642C98.4963 290.752 98.6217 290.838 98.7607 290.9L98.7567 290.896Z" fill="#191919"/>
<path fill-rule="evenodd" clip-rule="evenodd" d="M136.052 292.93C134.642 290.726 132.583 289.01 130.158 288.022C126.672 286.454 122.722 286.114 119.652 284C117.894 282.744 117.742 278.298 114.2 277.784C109.38 277.094 105.784 282.17 101.582 279.584C99.2582 278.15 99.6562 276.55 98.2802 276.714C98.056 276.74 97.8446 276.832 97.6738 276.98C97.5032 277.126 97.3812 277.322 97.3242 277.54C96.2866 280.694 95.4444 283.908 94.8022 287.164C94.0882 299.682 103.914 296.948 115.776 298.814C120.658 299.614 129.004 301.568 133.392 299.304C134.57 298.788 135.504 297.838 136 296.65C136.495 295.464 136.514 294.132 136.052 292.93ZM133.746 295.53C131.826 299.596 120.512 297.294 116.086 296.708C103.974 295.044 95.8542 297.964 96.6862 287.292C97.1728 284.902 97.8708 282.56 98.7722 280.292C99.5004 281.116 100.4 281.77 101.408 282.208C102.416 282.646 103.507 282.86 104.606 282.83C107.88 282.63 111.232 279.83 113.88 280.162C115.168 280.32 115.774 282.27 116.716 283.852C115.4 284.172 114.129 284.654 112.932 285.286C112.665 285.418 112.46 285.648 112.363 285.93C112.265 286.21 112.284 286.52 112.414 286.786C112.544 287.054 112.776 287.26 113.057 287.356C113.338 287.454 113.647 287.434 113.914 287.304C115.332 286.648 116.758 286.09 118.14 285.59C118.989 286.214 119.911 286.734 120.884 287.136C119.929 287.508 119.03 288.012 118.214 288.632C117.97 288.798 117.801 289.054 117.743 289.342C117.686 289.632 117.744 289.932 117.907 290.178C118.069 290.424 118.322 290.598 118.61 290.658C118.899 290.72 119.2 290.666 119.448 290.506C120.848 289.622 122.274 288.842 123.648 288.138C124.992 288.562 126.364 288.95 127.702 289.438C125.611 290.622 123.971 292.464 123.04 294.678C123 294.818 122.987 294.964 123.003 295.108C123.018 295.252 123.062 295.39 123.132 295.518C123.201 295.644 123.295 295.756 123.408 295.846C123.521 295.938 123.65 296.006 123.789 296.046C123.928 296.086 124.074 296.1 124.218 296.084C124.362 296.068 124.501 296.024 124.628 295.954C124.755 295.884 124.867 295.79 124.957 295.678C125.048 295.566 125.116 295.436 125.156 295.296C125.679 294.18 126.448 293.194 127.406 292.418C128.364 291.64 129.485 291.09 130.686 290.806C131.845 291.47 132.851 292.37 133.64 293.446C133.84 293.752 133.956 294.106 133.974 294.47C133.993 294.836 133.914 295.198 133.746 295.522V295.53Z" fill="#191919"/>
<path fill-rule="evenodd" clip-rule="evenodd" d="M106.332 255.02C110.238 257.056 117.06 256.974 119.854 256.42C121.238 256.268 121.054 254.092 119.9 254.22C116.598 254.956 110.314 253.71 107.17 252.94C107.032 252.878 106.883 252.846 106.732 252.842C106.58 252.84 106.43 252.866 106.289 252.924C106.149 252.98 106.021 253.064 105.914 253.172C105.807 253.278 105.723 253.406 105.667 253.546C105.61 253.686 105.583 253.838 105.586 253.988C105.589 254.14 105.622 254.29 105.685 254.428C105.747 254.566 105.836 254.69 105.948 254.792C106.059 254.894 106.19 254.974 106.332 255.024V255.02Z" fill="#191919"/>
<path fill-rule="evenodd" clip-rule="evenodd" d="M105.336 260.622C108.828 263.138 113.266 263.096 117.486 262.248C117.764 262.158 117.994 261.96 118.126 261.7C118.258 261.438 118.281 261.136 118.19 260.858C118 260.28 118.172 259.716 117.59 259.904C114.748 261.234 108.23 259.938 106.068 258.43C105.53 258.12 105.234 258.55 104.922 259.088C104.775 259.346 104.736 259.654 104.813 259.94C104.891 260.228 105.079 260.472 105.336 260.622Z" fill="#191919"/>
<path fill-rule="evenodd" clip-rule="evenodd" d="M144.726 107.524C145.656 110.57 147.468 112.632 151.1 112.06C152.484 111.604 151.97 110.004 151.594 110.126C150.543 110.297 149.467 110.056 148.589 109.453C147.711 108.85 147.099 107.932 146.88 106.89C146.796 106.604 146.602 106.363 146.341 106.221C146.079 106.078 145.772 106.046 145.486 106.13C145.201 106.214 144.96 106.408 144.818 106.669C144.675 106.931 144.642 107.238 144.726 107.524Z" fill="#191919"/>
<path fill-rule="evenodd" clip-rule="evenodd" d="M98.8721 114.234C87.8421 111.276 76.0281 115.852 68.0541 122.68C65.2287 125.353 62.8235 128.437 60.9201 131.828C54.6021 134.1 52.0781 138.228 48.4601 144.428C46.6301 147.562 43.9241 152.278 44.4601 155.778C44.8161 158.126 46.4381 159.016 48.7961 159.222C47.8281 163.84 50.2401 166.622 53.9961 168.266C59.3461 170.6 67.6461 170.422 71.4821 169.916C81.4821 168.67 85.0261 162.776 90.6161 155.204C92.6461 152.462 94.5701 149.658 96.3581 146.77C99.8045 140.994 102.868 134.998 105.53 128.82C108.282 121.34 106.692 116.298 98.8721 114.234ZM49.1221 156.736C47.8241 156.596 47.2061 156.524 47.0281 155.372C46.3681 151.154 52.5861 141.346 54.9941 138.432C57.3133 135.827 60.4341 134.067 63.8641 133.432C69.1501 132.523 74.5713 132.788 79.7441 134.206C80.3441 134.376 80.1441 135.824 80.0141 136.442C78.7021 142.874 71.3481 152.774 67.7141 154.138C61.6783 155.915 55.4135 156.79 49.1221 156.736ZM98.9441 136.686C96.0923 142.716 92.7083 148.48 88.8321 153.908C83.5801 161.324 80.6001 166.856 71.2321 168.108C67.6141 168.562 59.7721 168.77 54.7641 166.494C54.0403 166.27 53.3681 165.905 52.7867 165.42C52.2053 164.934 51.7263 164.338 51.3773 163.666C51.0285 162.993 50.8167 162.258 50.7543 161.503C50.6919 160.748 50.7801 159.989 51.0141 159.268C56.9209 158.843 62.7567 157.722 68.4001 155.926C70.9881 154.926 74.7501 150.574 77.7061 145.926C80.2541 141.926 84.9401 133.51 80.3841 132.078C75.1451 130.296 69.5333 129.906 64.0981 130.944C70.6681 120.962 85.4281 112.958 98.3161 116.344C99.3569 116.61 100.364 116.995 101.316 117.492C101.456 119.426 99.3061 124.964 98.2221 127.178C93.1595 136.607 87.4519 145.675 81.1401 154.318C80.9605 154.549 80.8799 154.842 80.9161 155.132C80.9523 155.422 81.1023 155.686 81.3331 155.865C81.5637 156.045 81.8563 156.125 82.1465 156.089C82.4365 156.053 82.7005 155.903 82.8801 155.672C88.7855 147.328 94.2691 138.693 99.3101 129.8C99.5961 129.238 99.8501 128.674 100.11 128.136C101.738 125.419 102.897 122.448 103.538 119.346C106.888 123.784 101.014 132.476 98.9441 136.686Z" fill="#191919"/>
<path fill-rule="evenodd" clip-rule="evenodd" d="M105 129.415C113.882 123.687 125.512 117.037 135.826 119.815C135.968 119.852 136.115 119.862 136.26 119.842C136.405 119.822 136.544 119.774 136.671 119.7C136.797 119.626 136.907 119.527 136.994 119.41C137.082 119.293 137.145 119.159 137.181 119.017C137.216 118.875 137.223 118.728 137.201 118.583C137.179 118.438 137.128 118.3 137.051 118.175C136.975 118.05 136.875 117.942 136.756 117.856C136.637 117.771 136.503 117.71 136.36 117.677C125.29 115.161 112.858 120.725 103.684 127.591C103.443 127.765 103.281 128.028 103.233 128.322C103.186 128.616 103.258 128.917 103.432 129.159C103.607 129.4 103.87 129.562 104.164 129.609C104.458 129.657 104.759 129.585 105 129.411V129.415Z" fill="#191919"/>
<path fill-rule="evenodd" clip-rule="evenodd" d="M101.92 112.601C114.502 109.175 134.578 113.357 139.736 125.333C141.025 128.805 141.22 132.588 140.294 136.173C136.59 154.629 118.472 171.06 126.294 189.392C126.352 189.524 126.436 189.644 126.54 189.744C126.644 189.844 126.767 189.924 126.902 189.976C127.037 190.03 127.181 190.056 127.326 190.052C127.471 190.05 127.614 190.018 127.746 189.962C127.879 189.904 127.999 189.82 128.1 189.716C128.2 189.612 128.279 189.488 128.332 189.354C128.385 189.218 128.411 189.074 128.408 188.93C128.405 188.784 128.374 188.642 128.316 188.51C121.02 172.13 135.742 157.367 141.014 142.747C144.174 134.001 144.8 126.463 138.514 119.469C131.174 111.307 115.07 106.445 101.314 110.437C101.044 110.53 100.819 110.723 100.686 110.977C100.553 111.23 100.522 111.524 100.598 111.8C100.675 112.076 100.853 112.312 101.098 112.46C101.342 112.609 101.634 112.658 101.914 112.599L101.92 112.601Z" fill="#191919"/>
<path fill-rule="evenodd" clip-rule="evenodd" d="M102.619 147.657C100.569 152.291 99.4916 157.297 99.4526 162.365C99.2356 166.674 99.6076 170.992 100.559 175.2C101.93 179.66 104.3 183.748 107.489 187.154C110.677 190.562 114.599 193.196 118.959 194.86C120.063 195.3 121.214 195.616 122.389 195.798C122.532 195.816 122.678 195.806 122.818 195.768C122.957 195.73 123.088 195.664 123.202 195.576C123.317 195.486 123.412 195.376 123.484 195.25C123.555 195.124 123.602 194.986 123.62 194.842C123.638 194.698 123.627 194.552 123.589 194.412C123.55 194.272 123.485 194.142 123.396 194.028C123.307 193.914 123.197 193.818 123.071 193.746C122.945 193.674 122.806 193.628 122.663 193.61C117.502 192.758 112.785 190.176 109.289 186.284C106.327 182.984 104.211 179.014 103.123 174.714C101.175 168.268 100.623 163.045 103.323 153.069C103.743 151.519 104.141 149.965 104.701 148.469C104.809 148.191 104.803 147.882 104.683 147.608C104.563 147.335 104.34 147.121 104.063 147.013C103.785 146.904 103.475 146.91 103.202 147.03C102.929 147.15 102.715 147.373 102.607 147.651L102.619 147.657Z" fill="#191919"/>
<path fill-rule="evenodd" clip-rule="evenodd" d="M139 124.489C136.995 123.118 134.723 122.185 132.333 121.75C129.943 121.315 127.488 121.389 125.128 121.965C108.304 125.049 97.9544 141.525 99.8904 152.353C99.9176 152.495 99.9724 152.631 100.052 152.752C100.132 152.873 100.234 152.977 100.354 153.058C100.474 153.14 100.608 153.196 100.75 153.226C100.892 153.255 101.038 153.256 101.18 153.229C101.323 153.202 101.458 153.147 101.579 153.067C101.7 152.988 101.804 152.885 101.886 152.765C101.967 152.646 102.024 152.511 102.053 152.369C102.082 152.227 102.084 152.081 102.056 151.939C101.495 149.268 101.61 146.498 102.392 143.883C105.172 134.715 116.49 126.179 124.086 124.385C128.743 123.317 133.631 124.031 137.788 126.385C137.913 126.465 138.052 126.519 138.197 126.545C138.343 126.571 138.492 126.568 138.636 126.536C138.781 126.504 138.917 126.444 139.038 126.36C139.159 126.275 139.263 126.168 139.342 126.043C139.422 125.919 139.476 125.78 139.502 125.634C139.528 125.489 139.525 125.34 139.493 125.195C139.461 125.051 139.402 124.914 139.317 124.793C139.232 124.672 139.125 124.569 139 124.489Z" fill="#191919"/>
<path fill-rule="evenodd" clip-rule="evenodd" d="M143.018 184.856C140.327 184.764 137.641 185.136 135.076 185.956C132.504 186.65 130.137 187.954 128.174 189.756C127.949 189.944 127.807 190.212 127.777 190.504C127.748 190.796 127.833 191.088 128.016 191.318C128.199 191.548 128.464 191.696 128.755 191.732C129.047 191.77 129.34 191.69 129.574 191.514C130.279 191.022 131.008 190.568 131.758 190.152C135.406 187.952 138.524 186.552 142.694 187.396C143.289 187.394 143.878 187.508 144.427 187.734C144.977 187.96 145.477 188.292 145.899 188.71C146.32 189.13 146.655 189.628 146.884 190.176C147.114 190.724 147.232 191.312 147.234 191.908C147.314 193.23 147.11 194.554 146.634 195.792C146.176 197.006 147.914 197.694 148.396 196.148C150.6 189.126 147.346 185.184 143.018 184.856Z" fill="#191919"/>
<path fill-rule="evenodd" clip-rule="evenodd" d="M134.738 195.474C134.108 198.448 132.883 201.266 131.138 203.756C131.034 203.866 130.953 203.996 130.901 204.138C130.849 204.28 130.827 204.432 130.836 204.584C130.845 204.734 130.885 204.882 130.954 205.018C131.023 205.154 131.119 205.272 131.236 205.368C131.353 205.466 131.489 205.536 131.635 205.578C131.781 205.62 131.933 205.632 132.084 205.612C132.234 205.592 132.379 205.54 132.509 205.462C132.638 205.384 132.751 205.28 132.838 205.156C134.668 202.45 136.021 199.45 136.838 196.288C136.937 196.012 136.924 195.71 136.803 195.444C136.682 195.178 136.462 194.97 136.19 194.862C135.918 194.756 135.615 194.76 135.346 194.872C135.076 194.986 134.861 195.198 134.746 195.468L134.738 195.474Z" fill="#191919"/>
<path fill-rule="evenodd" clip-rule="evenodd" d="M138.616 194.964C138.356 197.994 137.486 200.938 136.06 203.624C135.903 203.87 135.85 204.17 135.913 204.456C135.976 204.742 136.151 204.99 136.397 205.148C136.644 205.304 136.943 205.358 137.228 205.294C137.514 205.23 137.763 205.056 137.92 204.81C139.403 201.9 140.377 198.758 140.8 195.52C140.87 195.232 140.824 194.93 140.671 194.676C140.519 194.422 140.273 194.238 139.986 194.166C139.699 194.092 139.395 194.136 139.14 194.284C138.885 194.434 138.699 194.678 138.622 194.964H138.616Z" fill="#191919"/>
<path fill-rule="evenodd" clip-rule="evenodd" d="M142.626 191.766C142.572 195.556 141.918 199.312 140.688 202.896C140.617 203.03 140.574 203.174 140.562 203.324C140.549 203.474 140.568 203.626 140.616 203.768C140.664 203.91 140.741 204.042 140.841 204.154C140.942 204.266 141.064 204.356 141.201 204.418C141.338 204.48 141.486 204.514 141.637 204.518C141.787 204.522 141.936 204.494 142.076 204.436C142.215 204.38 142.341 204.296 142.447 204.188C142.552 204.08 142.634 203.952 142.688 203.812C143.966 200.002 144.695 196.028 144.852 192.012C144.869 191.866 144.856 191.718 144.815 191.576C144.774 191.434 144.705 191.302 144.613 191.188C144.521 191.072 144.407 190.976 144.278 190.904C144.149 190.834 144.007 190.788 143.86 190.772C143.714 190.756 143.566 190.768 143.424 190.81C143.282 190.852 143.15 190.92 143.035 191.012C142.92 191.104 142.824 191.218 142.753 191.346C142.682 191.476 142.637 191.618 142.62 191.764L142.626 191.766Z" fill="#191919"/>
<path fill-rule="evenodd" clip-rule="evenodd" d="M124.432 197.228C125.386 198.338 126.67 199.112 128.096 199.436C129.522 199.762 131.015 199.622 132.356 199.038C132.49 198.984 132.613 198.904 132.716 198.802C132.82 198.702 132.902 198.58 132.959 198.448C133.015 198.314 133.045 198.172 133.047 198.026C133.048 197.882 133.021 197.738 132.967 197.604C132.913 197.47 132.833 197.346 132.732 197.244C132.63 197.14 132.509 197.058 132.376 197C132.243 196.944 132.1 196.914 131.955 196.912C131.81 196.912 131.666 196.938 131.532 196.992C130.592 197.388 129.549 197.472 128.558 197.23C127.568 196.986 126.681 196.432 126.03 195.646C125.926 195.542 125.803 195.458 125.666 195.4C125.53 195.344 125.384 195.314 125.236 195.312C125.089 195.312 124.942 195.34 124.805 195.396C124.669 195.452 124.544 195.534 124.439 195.638C124.334 195.742 124.25 195.864 124.193 196.002C124.136 196.138 124.106 196.284 124.105 196.432C124.104 196.578 124.132 196.726 124.188 196.862C124.244 196.998 124.326 197.124 124.43 197.228H124.432Z" fill="#191919"/>
<path d="M157.918 102.256C155.636 98.4122 155.876 98.6842 153.752 95.5782C153.826 95.4394 153.87 95.2868 153.882 95.1302C154.298 90.2942 151.172 87.3922 146.792 85.3422C142.74 83.4872 138.191 83.0156 133.844 84.0002C131.654 84.4694 129.587 85.3936 127.777 86.7128C125.967 88.032 124.454 89.7168 123.336 91.6582C122.751 92.6018 122.272 93.6082 121.91 94.6582C121.356 94.4042 121.154 93.5602 119.166 92.2862C112.384 87.9302 106.966 92.7142 101.48 94.5642C98.5084 95.5642 95.3204 96.6062 92.6444 94.9502C89.2242 92.4568 85.5728 90.297 81.7404 88.5002C80.3446 87.816 78.821 87.4312 77.2678 87.3702C75.7144 87.3092 74.1656 87.5736 72.7204 88.1462C69.3464 88.9822 63.5944 91.7622 62.1704 94.6462C61.5784 96.102 61.4344 97.7014 61.7568 99.2396C62.0792 100.778 62.8534 102.185 63.9804 103.28C66.6406 105.312 69.9636 106.277 73.2984 105.986C76.4718 105.324 79.7264 105.14 82.9544 105.44C86.3164 106.05 88.0544 109.018 94.8044 107.654C102.684 106.054 105.166 100.138 111.254 98.8122C114.156 98.1802 119.19 99.0962 121.054 101.15C121.079 103.225 121.788 105.234 123.072 106.865C124.355 108.496 126.141 109.657 128.152 110.168C127.974 110.488 127.864 110.678 127.864 110.678C127.762 110.94 127.763 111.231 127.868 111.492C127.973 111.753 128.173 111.964 128.429 112.083C128.684 112.201 128.974 112.217 129.241 112.128C129.508 112.039 129.731 111.852 129.864 111.604C132.31 104.734 133.822 104.182 132.728 103.292C130.442 101.436 129.954 101.162 129.928 99.8042C129.915 98.9542 130.196 98.1258 130.723 97.459C131.251 96.7924 131.993 96.3286 132.823 96.1462C133.653 95.9638 134.521 96.074 135.28 96.4582C136.038 96.8424 136.64 97.4768 136.984 98.2542C137.344 98.789 137.576 99.3994 137.662 100.038C137.714 101.08 139.396 102.164 140.104 99.2122C142.064 93.7902 148.674 91.9782 150.432 95.0122C153.302 99.1382 153.408 99.9682 157.392 105.576C157.108 105.942 156.592 105.948 156.098 106.034C155.443 106.05 154.799 106.203 154.207 106.484C153.616 106.765 153.09 107.168 152.664 107.666C150.162 111.066 150.368 115.532 148.464 117.232C145.488 119.89 137.816 112.916 135.204 109.792C135.009 109.585 134.741 109.462 134.457 109.448C134.172 109.434 133.893 109.53 133.678 109.717C133.463 109.903 133.329 110.166 133.303 110.449C133.277 110.733 133.361 111.016 133.538 111.238C134.724 112.455 136.001 113.579 137.358 114.6L135.082 117.118C134.994 117.216 134.926 117.33 134.882 117.453C134.838 117.577 134.819 117.708 134.825 117.839C134.832 117.971 134.864 118.099 134.92 118.218C134.977 118.337 135.056 118.443 135.153 118.531C135.35 118.709 135.61 118.802 135.875 118.788C136.006 118.782 136.134 118.749 136.253 118.693C136.372 118.637 136.478 118.558 136.566 118.46L138.924 115.86C152.556 126.92 152.436 111.946 154.462 108.938C155.186 107.86 158.544 108.84 159.538 106.018C159.934 104.888 158.368 103.038 157.918 102.256Z" fill="#191919"/>
<path d="M148.73 101.568C148.59 101.568 148.452 101.54 148.324 101.483C148.196 101.427 148.081 101.345 147.987 101.242C147.893 101.138 147.821 101.016 147.777 100.884C147.733 100.751 147.717 100.611 147.73 100.472L147.95 98.1536C147.983 97.8958 148.115 97.6608 148.318 97.4984C148.52 97.3362 148.779 97.2592 149.037 97.2838C149.296 97.3086 149.535 97.433 149.703 97.6308C149.872 97.8286 149.957 98.0842 149.94 98.3436L149.72 100.662C149.697 100.909 149.583 101.138 149.4 101.305C149.217 101.473 148.978 101.566 148.73 101.568Z" fill="#191919"/>
</svg>
