<svg width="318" height="343" viewBox="0 0 318 343" fill="none" xmlns="http://www.w3.org/2000/svg">
<path d="M153.172 175.535C143.134 182.374 136.124 193.74 131.322 205.004C125.453 218.735 67.91 294.518 69.3536 295.691C69.8909 296.563 70.455 297.403 71.0461 298.211L67.8223 301.782C71.5655 307.227 80.5491 313.556 86.7084 314.883C87.5143 313.392 88.4313 311.961 89.4486 310.603C90.9229 310.973 92.4181 311.255 93.9261 311.447C102.77 300.579 125.894 271.686 146.488 244.348C142.369 265.987 137.44 288.674 132.339 315.768C133.396 316.28 134.476 316.742 135.563 317.172L133.762 325.33C140.702 327.304 148.055 327.304 154.996 325.33L156.344 320.339C157.813 320.249 159.283 320.108 160.747 319.92C175.005 276.771 186 220.283 192.462 177.032L153.172 175.535ZM138.744 245.563C132.687 244.168 124.282 238.22 120.505 233.516L136.337 209.802C141.17 216.049 147.67 220.802 155.087 223.516L138.744 245.563Z" fill="#FFD600"/>
<path d="M80.9341 197.892L76.1361 200.784L81.4105 209.87C63.753 217.6 44.4963 220.972 25.2627 219.704L38.7722 243.286L90.0539 213.681L80.9341 197.892Z" fill="#FFD600"/>
<path d="M65.6211 171.111L41.8008 184.791C49.4513 184.255 56.9945 182.688 64.2259 180.134L67.0503 185.17C68.8099 184.341 70.6444 183.682 72.529 183.2L65.6211 171.111Z" fill="#FFD600"/>
<path d="M68.4456 187.479L69.2282 188.84L71.4401 187.615C70.4407 187.633 69.4396 187.588 68.4456 187.479Z" fill="#6153BD"/>
<path d="M201.839 85.3562C199.968 85.5604 197.96 88.3507 196.633 92.3662C198.066 91.6498 199.593 90.8008 201.469 89.7119C202.536 89.0669 203.76 88.7257 205.008 88.7251C204.494 86.9233 203.473 85.1538 201.839 85.3562Z" fill="#6153BD"/>
<path d="M204.051 102.849C201.397 104.176 197.926 105.877 195.918 107.034C196.456 108.6 197.276 109.61 198.3 109.791C200.301 110.143 202.554 107.206 204.051 102.849Z" fill="#6153BD"/>
<path d="M209.155 111.22C209.155 111.186 206.399 113.159 202.588 115.677L220.319 112.683L209.155 111.22Z" fill="#6153BD"/>
<path d="M178.325 113.874L181.286 118.434C181.14 117.282 181.061 116.124 181.048 114.963C181.048 114.929 179.482 114.316 178.325 113.874Z" fill="#6153BD"/>
<path d="M166.415 100.024C154.029 108.838 157.806 113.815 172.03 109.348L171.759 108.474C172.263 107.766 172.545 106.924 172.569 106.056C172.593 105.188 172.358 104.332 171.894 103.597C169.207 100.16 172.336 97.7781 173.901 100.432C174.752 101.896 175.127 101.351 175.127 100.092C174.48 99.7518 174.48 99.3757 175.058 99.0372C174.989 98.4061 174.875 97.7807 174.718 97.1656C174.928 97.4553 175.198 97.6958 175.51 97.8703C175.822 98.0448 176.169 98.149 176.525 98.1757C176.882 98.2016 177.241 98.149 177.575 98.0215C177.91 97.894 178.212 97.6948 178.461 97.4379C175.263 96.5191 175.705 95.6003 176.312 95.5322C181.049 95.294 182.797 95.903 190.103 95.328C192.028 94.5149 195.757 92.9102 197.589 91.8911C197.462 85.5349 176.72 92.5341 166.415 100.024Z" fill="#6153BD"/>
<path d="M189.249 101.079C188.636 101.487 187.995 101.896 187.343 102.304C187.173 101.556 187.207 101.998 187.479 101.113C188.058 101.079 188.634 101.079 189.249 101.079Z" fill="#6153BD"/>
<path d="M146.546 244.307L143.721 258.701L177.104 201.158C170.056 212.422 158.656 228.211 146.546 244.307Z" fill="#6153BD"/>
<path d="M177.236 338.669C171.417 333.735 162.774 327.576 155.015 325.33C148.075 327.304 140.722 327.304 133.781 325.33C132.344 329.425 131.462 333.694 131.161 338.023C131.138 338.417 131.195 338.812 131.33 339.183C131.464 339.554 131.673 339.894 131.944 340.181C132.215 340.468 132.542 340.696 132.905 340.852C133.268 341.007 133.659 341.087 134.054 341.086C147.665 341.12 159.371 341.256 176.284 341.29C176.586 341.285 176.88 341.188 177.127 341.013C177.374 340.838 177.562 340.592 177.666 340.308C177.768 340.024 177.782 339.715 177.705 339.422C177.629 339.13 177.465 338.867 177.236 338.669Z" fill="#6153BD"/>
<path d="M83.4183 330.544C83.164 325.115 84.3138 319.712 86.7531 314.857C80.5939 313.529 71.6102 307.2 67.867 301.755L65.5925 304.3C61.9531 307.442 62.211 312.646 63.857 317.163C65.7626 322.472 67.4981 331.456 69.5398 335.913C70.3546 337.562 71.6233 338.944 73.1968 339.895C74.7703 340.847 76.5829 341.33 78.4214 341.286H92.067C89.3393 334.178 87.3656 334.246 83.4183 330.544Z" fill="#6153BD"/>
<path d="M156.445 163.42L152.735 169.341L152.463 165.768L156.445 163.42Z" fill="#6153BD"/>
<path d="M54.4938 192.073L53.3708 187.241L58.203 186.118L59.3259 190.95L54.4938 192.073Z" fill="#6153BD"/>
<path d="M44.7613 193.264L44.2849 188.329L49.1851 187.853L49.6955 192.787L44.7613 193.264Z" fill="#6153BD"/>
<path d="M35.0972 193.536V188.602H40.0654V193.536H35.0972Z" fill="#6153BD"/>
<path d="M206.501 142.254C203.489 144.187 200.376 145.959 197.177 147.563C197.11 146.347 196.93 145.139 196.64 143.956L206.501 142.254Z" fill="#6153BD"/>
<path d="M171.486 59.2916L149.979 43.5308H87.0596V75.047H127.561L127.425 74.7748C139.766 67.6428 153.522 63.3097 167.723 62.0819L171.486 59.2916ZM143.037 64.7022C143.086 64.7482 143.119 64.8081 143.133 64.8739C143.146 64.9396 143.139 65.0078 143.112 65.0693C143.095 65.1105 143.07 65.1477 143.037 65.1786C143.007 65.2108 142.97 65.2364 142.929 65.2539C142.888 65.2714 142.844 65.2804 142.799 65.2804C142.755 65.2804 142.71 65.2714 142.67 65.2539C142.629 65.2364 142.592 65.2108 142.561 65.1786L136.334 58.9101L130.069 65.1445C130.023 65.1933 129.963 65.2267 129.897 65.2402C129.831 65.2537 129.763 65.2465 129.701 65.2198C129.66 65.2025 129.623 65.1768 129.592 65.1445C129.543 65.0985 129.51 65.0386 129.497 64.9729C129.483 64.9072 129.49 64.8389 129.517 64.7774C129.534 64.7362 129.56 64.699 129.592 64.6681L135.861 58.4408L129.633 52.1723C129.57 52.1092 129.535 52.0235 129.535 51.9341C129.535 51.8448 129.57 51.7591 129.633 51.6959C129.697 51.6328 129.782 51.5973 129.872 51.5973C129.961 51.5973 130.047 51.6328 130.11 51.6959L136.337 57.9644L142.606 51.7371C142.669 51.6743 142.755 51.6391 142.844 51.6391C142.933 51.6391 143.019 51.6743 143.082 51.7371C143.145 51.8005 143.18 51.8861 143.18 51.9753C143.18 52.0645 143.145 52.1501 143.082 52.2135L136.814 58.4408L143.037 64.7022Z" fill="#6153BD"/>
<path d="M68.4456 187.479L69.2282 188.84" stroke="black" stroke-width="1.8" stroke-linecap="round" stroke-linejoin="round"/>
<path d="M1 341.256H316.449" stroke="black" stroke-width="1.8" stroke-linecap="round" stroke-linejoin="round"/>
<path d="M87.0593 314.305V333.6" stroke="black" stroke-width="1.8" stroke-linecap="round" stroke-linejoin="round"/>
<path d="M87.0593 215.417V269.727" stroke="black" stroke-width="1.8" stroke-linecap="round" stroke-linejoin="round"/>
<path d="M87.0593 1V113.874" stroke="black" stroke-width="1.8" stroke-linecap="round" stroke-linejoin="round"/>
<path d="M87.0593 12.0254V43.5362H32.5788L11.0725 27.7808L32.5788 12.0254H87.0593Z" stroke="black" stroke-width="1.8" stroke-linecap="round" stroke-linejoin="round"/>
<path d="M127.554 75.047H87.0593V43.5361H149.979L171.485 59.2916L167.674 62.0819" stroke="black" stroke-width="1.8" stroke-linecap="round" stroke-linejoin="round"/>
<path d="M118.672 128.541H106.286" stroke="black" stroke-width="1.8" stroke-linecap="round" stroke-linejoin="round"/>
<path d="M101.215 143.956L112.479 109.791L123.777 143.956" stroke="black" stroke-width="1.8" stroke-linecap="round" stroke-linejoin="round"/>
<path d="M149.605 133.407L119.489 81.1382C102.6 90.8818 89.4642 106.004 82.1792 124.09C74.8943 142.176 73.8809 162.182 79.3008 180.911" stroke="black" stroke-width="1.8" stroke-linecap="round" stroke-linejoin="round"/>
<path d="M158.248 128.303L127.382 74.741C140.255 67.3242 154.647 62.9332 169.468 61.9005C184.29 60.8678 199.152 63.2204 212.929 68.7802C226.707 74.34 239.039 82.9613 248.992 93.9915C258.946 105.022 266.259 118.172 270.379 132.446C274.5 146.721 275.318 161.745 272.774 176.383C270.229 191.02 264.388 204.887 255.692 216.934C246.997 228.98 235.674 238.891 222.582 245.915C209.491 252.939 194.972 256.893 180.127 257.477" stroke="black" stroke-width="1.8" stroke-linecap="round" stroke-linejoin="round"/>
<path d="M141.37 251.147C142.561 251.589 143.752 252.032 144.977 252.44" stroke="black" stroke-width="1.8" stroke-linecap="round" stroke-linejoin="round"/>
<path d="M96.3152 195.578L86.9572 201.055C85.9364 199.387 85.46 198.536 85.46 198.536" stroke="black" stroke-width="1.8" stroke-linecap="round" stroke-linejoin="round"/>
<path d="M112.581 233.997C104.286 226.9 97.2452 218.456 91.7554 209.019L153.008 173.255" stroke="black" stroke-width="1.8" stroke-linecap="round" stroke-linejoin="round"/>
<path d="M204.051 102.849C201.397 104.176 197.915 105.859 195.918 107.034C195.406 107.335 194.969 107.582 194.693 107.783C189.44 111.603 190.574 109.176 191.699 107.136C192.207 106.216 194.299 104.081 195.17 102.44C195.417 101.772 195.429 101.04 195.204 100.364C192.013 100.952 188.776 101.248 185.532 101.249C183.324 101.432 181.102 101.375 178.905 101.079C172.995 100.279 173.532 98.8081 179.008 98.1186C182.81 97.6293 186.544 96.7044 190.135 95.3622C194.068 93.7987 197.869 91.921 201.501 89.7474C202.56 89.106 203.774 88.7643 205.013 88.7588" stroke="black" stroke-width="1.8" stroke-linecap="round" stroke-linejoin="round"/>
<path d="M196.633 92.3681C197.96 88.3527 199.969 85.5766 201.839 85.3581C203.474 85.1665 204.495 86.9235 205.004 88.727C205.964 93.4343 205.635 98.3133 204.051 102.849C202.591 107.217 200.301 110.144 198.3 109.791C197.276 109.612 196.463 108.6 195.918 107.035" stroke="black" stroke-width="1.8" stroke-linecap="round" stroke-linejoin="round"/>
<path d="M175.126 100.127C175.126 101.38 174.757 101.893 173.901 100.433C172.345 97.7732 169.205 100.161 171.894 103.598C172.352 104.334 172.584 105.189 172.56 106.056C172.536 106.923 172.258 107.764 171.759 108.474" stroke="black" stroke-width="1.8" stroke-linecap="round" stroke-linejoin="round"/>
<path d="M178.461 97.4382C178.085 97.8248 177.592 98.0767 177.059 98.155C176.525 98.2334 175.981 98.1338 175.51 97.8717C175.198 97.6969 174.927 97.456 174.718 97.166C174.876 97.8054 174.99 98.4555 175.06 99.1092" stroke="black" stroke-width="1.8" stroke-linecap="round" stroke-linejoin="round"/>
<path d="M184.552 91.1426C184.552 91.1766 184.552 91.1766 184.587 91.2106C185.029 92.776 185.437 94.2392 185.812 95.6344" stroke="black" stroke-width="1.8" stroke-linecap="round" stroke-linejoin="round"/>
<path d="M181.082 114.929C181.082 114.929 179.482 114.317 178.325 113.84L181.286 118.434" stroke="black" stroke-width="1.8" stroke-linecap="round" stroke-linejoin="round"/>
<path d="M202.445 115.703L220.317 112.683L209.155 111.186" stroke="black" stroke-width="1.8" stroke-linecap="round" stroke-linejoin="round"/>
<path d="M195.204 100.364C195.986 100.228 196.871 99.9561 197.858 99.752" stroke="black" stroke-width="1.8" stroke-linecap="round" stroke-linejoin="round"/>
<path d="M179.89 97.9827L178.801 97.5403C175.228 96.6215 175.578 95.6007 176.249 95.5702C177.61 95.5022 181.592 95.7744 185.742 95.6383L190.097 95.332" stroke="black" stroke-width="1.8" stroke-linecap="round" stroke-linejoin="round"/>
<path d="M214.021 87.3262C215.339 91.3359 215.696 95.5992 215.064 99.7723C214.431 103.945 212.827 107.911 210.38 111.351" stroke="black" stroke-width="1.8" stroke-linecap="round" stroke-linejoin="round"/>
<path d="M172.01 109.356C159.523 113.263 155.434 109.88 162.142 103.474C167.556 98.305 177.96 93.0216 185.013 90.9978C189.981 89.4683 195.759 88.7071 197.227 90.756" stroke="black" stroke-width="1.8" stroke-linecap="round" stroke-linejoin="round"/>
<path d="M189.248 101.079C188.636 101.487 187.995 101.896 187.343 102.304" stroke="black" stroke-width="1.8" stroke-linecap="round" stroke-linejoin="round"/>
<path d="M166.449 100.024C166.078 98.2482 166.158 96.4074 166.68 94.6698C167.203 92.9322 168.153 91.3532 169.442 90.0765C170.732 88.7999 172.32 87.8663 174.063 87.3609C175.806 86.8555 177.647 86.7943 179.419 87.183C181.792 87.7024 183.922 89.0005 185.471 90.8707" stroke="black" stroke-width="1.8" stroke-linecap="round" stroke-linejoin="round"/>
<path d="M170.158 122.654V132.795L179.856 124.968L189.248 130.991L185.846 121.463" stroke="black" stroke-width="1.8" stroke-linecap="round" stroke-linejoin="round"/>
<path d="M185.845 121.463C186.025 121.432 197.263 118.316 199.677 117.236C202.97 115.435 206.136 113.414 209.155 111.186L197.994 109.723" stroke="black" stroke-width="1.8" stroke-linecap="round" stroke-linejoin="round"/>
<path d="M177.1 201.159L143.718 258.702" stroke="black" stroke-width="1.8" stroke-linecap="round" stroke-linejoin="round"/>
<path d="M156.376 320.294L154.981 325.33" stroke="black" stroke-width="1.8" stroke-linecap="round" stroke-linejoin="round"/>
<path d="M133.781 325.33L135.583 317.172" stroke="black" stroke-width="1.8" stroke-linecap="round" stroke-linejoin="round"/>
<path d="M176.276 341.29C159.364 341.274 147.658 341.111 134.046 341.086C133.651 341.088 133.26 341.009 132.897 340.853C132.534 340.698 132.207 340.469 131.936 340.182C131.666 339.894 131.458 339.554 131.323 339.183C131.189 338.812 131.131 338.417 131.154 338.023C131.454 333.694 132.335 329.425 133.774 325.331C140.714 327.304 148.068 327.304 155.008 325.331C162.767 327.576 171.398 333.748 177.229 338.67C177.458 338.868 177.621 339.13 177.698 339.423C177.775 339.715 177.761 340.024 177.659 340.309C177.555 340.593 177.367 340.839 177.12 341.014C176.873 341.189 176.579 341.286 176.276 341.29Z" stroke="black" stroke-width="1.8" stroke-linecap="round" stroke-linejoin="round"/>
<path d="M89.4754 310.596C88.237 312.163 87.1885 313.872 86.3519 315.686C84.1872 320.338 83.1807 325.445 83.4183 330.571C87.3585 334.28 89.3393 334.178 92.0617 341.29H78.416C76.5781 341.331 74.7667 340.847 73.1938 339.895C71.6209 338.944 70.3516 337.564 69.5345 335.917C67.507 331.452 65.7608 322.474 63.8516 317.167C62.3579 313.014 61.8099 307.496 65.5871 304.304L71.0819 298.234" stroke="black" stroke-width="1.8" stroke-linecap="round" stroke-linejoin="round"/>
<path d="M86.7262 314.883C80.5669 313.556 71.5833 307.227 67.8401 301.782" stroke="black" stroke-width="1.8" stroke-linecap="round" stroke-linejoin="round"/>
<path d="M83.4183 330.571C80.7318 328.734 71.6443 330.571 71.6443 330.571" stroke="black" stroke-width="1.8" stroke-linecap="round" stroke-linejoin="round"/>
<path d="M163.56 184.519C159.851 190.746 154.068 193.753 146.205 193.536" stroke="black" stroke-width="1.8" stroke-linecap="round" stroke-linejoin="round"/>
<path d="M120.51 233.52C124.287 238.216 132.689 244.171 138.749 245.566L155.083 223.55C147.666 220.835 141.168 216.079 136.337 209.831L120.51 233.52Z" stroke="black" stroke-width="1.8" stroke-linecap="round" stroke-linejoin="round"/>
<path d="M136.333 209.836L138.375 227.905L155.083 223.55" stroke="black" stroke-width="1.8" stroke-linecap="round" stroke-linejoin="round"/>
<path d="M177.44 258.188C178.47 258.264 179.492 257.964 180.318 257.345C181.143 256.726 181.717 255.828 181.932 254.819L187.105 228.923C187.188 228.497 187.177 228.057 187.073 227.636C186.968 227.214 186.772 226.821 186.499 226.484C186.226 226.146 185.882 225.873 185.491 225.683C185.101 225.493 184.673 225.391 184.239 225.384" stroke="black" stroke-width="1.8" stroke-linecap="round" stroke-linejoin="round"/>
<path d="M222.971 193.672C222.971 193.672 242.266 196.219 242.266 183.503C242.266 172.308 222.971 172.41 222.971 172.41C222.971 172.41 236.583 172.947 236.583 165.91C236.583 158.934 222.971 159.513 222.971 159.513V193.672Z" stroke="black" stroke-width="1.8" stroke-linecap="round" stroke-linejoin="round"/>
<path d="M258.191 260.874C258.199 262.146 257.828 263.392 257.126 264.453C256.603 265.247 255.909 265.916 255.096 266.41C254.283 266.905 253.371 267.212 252.424 267.311C251.478 267.409 250.521 267.296 249.624 266.979C248.727 266.663 247.911 266.151 247.236 265.481C246.33 264.586 245.711 263.443 245.455 262.197C245.2 260.95 245.32 259.655 245.801 258.477C246.282 257.299 247.101 256.29 248.156 255.578C249.211 254.866 250.453 254.482 251.726 254.477C252.571 254.471 253.409 254.632 254.191 254.95C254.974 255.269 255.686 255.739 256.287 256.333C256.887 256.928 257.365 257.635 257.692 258.414C258.018 259.193 258.188 260.029 258.191 260.874Z" stroke="black" stroke-width="1.8" stroke-linecap="round" stroke-linejoin="round"/>
<path d="M274.933 277.145C274.941 278.417 274.57 279.663 273.868 280.724C273.343 281.516 272.649 282.183 271.836 282.676C271.023 283.169 270.111 283.475 269.166 283.573C268.22 283.672 267.264 283.559 266.367 283.244C265.47 282.929 264.654 282.42 263.978 281.752C263.072 280.857 262.453 279.715 262.197 278.468C261.942 277.221 262.062 275.927 262.543 274.748C263.024 273.57 263.844 272.561 264.898 271.849C265.953 271.137 267.195 270.753 268.468 270.748C269.313 270.74 270.152 270.9 270.935 271.219C271.718 271.537 272.43 272.008 273.03 272.603C273.63 273.198 274.107 273.905 274.434 274.685C274.76 275.464 274.93 276.3 274.933 277.145Z" stroke="black" stroke-width="1.8" stroke-linecap="round" stroke-linejoin="round"/>
<path d="M245.464 283.747L274.797 254.074" stroke="black" stroke-width="1.8" stroke-linecap="round" stroke-linejoin="round"/>
<path d="M43.23 24.7183L48.9809 32.7831L55.6846 21.0771" stroke="black" stroke-width="1.8" stroke-linecap="round" stroke-linejoin="round"/>
<path d="M246.621 41.1544L239.339 40.0995L236.072 33.4639L232.805 40.0995L225.489 41.1544L230.764 46.3268L229.539 53.575L236.072 50.1381L242.606 53.575L241.347 46.3268L246.621 41.1544Z" stroke="black" stroke-width="1.8" stroke-linecap="round" stroke-linejoin="round"/>
<path d="M45.4597 138.75V149.128" stroke="black" stroke-width="1.8" stroke-linecap="round" stroke-linejoin="round"/>
<path d="M50.6484 143.94H40.2695" stroke="black" stroke-width="1.8" stroke-linecap="round" stroke-linejoin="round"/>
<path d="M94.2734 193.468C90.4734 196.022 86.4263 198.188 82.1931 199.933" stroke="black" stroke-width="1.8" stroke-linecap="round" stroke-linejoin="round"/>
<path d="M54.4936 192.073L53.3706 187.241L58.2027 186.118L59.3257 190.95L54.4936 192.073Z" stroke="black" stroke-width="1.8" stroke-linecap="round" stroke-linejoin="round"/>
<path d="M44.7613 193.264L44.2849 188.329L49.1851 187.853L49.6955 192.787L44.7613 193.264Z" stroke="black" stroke-width="1.8" stroke-linecap="round" stroke-linejoin="round"/>
<path d="M35.0972 193.536V188.602H40.0654V193.536H35.0972Z" stroke="black" stroke-width="1.8" stroke-linecap="round" stroke-linejoin="round"/>
<path d="M80.9682 197.892L90.0539 213.681L38.8062 243.286L25.2627 219.704" stroke="black" stroke-width="1.8" stroke-linecap="round" stroke-linejoin="round"/>
<path d="M71.44 187.615L67.0503 190.031L74.1283 202.009L80.9682 197.892L74.877 187.309" stroke="black" stroke-width="1.8" stroke-linecap="round" stroke-linejoin="round"/>
<path d="M67.0503 185.165L64.1847 180.128C47.906 185.725 30.3728 186.585 13.6248 182.607C13.7073 195.033 15.6574 207.376 19.4097 219.222C40.5396 221.59 61.9206 218.363 81.4105 209.864L76.1701 200.779" stroke="black" stroke-width="1.8" stroke-linecap="round" stroke-linejoin="round"/>
<path d="M41.7668 184.791L65.5871 171.111L72.5291 183.191" stroke="black" stroke-width="1.8" stroke-linecap="round" stroke-linejoin="round"/>
<path d="M306.303 170.429C306.441 171.203 306.345 172.001 306.028 172.72C305.711 173.44 305.187 174.049 304.523 174.469C303.859 174.89 303.086 175.106 302.301 175.088C301.516 175.071 300.753 174.821 300.11 174.371C299.628 174.034 299.227 173.594 298.936 173.083C298.645 172.573 298.471 172.003 298.427 171.417C298.383 170.831 298.47 170.242 298.681 169.694C298.893 169.145 299.223 168.651 299.649 168.246C300.169 167.748 300.814 167.402 301.515 167.242C302.216 167.083 302.947 167.118 303.631 167.342C304.314 167.566 304.924 167.972 305.394 168.515C305.865 169.059 306.179 169.72 306.303 170.429Z" stroke="black" stroke-width="1.8" stroke-linecap="round" stroke-linejoin="round"/>
<path d="M86.8552 188.363C84.6433 189.044 78.5181 190.779 75.8979 187.172C75.8979 187.172 68.5548 188.397 66.4718 186.73C64.3889 185.063 72.4287 183.367 75.4268 182.34C78.9012 181.105 82.3291 179.743 85.7036 178.257" stroke="black" stroke-width="1.8" stroke-linecap="round" stroke-linejoin="round"/>
<path d="M197.177 147.563C197.11 146.347 196.93 145.139 196.64 143.956L206.508 142.254" stroke="black" stroke-width="1.8" stroke-linecap="round" stroke-linejoin="round"/>
<path d="M153.172 175.535C143.134 182.374 136.131 193.744 131.322 205.004C129.42 209.463 121.83 220.793 112.572 233.996C104.439 245.6 95.0204 258.635 87.0505 269.727C76.7092 284.125 68.8109 295.249 69.3554 295.696C71.9411 300.055 75.5087 303.749 79.7741 306.485C84.0395 309.222 88.8849 310.924 93.9243 311.457C108.046 294.102 158.579 230.809 177.091 201.203" stroke="black" stroke-width="1.8" stroke-linecap="round" stroke-linejoin="round"/>
<path d="M166.823 218.854L143.718 319.511" stroke="black" stroke-width="1.8" stroke-linecap="round" stroke-linejoin="round"/>
<path d="M192.515 176.998C186.05 220.249 175.058 276.737 160.8 319.886C151.129 321.345 141.242 319.913 132.386 315.767C137.449 288.851 138.275 286.441 146.535 244.306" stroke="black" stroke-width="1.8" stroke-linecap="round" stroke-linejoin="round"/>
<path d="M202.581 85.4043L234.102 90.326C246.046 92.1635 249.211 104.409 239.955 114.657C229.481 126.253 210.961 140.753 197.181 147.563C197.691 158.146 194.867 167.572 192.524 177.032L153.172 175.535C152.635 168.077 152.801 170.278 152.456 165.768L98.3336 197.473C91.5651 191.359 86.7751 183.365 84.5769 174.514C84.5769 174.514 140.859 138.783 151.476 132.28C157.416 128.541 163.666 125.319 170.158 122.65" stroke="black" stroke-width="1.8" stroke-linecap="round" stroke-linejoin="round"/>
<path d="M123.64 236.821L75.8638 303.484" stroke="black" stroke-width="1.8" stroke-linecap="round" stroke-linejoin="round"/>
<path d="M156.444 191.426L140.042 213.919" stroke="black" stroke-width="1.8" stroke-linecap="round" stroke-linejoin="round"/>
<path d="M93.9331 168.593C96.0861 177.627 101.056 185.742 108.123 191.767" stroke="black" stroke-width="1.8" stroke-linecap="round" stroke-linejoin="round"/>
<path d="M167.575 99.2471C168.976 101.654 170.181 104.17 171.181 106.769C172.781 110.534 173.207 114.694 172.404 118.704C172.141 120.233 171.36 121.624 170.192 122.645C175.603 126.456 181.456 126.014 185.845 121.454C183.191 121.828 181.667 121.486 181.286 118.425C181.144 117.262 181.076 116.092 181.081 114.92C181.979 115.175 182.905 115.312 183.838 115.328C188.023 115.328 189.18 111.653 187.343 102.295L187.11 101.135" stroke="black" stroke-width="1.8" stroke-linecap="round" stroke-linejoin="round"/>
<path d="M152.463 165.768L156.445 163.42L152.735 169.341" stroke="black" stroke-width="1.8" stroke-linecap="round" stroke-linejoin="round"/>
<path d="M130.273 51.5582C130.145 51.4396 129.977 51.375 129.803 51.378C129.629 51.3811 129.463 51.4516 129.34 51.5746C129.217 51.6977 129.146 51.8637 129.143 52.0377C129.14 52.2117 129.205 52.3801 129.323 52.5074L130.273 51.5582ZM142.398 65.5817C142.459 65.6477 142.533 65.7006 142.616 65.7373C142.698 65.774 142.787 65.7938 142.877 65.7954C142.967 65.797 143.057 65.7804 143.141 65.7466C143.224 65.7128 143.3 65.6625 143.364 65.5988C143.428 65.535 143.478 65.459 143.512 65.3754C143.546 65.2918 143.562 65.2022 143.56 65.112C143.559 65.0218 143.539 64.9329 143.502 64.8505C143.466 64.7681 143.413 64.694 143.347 64.6325L142.398 65.5817ZM129.323 52.5074L142.398 65.5817L143.347 64.6325L130.273 51.5582L129.323 52.5074Z" fill="#120071"/>
<path d="M143.347 52.5074C143.465 52.3801 143.53 52.2117 143.527 52.0377C143.524 51.8637 143.453 51.6977 143.33 51.5746C143.207 51.4516 143.041 51.3811 142.867 51.378C142.693 51.375 142.525 51.4396 142.398 51.5582L143.347 52.5074ZM129.323 64.6325C129.205 64.7598 129.14 64.9282 129.143 65.1022C129.146 65.2762 129.217 65.4422 129.34 65.5653C129.463 65.6883 129.629 65.7588 129.803 65.7619C129.977 65.7649 130.145 65.7004 130.273 65.5817L129.323 64.6325ZM142.398 51.5582L129.323 64.6325L130.273 65.5817L143.347 52.5074L142.398 51.5582Z" fill="#120071"/>
</svg>
