<svg width="32" height="32" viewBox="0 0 32 32" fill="none" xmlns="http://www.w3.org/2000/svg">
<circle cx="16" cy="16" r="16" fill="#100C33"/>
<path d="M11.8 6H20.2C23.4 6 26 8.6 26 11.8V20.2C26 21.7383 25.3889 23.2135 24.3012 24.3012C23.2135 25.3889 21.7383 26 20.2 26H11.8C8.6 26 6 23.4 6 20.2V11.8C6 10.2617 6.61107 8.78649 7.69878 7.69878C8.78649 6.61107 10.2617 6 11.8 6ZM11.6 8C10.6452 8 9.72955 8.37928 9.05442 9.05442C8.37928 9.72955 8 10.6452 8 11.6V20.4C8 22.39 9.61 24 11.6 24H20.4C21.3548 24 22.2705 23.6207 22.9456 22.9456C23.6207 22.2705 24 21.3548 24 20.4V11.6C24 9.61 22.39 8 20.4 8H11.6ZM21.25 9.5C21.5815 9.5 21.8995 9.6317 22.1339 9.86612C22.3683 10.1005 22.5 10.4185 22.5 10.75C22.5 11.0815 22.3683 11.3995 22.1339 11.6339C21.8995 11.8683 21.5815 12 21.25 12C20.9185 12 20.6005 11.8683 20.3661 11.6339C20.1317 11.3995 20 11.0815 20 10.75C20 10.4185 20.1317 10.1005 20.3661 9.86612C20.6005 9.6317 20.9185 9.5 21.25 9.5ZM16 11C17.3261 11 18.5979 11.5268 19.5355 12.4645C20.4732 13.4021 21 14.6739 21 16C21 17.3261 20.4732 18.5979 19.5355 19.5355C18.5979 20.4732 17.3261 21 16 21C14.6739 21 13.4021 20.4732 12.4645 19.5355C11.5268 18.5979 11 17.3261 11 16C11 14.6739 11.5268 13.4021 12.4645 12.4645C13.4021 11.5268 14.6739 11 16 11ZM16 13C15.2044 13 14.4413 13.3161 13.8787 13.8787C13.3161 14.4413 13 15.2044 13 16C13 16.7956 13.3161 17.5587 13.8787 18.1213C14.4413 18.6839 15.2044 19 16 19C16.7956 19 17.5587 18.6839 18.1213 18.1213C18.6839 17.5587 19 16.7956 19 16C19 15.2044 18.6839 14.4413 18.1213 13.8787C17.5587 13.3161 16.7956 13 16 13Z" fill="#A7BED3"/>
</svg>
