<svg width="52" height="52" viewBox="0 0 52 52" fill="none" xmlns="http://www.w3.org/2000/svg">
<path d="M49.1111 42.0274C48.5088 40.6364 47.8169 39.1269 46.2222 39.1269H44.7778C46.3724 39.1269 47.6667 37.8284 47.6667 36.2265V11.5669C47.6674 11.1868 47.5933 10.8103 47.4485 10.4588C47.3038 10.1073 47.0912 9.78775 46.8229 9.51842C46.5547 9.24908 46.236 9.03523 45.8851 8.88906C45.5342 8.74289 45.1579 8.66726 44.7778 8.6665H7.22222C5.62756 8.6665 4.33333 9.96506 4.33333 11.5669V36.2265C4.33333 37.8284 5.62756 39.1269 7.22222 39.1269H5.77778C4.18311 39.1269 3.36989 40.5772 2.88889 42.0274L0 49.0979C0 50.7013 1.29422 51.9998 2.88889 51.9998H49.1111C50.7058 51.9998 52 50.7013 52 49.0994L49.1111 42.0274Z" fill="#CCD6DD"/>
<path d="M0.0114746 49.2192L0.0201413 49.3016L0.265697 50.3011C0.493687 50.8062 0.862281 51.235 1.32744 51.5362C1.79259 51.8375 2.33464 51.9984 2.88881 51.9998H49.111C49.8568 51.9973 50.5727 51.7066 51.109 51.1883C51.6453 50.6701 51.9604 49.9645 51.9884 49.2192H0.0114746Z" fill="#9AAAB4"/>
<path d="M44.7777 34.7748C44.7777 35.5765 44.1321 36.225 43.3333 36.225H8.66661C7.86928 36.225 7.22217 35.5765 7.22217 34.7748V13.0186C7.22217 12.2169 7.86928 11.5684 8.66661 11.5684H43.3333C44.1321 11.5684 44.7777 12.2184 44.7777 13.0186V34.7748Z" fill="#5DADEC"/>
<path d="M47.5308 44.8385L46.433 41.6968C46.0878 41.0323 45.5158 40.4878 44.717 40.4878H7.38102C6.58369 40.4878 6.07236 41.0771 5.71125 41.9842L4.71747 44.8399C4.40113 45.7008 5.36458 46.2901 6.16191 46.2901H17.1079C17.1079 46.2901 18.4614 46.2222 18.7011 45.4119C18.9785 44.4759 19.3006 43.0661 19.3699 42.8177C19.4768 42.4363 19.9304 42.0507 20.6064 42.0507H32.9968C33.719 42.0507 34.0744 42.4161 34.1682 42.8682C34.2289 43.1629 34.6189 44.5163 34.8009 45.4422C34.9612 46.267 36.5646 46.2887 36.5646 46.2887H46.0892C46.8851 46.2887 47.8471 45.6083 47.5308 44.8385Z" fill="#AEBBC1"/>
<path d="M32.3194 47.8296H21.0801C20.5385 47.8296 20.303 47.3342 20.381 46.8546C20.459 46.3765 20.8996 44.2648 20.9342 44.0192C20.9675 43.7722 21.33 43.4775 21.6911 43.4775H31.8239C32.2529 43.4775 32.5317 43.713 32.6184 44.1839C32.7036 44.6562 33.0546 46.5542 33.082 46.9875C33.1095 47.4223 32.8379 47.8296 32.3194 47.8296Z" fill="#9AAAB4"/>
</svg>
