<svg width="48" height="48" viewBox="0 0 48 48" fill="none" xmlns="http://www.w3.org/2000/svg">
<g clip-path="url(#clip0_608_4175)">
<path d="M41.2502 26.3242L46.8752 31.8742L21.9002 43.7992C21.9002 43.7992 18.6002 45.2992 17.0252 42.8992C10.8752 33.2992 41.2502 26.3242 41.2502 26.3242Z" fill="#962C2C"/>
<path d="M21.2995 36.8246C21.2995 36.8246 16.4995 38.4746 17.3995 41.6996C18.2995 44.9996 22.1245 42.9746 22.1245 42.9746L45.8245 31.9496C45.8245 31.9496 44.4745 28.4246 46.8745 26.0996L21.2995 36.8246Z" fill="#D9E3E8"/>
<path d="M25.2754 3.75L48.0004 25.875L21.1504 36.375L3.90039 9.525L25.2754 3.75Z" fill="#FFCE31"/>
<path d="M25.9502 8.77539L30.3002 13.4254L14.0252 19.2754L10.2002 13.3504L25.9502 8.77539Z" fill="white"/>
<path d="M45.7504 28.4992L29.9254 34.9492L45.5254 27.8242L45.7504 28.4992ZM45.5254 30.4492L28.6504 37.4242L45.2254 29.6992L45.5254 30.4492ZM45.6754 31.4992L24.1504 40.8742L45.3754 30.8242L45.6754 31.4992Z" fill="#94989B"/>
<path d="M17.025 42.9005C14.4 37.4255 21.15 36.4505 21.15 36.4505L3.9 9.52549C3.9 9.52549 0 9.45049 0 13.5005C0 15.1505 0.75 16.4255 0.75 16.4255L17.025 42.9005Z" fill="#FF8736"/>
</g>
<defs>
<clipPath id="clip0_608_4175">
<rect width="48" height="48" fill="white"/>
</clipPath>
</defs>
</svg>
