<svg width="24" height="24" viewBox="0 0 24 24" fill="none" xmlns="http://www.w3.org/2000/svg">
<path d="M12 12C12.55 12 13.021 11.804 13.413 11.412C13.805 11.02 14.0007 10.5493 14 10C14 9.45 13.804 8.979 13.412 8.587C13.02 8.195 12.5493 7.99933 12 8C11.45 8 10.979 8.196 10.587 8.588C10.195 8.98 9.99933 9.45067 10 10C10 10.55 10.196 11.021 10.588 11.413C10.98 11.805 11.4507 12.0007 12 12ZM12 22C9.31667 19.7167 7.31267 17.596 5.988 15.638C4.66333 13.68 4.00067 11.8673 4 10.2C4 7.7 4.80433 5.70833 6.413 4.225C8.02167 2.74167 9.884 2 12 2C14.1167 2 15.9793 2.74167 17.588 4.225C19.1967 5.70833 20.0007 7.7 20 10.2C20 11.8667 19.3373 13.6793 18.012 15.638C16.6867 17.5967 14.6827 19.7173 12 22Z" fill="#1D2130"/>
</svg>
