<svg width="187" height="78" viewBox="0 0 187 78" fill="none" xmlns="http://www.w3.org/2000/svg">
<path d="M27.4071 0.0967831L29.0141 2.90349C31.1909 6.77482 33.5728 10.5373 35.8521 14.3481C38.1315 18.1589 40.4906 21.9214 42.6902 25.7564C44.0464 28.1034 45.4824 30.402 46.8159 32.7611C49.0952 36.826 51.3746 40.8788 53.3348 45.1251C54.2074 47.1547 54.6731 49.3546 54.7024 51.5854C54.797 54.8706 54.2094 58.1376 52.9815 61.1548C51.6781 64.38 49.7344 67.2686 47.2831 69.6233C43.0879 73.6947 37.8251 76.3149 32.1938 77.1361C28.1794 77.7785 24.0848 77.5688 20.1474 76.5191C16.0055 75.4618 12.1412 73.4273 8.84175 70.567C6.199 68.3099 4.05532 65.4644 2.56212 62.2315C0.86421 58.5453 0.135756 54.4407 0.453713 50.3514C0.829283 46.8512 1.89731 43.4747 3.58783 40.4432C5.37713 36.9348 7.30318 33.4869 9.28622 30.0874C11.6871 26.0548 14.1109 22.0222 16.5574 17.9896C17.3438 16.6951 18.2099 15.4369 18.9621 14.1303C20.854 10.9002 22.9396 7.76684 24.7745 4.45202C25.595 3.00028 26.4612 1.57273 27.3729 0M27.7376 75.7328C30.2314 75.7797 32.7186 75.4456 35.1227 74.7407C38.447 73.8117 41.5677 72.2006 44.3086 69.9984C46.1841 68.5112 47.8265 66.7188 49.175 64.6874C51.2771 61.5153 52.5332 57.7995 52.8106 53.9324C53.0688 51.6164 52.8351 49.2684 52.1268 47.0608C51.2395 44.8184 50.2076 42.6437 49.0382 40.5521C47.0248 36.7534 44.9126 32.995 42.7016 29.2769C40.4223 25.3814 38.0175 21.51 35.6698 17.6266C33.1321 13.3843 30.5868 9.15407 28.0339 4.93594C27.8402 4.63349 27.7148 4.17377 27.3159 4.17377C26.9171 4.17377 26.9626 4.69398 26.7575 4.94804C24.2274 9.23069 21.4922 13.4166 18.7798 17.6145C15.8166 22.3206 12.8078 27.0025 10.0384 31.8174C7.94587 35.3291 6.04333 38.9643 4.34002 42.7055C3.19008 45.1841 2.47926 47.8661 2.24301 50.6176C1.90152 55.4425 3.13719 60.2449 5.74182 64.2156C8.28858 68.1809 11.8463 71.2945 15.9989 73.1922C19.6823 74.9647 23.6946 75.8331 27.7376 75.7328Z" fill="white"/>
<path d="M27.4526 55.856C27.4526 53.6663 27.4526 51.4766 27.4526 49.2748C27.5141 47.3013 27.8799 45.3519 28.5353 43.5041C28.993 41.9578 29.3734 40.3869 29.675 38.798C29.7434 38.5548 29.7521 38.2971 29.7002 38.0494C29.6484 37.8016 29.5377 37.5721 29.3787 37.3825C29.0368 37.0075 29.1393 36.5357 29.1393 36.0881C29.1393 35.6404 29.3901 35.7372 29.6294 35.7251C31.3731 35.7251 33.1168 35.6525 34.8605 35.7251C35.3392 35.7251 35.5671 36.5478 35.2024 37.0801C34.972 37.47 34.8322 37.9125 34.7945 38.371C34.7569 38.8296 34.8225 39.2911 34.9859 39.7174C35.8976 43.8428 37.2652 47.8472 36.9575 52.2146C36.7068 55.8439 36.8664 59.6064 36.8094 63.2962C36.8094 64.0342 37.0259 64.2277 37.6983 64.2519C40.7755 64.3487 43.8526 64.5302 46.9411 64.5302C47.1121 64.5302 47.3286 64.4455 47.4084 64.6875C47.4882 64.9294 47.3172 65.0383 47.2032 65.1835C46.3861 66.2644 45.4824 67.2683 44.5022 68.1838C42.054 70.5322 39.1859 72.3342 36.0686 73.4826C33.0032 74.6165 29.76 75.1095 26.5181 74.9344C22.9843 74.8176 19.5146 73.902 16.3407 72.2486C13.8076 70.9048 11.4979 69.1314 9.50267 66.9982C8.77327 66.2239 8.13505 65.3649 7.46264 64.5786C7.31448 64.3729 7.13213 64.1552 7.28029 63.8648C7.42845 63.5745 7.67918 63.6954 7.89572 63.7075H11.9758C12.2607 63.7075 12.5798 63.7922 12.6824 63.3446C12.7849 62.897 13.2066 62.6308 12.6824 62.2316C12.4544 62.0501 12.3633 61.784 12.6824 61.5783C12.938 61.345 13.1315 61.0446 13.2435 60.707C13.3555 60.3695 13.3821 60.0066 13.3206 59.6547C13.3206 59.074 13.5599 58.8079 14.107 58.8684C14.654 58.9289 14.8819 58.6143 15.2466 58.2998C15.8165 57.8159 16.2838 57.09 17.1727 57.09C17.5944 57.09 17.7539 56.7271 17.6856 56.3278C17.5602 55.4931 17.9021 54.5978 17.4006 53.8236C17.3696 53.7421 17.3696 53.651 17.4006 53.5695C17.9705 53.4001 18.0958 52.8073 18.4264 52.4202C18.5242 52.2564 18.6647 52.1261 18.8309 52.0453C18.997 51.9644 19.1816 51.9363 19.3625 51.9645C19.5433 51.9926 19.7126 52.0758 19.8498 52.2039C19.9871 52.332 20.0864 52.4996 20.1359 52.6864C20.2657 53.0421 20.5184 53.3319 20.8425 53.4969C20.9792 53.5695 21.1958 53.7147 21.0362 53.8599C20.455 54.4043 20.7285 55.0697 20.6829 55.735C20.6373 56.4004 20.6259 57.1142 21.6516 57.332C22.2803 57.5164 22.8186 57.9493 23.156 58.5417C23.2365 58.7156 23.3674 58.8576 23.5294 58.9468C23.6914 59.0361 23.8761 59.068 24.0564 59.0378C24.6034 58.9652 24.7858 59.2434 24.7516 59.7878C24.7327 60.074 24.7673 60.3614 24.8533 60.6334C24.9394 60.9053 25.0752 61.1566 25.253 61.3726C25.3351 61.4523 25.3977 61.5519 25.4354 61.663C25.4354 62.534 25.971 62.7397 26.7004 62.6308C26.9625 62.6308 27.0879 62.7276 27.0309 63.018C27.0082 63.1091 27.0082 63.205 27.0309 63.2962C27.0993 63.5624 27.0309 64.01 27.3614 63.9858C27.6919 63.9616 27.5666 63.5261 27.5666 63.272C27.5666 60.8524 27.5666 58.3966 27.5666 55.9044L27.4526 55.856ZM27.9655 63.7317C27.9655 63.3809 27.9655 63.0301 27.9655 62.6671C27.9655 58.4813 27.9655 54.2833 27.8515 50.0853C27.8612 48.2734 28.1499 46.4753 28.7063 44.7622C28.7773 44.2996 28.9321 43.8559 29.1621 43.4557C29.4812 43.0806 29.9941 43.4557 30.4386 43.4557C31.3526 43.3247 32.2557 43.1184 33.1396 42.8387C34.8263 42.5241 34.9175 42.5604 35.4987 44.2057C35.4987 44.2057 35.4987 44.2057 35.4987 44.2783C36.0171 45.6994 36.3247 47.1971 36.4105 48.7183C36.4105 53.388 36.4105 58.0578 36.3193 62.7276C36.2562 63.1817 36.2913 63.645 36.4219 64.0826C36.4864 63.9872 36.5222 63.8733 36.5245 63.7559C36.57 58.8603 36.6118 53.9526 36.6498 49.0328C36.6441 48.6769 36.6212 48.3216 36.5814 47.9682C36.3649 45.5486 35.3278 43.4315 34.9289 41.0966C34.6031 40.0113 34.483 38.8682 34.5756 37.7334C34.6782 37.189 34.5756 37.0559 34.0627 37.068C32.8433 37.068 31.6124 37.068 30.393 37.068C29.8687 37.068 29.732 37.1648 29.8915 37.7455C30.0223 38.281 30.0223 38.8431 29.8915 39.3787C29.5952 40.5885 29.2989 41.9072 28.9342 43.1411C28.0641 45.6231 27.6577 48.2611 27.7375 50.908C27.7945 51.6943 27.7375 52.4807 27.7375 53.2671C27.7375 56.7634 27.6805 60.2596 27.9883 63.7801M19.68 60.5863C19.68 59.9209 19.3153 59.3765 18.905 59.4612C18.4947 59.5459 18.1984 60.0056 18.1984 60.5137C18.1984 61.0218 18.4377 61.4936 18.9734 61.4815C19.509 61.4694 19.6572 61.0097 19.68 60.5863ZM19.4407 55.6262C19.1785 55.3842 19.737 54.6583 18.9962 54.7067C18.4264 54.7067 18.6543 55.3479 18.6771 55.6745C18.6999 56.0012 18.3694 56.6908 19.0646 56.6545C19.7598 56.6182 19.2583 56.0012 19.4407 55.6262Z" fill="white"/>
<path d="M68.3136 34.104H70.8665V43.2016C70.8386 43.7579 70.9042 44.315 71.0602 44.8469C71.1881 45.1717 71.4122 45.4435 71.6984 45.6212C72.0191 45.8216 72.3864 45.9222 72.7583 45.9115C73.1588 45.9251 73.5545 45.8159 73.898 45.597C74.1945 45.4035 74.4258 45.1156 74.559 44.7743C74.7092 44.1504 74.7707 43.5061 74.7414 42.8629V34.104H77.2601V42.4394C77.2965 43.4175 77.22 44.3967 77.0322 45.355C76.8638 45.9451 76.5715 46.487 76.1774 46.9399C75.779 47.4288 75.2798 47.8138 74.7186 48.065C74.1093 48.3193 73.4585 48.4426 72.8039 48.4279C71.9276 48.4505 71.0628 48.2116 70.308 47.7383C69.6514 47.3244 69.1242 46.7143 68.7923 45.9841C68.4282 44.8444 68.2735 43.6411 68.3364 42.4394L68.3136 34.104Z" fill="white"/>
<path d="M80.1434 34.104H82.5482L88.1896 43.2984V34.104H90.6969V48.0771H88.2807L82.6507 38.9069V48.0771H80.1434V34.104Z" fill="white"/>
<path d="M98.8229 34.104H101.33V45.5365H104.989V48.0771H98.8229V34.104Z" fill="white"/>
<path d="M109.194 34.104H106.71V48.0771H109.194V34.104Z" fill="white"/>
<path d="M110.721 34.104H118.003V36.7292H115.599V48.0771H113.057V36.7292H110.721V34.104Z" fill="white"/>
<path d="M119.873 34.1037H122.528C123.58 34.0404 124.634 34.1798 125.639 34.5151C126.26 34.7945 126.779 35.2779 127.121 35.8942C127.511 36.5749 127.709 37.3601 127.691 38.1565C127.721 38.9782 127.501 39.7882 127.064 40.4672C126.591 41.1269 125.938 41.6168 125.195 41.8706L128.318 48.0405H125.571L122.608 42.1246H122.38V48.0405H119.873V34.1037ZM122.38 39.5599H123.166C123.731 39.613 124.299 39.5 124.807 39.2332C124.992 39.0785 125.134 38.8743 125.22 38.6417C125.306 38.4091 125.331 38.1564 125.294 37.9099C125.257 37.6633 125.158 37.4317 125.009 37.239C124.859 37.0463 124.664 36.8995 124.443 36.8137C123.994 36.6801 123.528 36.627 123.064 36.6564H122.38V39.5599Z" fill="white"/>
<path d="M136.569 33.753C137.468 33.7479 138.358 33.9398 139.183 34.3166C140.009 34.6933 140.752 35.247 141.367 35.9427C142.021 36.6247 142.537 37.4408 142.884 38.3415C143.231 39.2421 143.401 40.2083 143.384 41.1811C143.403 42.142 143.237 43.0968 142.896 43.9871C142.555 44.8774 142.046 45.6845 141.401 46.359C140.761 47.0409 140 47.5809 139.161 47.9475C138.323 48.3141 137.424 48.4999 136.517 48.4943C135.61 48.4887 134.714 48.2917 133.879 47.9147C133.045 47.5377 132.289 46.9883 131.657 46.2985C131.023 45.6193 130.523 44.8124 130.186 43.9254C129.85 43.0384 129.683 42.0889 129.697 41.1327C129.689 39.839 130.004 38.5661 130.608 37.4429C131.212 36.3356 132.081 35.4174 133.127 34.7813C134.164 34.1374 135.345 33.7991 136.546 33.8014M136.546 36.4025C135.974 36.3883 135.406 36.5015 134.878 36.7349C134.35 36.9683 133.874 37.3166 133.48 37.7574C133.064 38.2085 132.739 38.7445 132.523 39.3329C132.308 39.9214 132.207 40.5501 132.227 41.1811C132.204 41.8743 132.335 42.5635 132.608 43.1936C132.881 43.8237 133.289 44.3774 133.8 44.8105C134.583 45.5017 135.573 45.8747 136.592 45.863C137.161 45.8738 137.726 45.7576 138.25 45.5222C138.774 45.2867 139.246 44.9371 139.635 44.496C140.445 43.5825 140.896 42.3752 140.896 41.1206C140.896 39.866 140.445 38.6588 139.635 37.7453C139.24 37.301 138.763 36.9489 138.233 36.7114C137.703 36.474 137.133 36.3564 136.558 36.3662" fill="white"/>
<path d="M71.2965 56.1104H73.838L78.8981 70.0834H76.2997L75.2626 67.2041H69.9061L68.8348 70.0834H66.2135L71.2965 56.1104ZM72.5843 59.8123L70.8178 64.6515H74.3394L72.5843 59.8123Z" fill="white"/>
<path d="M80.8353 56.1104H83.3426V67.5429H86.9896V70.0834H80.8353V56.1104Z" fill="white"/>
<path d="M87.6051 56.1104H94.8763V58.7235H92.4829V70.0834H89.9414V58.7235H87.6051V56.1104Z" fill="white"/>
<path d="M100.609 56.1104H103.15L108.222 70.0834H105.612L104.586 67.2041H99.2184L98.1471 70.0834H95.5372L100.609 56.1104ZM101.897 59.8123L100.13 64.6515H103.652L101.897 59.8123Z" fill="white"/>
<path d="M127.904 58.384L126.138 60.2349C125.649 59.6484 125.049 59.1781 124.378 58.8549C123.706 58.5318 122.977 58.363 122.24 58.3598C121.637 58.3398 121.038 58.4508 120.477 58.6859C119.917 58.921 119.407 59.2752 118.98 59.7268C118.562 60.1486 118.229 60.6573 118.004 61.2213C117.778 61.7854 117.665 62.3927 117.67 63.0054C117.658 63.645 117.772 64.2802 118.006 64.8699C118.239 65.4597 118.587 65.9908 119.026 66.4291C119.473 66.9014 120.008 67.2701 120.597 67.5116C121.185 67.7532 121.815 67.8624 122.445 67.8324C123.21 67.8633 123.968 67.6664 124.633 67.2638C125.273 66.8205 125.773 66.1844 126.069 65.437H122.263V63.0054H128.884V63.5982C128.885 64.819 128.578 66.0177 127.995 67.0703C127.46 68.1098 126.673 68.9786 125.716 69.5866C124.692 70.1761 123.541 70.4722 122.377 70.4456C121.101 70.4696 119.841 70.1446 118.718 69.5019C117.649 68.8748 116.768 67.9396 116.177 66.8041C115.555 65.6562 115.233 64.3535 115.242 63.0296C115.217 61.2432 115.832 59.5133 116.963 58.1904C117.631 57.3968 118.455 56.7687 119.376 56.3506C120.298 55.9324 121.295 55.7345 122.297 55.7708C123.4 55.7588 124.493 55.9852 125.511 56.4362C126.453 56.9022 127.295 57.5694 127.984 58.3961" fill="white"/>
<path d="M131.312 56.1101H133.967C135.019 56.0468 136.074 56.1861 137.079 56.5214C137.697 56.7991 138.215 57.2778 138.56 57.8885C138.95 58.574 139.147 59.3627 139.13 60.1629C139.16 60.9807 138.94 61.787 138.503 62.4615C138.037 63.1282 137.382 63.6198 136.634 63.8648L139.746 70.0831H137.01L134.047 64.2157H133.819V70.1315H131.312V56.1101ZM133.819 61.5662H134.606C135.171 61.6194 135.738 61.5064 136.247 61.2396C136.408 61.1131 136.536 60.9436 136.616 60.7482C136.696 60.5527 136.726 60.3383 136.703 60.1266C136.708 59.8454 136.628 59.5698 136.475 59.3402C136.332 59.1119 136.125 58.9381 135.882 58.8442C135.432 58.7226 134.967 58.6737 134.503 58.699H133.819V61.5662Z" fill="white"/>
<path d="M145.797 56.1104H148.338L153.399 70.0834H150.823L149.797 67.2041H144.429L143.358 70.0834H140.748L145.797 56.1104ZM147.085 59.8123L145.318 64.6515H148.84L147.085 59.8123Z" fill="white"/>
<path d="M167.44 58.566L165.639 60.3323C165.139 59.7161 164.522 59.2188 163.829 58.8728C163.136 58.5267 162.382 58.3398 161.616 58.3241C161.025 58.3109 160.438 58.4265 159.891 58.6637C159.344 58.9009 158.849 59.2547 158.436 59.7032C158.013 60.1409 157.681 60.6668 157.459 61.2477C157.238 61.8286 157.132 62.452 157.148 63.0786C157.14 63.9236 157.336 64.7569 157.718 65.4981C158.096 66.2165 158.657 66.8075 159.336 67.2039C160.035 67.6116 160.819 67.8239 161.616 67.8209C162.302 67.83 162.983 67.6815 163.61 67.3854C164.353 66.9891 165.025 66.4567 165.593 65.8127L167.291 67.6878C166.501 68.5627 165.566 69.2762 164.533 69.7929C163.593 70.196 162.585 70.3935 161.57 70.3736C160.644 70.4082 159.721 70.2427 158.857 69.8871C157.993 69.5315 157.206 68.9932 156.544 68.3048C155.896 67.6093 155.389 66.7804 155.054 65.8692C154.719 64.958 154.563 63.9836 154.595 63.006C154.573 61.7058 154.88 60.4231 155.484 59.2919C156.1 58.1941 156.981 57.2916 158.037 56.6788C159.126 56.0293 160.355 55.6916 161.604 55.6988C162.688 55.7046 163.759 55.9584 164.742 56.4427C165.725 56.927 166.599 57.6306 167.303 58.5056" fill="white"/>
<path d="M171.93 56.1104H169.446V70.0834H171.93V56.1104Z" fill="white"/>
<path d="M178.779 56.1104H181.321L186.381 70.0834H183.771L182.746 67.2041H177.378L176.306 70.0834H173.697L178.779 56.1104ZM180.056 59.8123L178.289 64.6515H181.822L180.056 59.8123Z" fill="white"/>
</svg>
