<svg width="18" height="12" viewBox="0 0 18 12" fill="none" xmlns="http://www.w3.org/2000/svg">
<path d="M8.70833 3.5625C8.07844 3.5625 7.47435 3.81272 7.02895 4.25812C6.58356 4.70352 6.33333 5.30761 6.33333 5.9375C6.33333 6.56739 6.58356 7.17148 7.02895 7.61688C7.47435 8.06228 8.07844 8.3125 8.70833 8.3125C9.33822 8.3125 9.94231 8.06228 10.3877 7.61688C10.8331 7.17148 11.0833 6.56739 11.0833 5.9375C11.0833 5.30761 10.8331 4.70352 10.3877 4.25812C9.94231 3.81272 9.33822 3.5625 8.70833 3.5625ZM8.70833 9.89583C7.65852 9.89583 6.6517 9.4788 5.90937 8.73646C5.16704 7.99413 4.75 6.98732 4.75 5.9375C4.75 4.88768 5.16704 3.88087 5.90937 3.13854C6.6517 2.3962 7.65852 1.97917 8.70833 1.97917C9.75815 1.97917 10.765 2.3962 11.5073 3.13854C12.2496 3.88087 12.6667 4.88768 12.6667 5.9375C12.6667 6.98732 12.2496 7.99413 11.5073 8.73646C10.765 9.4788 9.75815 9.89583 8.70833 9.89583ZM8.70833 0C4.75 0 1.36958 2.46208 0 5.9375C1.36958 9.41292 4.75 11.875 8.70833 11.875C12.6667 11.875 16.0471 9.41292 17.4167 5.9375C16.0471 2.46208 12.6667 0 8.70833 0Z" fill="#111827"/>
</svg>
