<svg width="32" height="32" viewBox="0 0 32 32" fill="none" xmlns="http://www.w3.org/2000/svg">
<circle cx="16" cy="16" r="16" fill="#111827"/>
<path d="M23.05 8.91C22.1332 7.98392 21.0412 7.24967 19.8376 6.75005C18.6341 6.25043 17.3431 5.99546 16.04 6C10.58 6 6.13 10.45 6.13 15.91C6.13 17.66 6.59 19.36 7.45 20.86L6.05 26L11.3 24.62C12.75 25.41 14.38 25.83 16.04 25.83C21.5 25.83 25.95 21.38 25.95 15.92C25.95 13.27 24.92 10.78 23.05 8.91ZM16.04 24.15C14.56 24.15 13.11 23.75 11.84 23L11.54 22.82L8.42 23.64L9.25 20.6L9.05 20.29C8.22775 18.977 7.79114 17.4592 7.79 15.91C7.79 11.37 11.49 7.67 16.03 7.67C18.23 7.67 20.3 8.53 21.85 10.09C22.6175 10.854 23.2257 11.7627 23.6394 12.7634C24.0531 13.7642 24.264 14.8371 24.26 15.92C24.28 20.46 20.58 24.15 16.04 24.15ZM20.56 17.99C20.31 17.87 19.09 17.27 18.87 17.18C18.64 17.1 18.48 17.06 18.31 17.3C18.14 17.55 17.67 18.11 17.53 18.27C17.39 18.44 17.24 18.46 16.99 18.33C16.74 18.21 15.94 17.94 15 17.1C14.26 16.44 13.77 15.63 13.62 15.38C13.48 15.13 13.6 15 13.73 14.87C13.84 14.76 13.98 14.58 14.1 14.44C14.22 14.3 14.27 14.19 14.35 14.03C14.43 13.86 14.39 13.72 14.33 13.6C14.27 13.48 13.77 12.26 13.57 11.76C13.37 11.28 13.16 11.34 13.01 11.33H12.53C12.36 11.33 12.1 11.39 11.87 11.64C11.65 11.89 11.01 12.49 11.01 13.71C11.01 14.93 11.9 16.11 12.02 16.27C12.14 16.44 13.77 18.94 16.25 20.01C16.84 20.27 17.3 20.42 17.66 20.53C18.25 20.72 18.79 20.69 19.22 20.63C19.7 20.56 20.69 20.03 20.89 19.45C21.1 18.87 21.1 18.38 21.03 18.27C20.96 18.16 20.81 18.11 20.56 17.99Z" fill="#FFAC0C"/>
</svg>
