<svg width="20" height="20" viewBox="0 0 20 20" fill="none" xmlns="http://www.w3.org/2000/svg">
<path d="M17.05 2.91C16.1332 1.98392 15.0412 1.24967 13.8376 0.75005C12.6341 0.250433 11.3431 -0.00454115 10.04 -1.46553e-06C4.58 -1.46553e-06 0.129999 4.45 0.129999 9.91C0.129999 11.66 0.589999 13.36 1.45 14.86L0.0499992 20L5.3 18.62C6.75 19.41 8.38 19.83 10.04 19.83C15.5 19.83 19.95 15.38 19.95 9.92C19.95 7.27 18.92 4.78 17.05 2.91ZM10.04 18.15C8.56 18.15 7.11 17.75 5.84 17L5.54 16.82L2.42 17.64L3.25 14.6L3.05 14.29C2.22775 12.977 1.79114 11.4592 1.79 9.91C1.79 5.37 5.49 1.67 10.03 1.67C12.23 1.67 14.3 2.53 15.85 4.09C16.6175 4.85396 17.2257 5.76266 17.6394 6.76342C18.0531 7.76419 18.264 8.83711 18.26 9.92C18.28 14.46 14.58 18.15 10.04 18.15ZM14.56 11.99C14.31 11.87 13.09 11.27 12.87 11.18C12.64 11.1 12.48 11.06 12.31 11.3C12.14 11.55 11.67 12.11 11.53 12.27C11.39 12.44 11.24 12.46 10.99 12.33C10.74 12.21 9.94 11.94 9 11.1C8.26 10.44 7.77 9.63 7.62 9.38C7.48 9.13 7.6 9 7.73 8.87C7.84 8.76 7.98 8.58 8.1 8.44C8.22 8.3 8.27 8.19 8.35 8.03C8.43 7.86 8.39 7.72 8.33 7.6C8.27 7.48 7.77 6.26 7.57 5.76C7.37 5.28 7.16 5.34 7.01 5.33H6.53C6.36 5.33 6.1 5.39 5.87 5.64C5.65 5.89 5.01 6.49 5.01 7.71C5.01 8.93 5.9 10.11 6.02 10.27C6.14 10.44 7.77 12.94 10.25 14.01C10.84 14.27 11.3 14.42 11.66 14.53C12.25 14.72 12.79 14.69 13.22 14.63C13.7 14.56 14.69 14.03 14.89 13.45C15.1 12.87 15.1 12.38 15.03 12.27C14.96 12.16 14.81 12.11 14.56 11.99Z" fill="#F2F2F2"/>
</svg>
