<svg xmlns="http://www.w3.org/2000/svg" width="24" height="25" viewBox="0 0 24 25" fill="none">
<path d="M15.9037 12.9221L20.1009 11.0977C20.3774 10.9751 20.6103 10.7718 20.7692 10.5145C20.9281 10.2571 21.0054 9.95772 20.9912 9.65561C20.9769 9.3535 20.8716 9.06277 20.6891 8.82156C20.5066 8.58035 20.2555 8.39994 19.9687 8.30399L4.96119 3.40367C4.69872 3.31955 4.41816 3.30937 4.15028 3.37425C3.88241 3.43912 3.63759 3.57655 3.4427 3.77144C3.24781 3.96633 3.11039 4.21115 3.04551 4.47902C2.98063 4.74689 2.99082 5.02746 3.07494 5.28993L7.97525 20.2974C8.06772 20.587 8.24687 20.8412 8.48848 21.0256C8.73009 21.21 9.0225 21.3158 9.32619 21.3287H9.40025C9.69144 21.3296 9.97648 21.2449 10.2199 21.085C10.4632 20.9252 10.6542 20.6972 10.769 20.4296L12.5934 16.2324L17.2499 20.889C17.3892 21.0283 17.5546 21.1388 17.7366 21.2142C17.9186 21.2896 18.1137 21.3284 18.3107 21.3284C18.5077 21.3284 18.7028 21.2896 18.8848 21.2142C19.0668 21.1388 19.2322 21.0283 19.3715 20.889L20.5603 19.7002C20.6996 19.5609 20.8101 19.3956 20.8855 19.2136C20.9609 19.0315 20.9997 18.8365 20.9997 18.6395C20.9997 18.4424 20.9609 18.2474 20.8855 18.0654C20.8101 17.8833 20.6996 17.718 20.5603 17.5787L15.9037 12.9221ZM18.3103 19.8287L13.6546 15.1721C13.4817 14.999 13.2691 14.8708 13.0353 14.7987C12.8015 14.7266 12.5536 14.7128 12.3133 14.7584C12.0729 14.8041 11.8474 14.9079 11.6563 15.0607C11.4653 15.2135 11.3145 15.4108 11.2171 15.6352L9.3965 19.8212L4.49994 4.82868L19.4878 9.72336L15.3028 11.543C15.0783 11.6404 14.881 11.7912 14.7282 11.9822C14.5754 12.1733 14.4716 12.3988 14.426 12.6392C14.3803 12.8796 14.3941 13.1275 14.4662 13.3613C14.5383 13.595 14.6665 13.8077 14.8396 13.9805L19.4999 18.639L18.3103 19.8287ZM8.24994 2.57868V1.82867C8.24994 1.62976 8.32896 1.439 8.46961 1.29834C8.61026 1.15769 8.80103 1.07867 8.99994 1.07867C9.19885 1.07867 9.38962 1.15769 9.53027 1.29834C9.67092 1.439 9.74994 1.62976 9.74994 1.82867V2.57868C9.74994 2.77759 9.67092 2.96835 9.53027 3.109C9.38962 3.24966 9.19885 3.32868 8.99994 3.32868C8.80103 3.32868 8.61026 3.24966 8.46961 3.109C8.32896 2.96835 8.24994 2.77759 8.24994 2.57868ZM0.74994 9.32867C0.74994 9.12976 0.828957 8.939 0.96961 8.79834C1.11026 8.65769 1.30103 8.57867 1.49994 8.57867H2.24994C2.44885 8.57867 2.63962 8.65769 2.78027 8.79834C2.92092 8.939 2.99994 9.12976 2.99994 9.32867C2.99994 9.52759 2.92092 9.71835 2.78027 9.859C2.63962 9.99966 2.44885 10.0787 2.24994 10.0787H1.49994C1.30103 10.0787 1.11026 9.99966 0.96961 9.859C0.828957 9.71835 0.74994 9.52759 0.74994 9.32867ZM11.3296 2.99305L12.0796 1.49305C12.1686 1.31515 12.3247 1.17989 12.5134 1.11704C12.7022 1.05418 12.9081 1.06888 13.086 1.15789C13.2639 1.24691 13.3992 1.40295 13.462 1.59168C13.5249 1.78042 13.5102 1.9864 13.4212 2.1643L12.6712 3.6643C12.6271 3.75239 12.5661 3.83093 12.4917 3.89545C12.4173 3.95997 12.3309 4.00919 12.2374 4.04031C12.1439 4.07143 12.0453 4.08384 11.947 4.07683C11.8488 4.06982 11.7529 4.04353 11.6648 3.99946C11.5767 3.95538 11.4982 3.89439 11.4336 3.81996C11.3691 3.74553 11.3199 3.65912 11.2888 3.56567C11.2576 3.47221 11.2452 3.37354 11.2522 3.27529C11.2593 3.17705 11.2856 3.08114 11.3296 2.99305ZM3.67119 11.993C3.71533 12.0812 3.74166 12.1772 3.74868 12.2755C3.7557 12.3738 3.74327 12.4725 3.7121 12.5661C3.68093 12.6596 3.63163 12.746 3.56702 12.8205C3.50241 12.8949 3.42376 12.9559 3.33556 12.9999L1.83556 13.7499C1.65766 13.8389 1.45169 13.8536 1.26295 13.7908C1.07421 13.7279 0.918172 13.5927 0.829158 13.4148C0.740145 13.2369 0.725449 13.0309 0.788303 12.8422C0.851157 12.6534 0.986412 12.4974 1.16431 12.4084L2.66431 11.6584C2.7524 11.6142 2.84832 11.5878 2.9466 11.5807C3.04488 11.5736 3.1436 11.586 3.2371 11.6171C3.33061 11.6482 3.41708 11.6974 3.49156 11.7619C3.56604 11.8264 3.62708 11.9049 3.67119 11.993Z" fill="#100C33"/>
</svg>