<svg width="63" height="86" viewBox="0 0 63 86" fill="none" xmlns="http://www.w3.org/2000/svg">
<g filter="url(#filter0_d_168_5026)">
<path d="M31.0261 0.0967831L32.6331 2.90349C34.8099 6.77482 37.1918 10.5373 39.4712 14.3481C41.7505 18.1589 44.1097 21.9214 46.3092 25.7564C47.6655 28.1034 49.1015 30.402 50.4349 32.7611C52.7142 36.826 54.9936 40.8788 56.9538 45.1251C57.8264 47.1547 58.2921 49.3546 58.3215 51.5854C58.416 54.8706 57.8284 58.1376 56.6005 61.1548C55.2972 64.38 53.3534 67.2686 50.9021 69.6233C46.7069 73.6947 41.4441 76.3149 35.8128 77.1361C31.7984 77.7785 27.7038 77.5688 23.7664 76.5191C19.6245 75.4618 15.7603 73.4273 12.4608 70.567C9.81802 68.3099 7.67434 65.4644 6.18114 62.2315C4.48323 58.5453 3.75478 54.4407 4.07273 50.3514C4.4483 46.8512 5.51633 43.4747 7.20685 40.4432C8.99614 36.9348 10.9222 33.4869 12.9052 30.0874C15.3062 26.0548 17.7299 22.0222 20.1764 17.9896C20.9628 16.6951 21.8289 15.4369 22.5811 14.1303C24.473 10.9002 26.5586 7.76684 28.3935 4.45202C29.214 3.00028 30.0802 1.57273 30.9919 0M31.3566 75.7328C33.8504 75.7797 36.3376 75.4456 38.7418 74.7407C42.066 73.8117 45.1867 72.2006 47.9276 69.9984C49.8031 68.5112 51.4455 66.7188 52.794 64.6874C54.8961 61.5153 56.1522 57.7995 56.4296 53.9324C56.6878 51.6164 56.4542 49.2684 55.7458 47.0608C54.8586 44.8184 53.8266 42.6437 52.6572 40.5521C50.6438 36.7534 48.5316 32.995 46.3206 29.2769C44.0413 25.3814 41.6365 21.51 39.2888 17.6266C36.7511 13.3843 34.2058 9.15407 31.653 4.93594C31.4592 4.63349 31.3339 4.17377 30.935 4.17377C30.5361 4.17377 30.5817 4.69398 30.3765 4.94804C27.8464 9.23069 25.1112 13.4166 22.3988 17.6145C19.4356 22.3206 16.4269 27.0025 13.6574 31.8174C11.5649 35.3291 9.66235 38.9643 7.95904 42.7055C6.80909 45.1841 6.09827 47.8661 5.86203 50.6176C5.52054 55.4425 6.75621 60.2449 9.36084 64.2156C11.9076 68.1809 15.4653 71.2945 19.618 73.1922C23.3013 74.9647 27.3136 75.8331 31.3566 75.7328Z" fill="#009BDB"/>
<path d="M31.0717 55.856C31.0717 53.6663 31.0717 51.4766 31.0717 49.2748C31.1332 47.3013 31.499 45.3519 32.1544 43.5041C32.612 41.9578 32.9925 40.3869 33.2941 38.798C33.3625 38.5548 33.3712 38.2971 33.3193 38.0494C33.2674 37.8016 33.1567 37.5721 32.9977 37.3825C32.6558 37.0075 32.7584 36.5357 32.7584 36.0881C32.7584 35.6404 33.0091 35.7372 33.2485 35.7251C34.9922 35.7251 36.7359 35.6525 38.4796 35.7251C38.9583 35.7251 39.1862 36.5478 38.8215 37.0801C38.5911 37.47 38.4512 37.9125 38.4136 38.371C38.3759 38.8296 38.4415 39.2911 38.605 39.7174C39.5167 43.8428 40.8843 47.8472 40.5766 52.2145C40.3259 55.8439 40.4854 59.6064 40.4285 63.2962C40.4285 64.0342 40.645 64.2277 41.3174 64.2519C44.3945 64.3487 47.4717 64.5302 50.5602 64.5302C50.7311 64.5302 50.9477 64.4455 51.0275 64.6875C51.1072 64.9294 50.9363 65.0383 50.8223 65.1835C50.0052 66.2644 49.1015 67.2683 48.1213 68.1838C45.673 70.5322 42.805 72.3342 39.6877 73.4826C36.6223 74.6165 33.3791 75.1095 30.1372 74.9344C26.6034 74.8176 23.1337 73.902 19.9598 72.2486C17.4267 70.9048 15.117 69.1314 13.1217 66.9982C12.3924 66.2239 11.7541 65.3649 11.0817 64.5786C10.9336 64.3729 10.7512 64.1552 10.8994 63.8648C11.0475 63.5745 11.2983 63.6954 11.5148 63.7075H15.5948C15.8798 63.7075 16.1989 63.7922 16.3014 63.3446C16.404 62.897 16.8257 62.6308 16.3014 62.2316C16.0735 62.0501 15.9823 61.784 16.3014 61.5783C16.5571 61.345 16.7506 61.0446 16.8626 60.707C16.9746 60.3695 17.0012 60.0066 16.9397 59.6547C16.9397 59.074 17.179 58.8079 17.726 58.8684C18.2731 58.9289 18.501 58.6143 18.8657 58.2998C19.4356 57.8159 19.9028 57.09 20.7918 57.09C21.2135 57.09 21.373 56.7271 21.3046 56.3278C21.1793 55.4931 21.5212 54.5978 21.0197 53.8236C20.9887 53.7421 20.9887 53.651 21.0197 53.5695C21.5896 53.4001 21.7149 52.8073 22.0454 52.4202C22.1433 52.2564 22.2838 52.1261 22.4499 52.0453C22.6161 51.9644 22.8007 51.9363 22.9815 51.9645C23.1624 51.9926 23.3317 52.0758 23.4689 52.2039C23.6062 52.332 23.7055 52.4996 23.7549 52.6864C23.8848 53.0421 24.1375 53.3319 24.4616 53.4969C24.5983 53.5695 24.8149 53.7147 24.6553 53.8599C24.0741 54.4043 24.3476 55.0697 24.302 55.735C24.2564 56.4004 24.245 57.1142 25.2707 57.332C25.8994 57.5164 26.4376 57.9493 26.7751 58.5417C26.8556 58.7156 26.9865 58.8576 27.1485 58.9468C27.3105 59.0361 27.4951 59.068 27.6754 59.0378C28.2225 58.9652 28.4048 59.2434 28.3706 59.7878C28.3518 60.074 28.3863 60.3614 28.4724 60.6334C28.5585 60.9053 28.6943 61.1566 28.8721 61.3726C28.9542 61.4523 29.0168 61.5519 29.0545 61.663C29.0545 62.534 29.5901 62.7397 30.3195 62.6308C30.5816 62.6308 30.707 62.7276 30.65 63.018C30.6273 63.1091 30.6273 63.205 30.65 63.2962C30.7184 63.5624 30.65 64.01 30.9805 63.9858C31.311 63.9616 31.1857 63.5261 31.1857 63.272C31.1857 60.8524 31.1857 58.3966 31.1857 55.9044L31.0717 55.856ZM31.5845 63.7317C31.5845 63.3809 31.5845 63.0301 31.5845 62.6671C31.5845 58.4813 31.5845 54.2833 31.4706 50.0853C31.4803 48.2734 31.769 46.4753 32.3253 44.7622C32.3964 44.2996 32.5512 43.8559 32.7812 43.4557C33.1003 43.0806 33.6132 43.4557 34.0576 43.4557C34.9717 43.3247 35.8748 43.1184 36.7587 42.8387C38.4454 42.5241 38.5366 42.5604 39.1178 44.2057C39.1178 44.2057 39.1178 44.2057 39.1178 44.2783C39.6362 45.6994 39.9438 47.1971 40.0296 48.7183C40.0296 53.388 40.0296 58.0578 39.9384 62.7276C39.8753 63.1817 39.9104 63.645 40.041 64.0826C40.1055 63.9872 40.1412 63.8733 40.1435 63.7559C40.1891 58.8603 40.2309 53.9526 40.2689 49.0328C40.2631 48.6769 40.2403 48.3216 40.2005 47.9682C39.984 45.5486 38.9469 43.4315 38.548 41.0966C38.2222 40.0113 38.1021 38.8682 38.1947 37.7334C38.2973 37.189 38.1947 37.0559 37.6818 37.068C36.4624 37.068 35.2315 37.068 34.0121 37.068C33.4878 37.068 33.351 37.1648 33.5106 37.7455C33.6414 38.281 33.6414 38.8431 33.5106 39.3787C33.2143 40.5885 32.918 41.9072 32.5533 43.1411C31.6832 45.6231 31.2767 48.2611 31.3566 50.908C31.4136 51.6943 31.3566 52.4807 31.3566 53.2671C31.3566 56.7634 31.2996 60.2596 31.6073 63.7801M23.2991 60.5863C23.2991 59.9209 22.9344 59.3765 22.5241 59.4612C22.1138 59.5459 21.8175 60.0056 21.8175 60.5137C21.8175 61.0218 22.0568 61.4936 22.5925 61.4815C23.1281 61.4694 23.2763 61.0097 23.2991 60.5863ZM23.0597 55.6262C22.7976 55.3842 23.3561 54.6583 22.6153 54.7067C22.0454 54.7067 22.2734 55.3479 22.2962 55.6745C22.319 56.0012 21.9884 56.6908 22.6837 56.6545C23.3789 56.6182 22.8774 56.0012 23.0597 55.6262Z" fill="#009BDB"/>
</g>
<defs>
<filter id="filter0_d_168_5026" x="0" y="0" width="62.3313" height="85.5" filterUnits="userSpaceOnUse" color-interpolation-filters="sRGB">
<feFlood flood-opacity="0" result="BackgroundImageFix"/>
<feColorMatrix in="SourceAlpha" type="matrix" values="0 0 0 0 0 0 0 0 0 0 0 0 0 0 0 0 0 0 127 0" result="hardAlpha"/>
<feOffset dy="4"/>
<feGaussianBlur stdDeviation="2"/>
<feComposite in2="hardAlpha" operator="out"/>
<feColorMatrix type="matrix" values="0 0 0 0 0 0 0 0 0 0 0 0 0 0 0 0 0 0 0.25 0"/>
<feBlend mode="normal" in2="BackgroundImageFix" result="effect1_dropShadow_168_5026"/>
<feBlend mode="normal" in="SourceGraphic" in2="effect1_dropShadow_168_5026" result="shape"/>
</filter>
</defs>
</svg>
